<svg height="512" viewBox="0 0 60 60" width="512" xmlns="http://www.w3.org/2000/svg"><g id="Page-1" fill="none" fill-rule="evenodd"><g id="015---Rash" fill="rgb(0,0,0)" fill-rule="nonzero" transform="translate(-1)"><path id="Shape" d="m60.024 27.933c-.6021392-.3619907-1.3509653-.3779718-1.968-.042-4.4840772 2.378381-8.7359204 5.170871-12.7 8.341-1.257 1.047-3.488 1.734-5.85 2.462-2.7915341.7306318-5.4719571 1.8338803-7.969 3.28-2.0459581-2.7577298-4.3329543-5.3281743-6.834-7.681-1.7117013-1.9482991-3.055793-4.1909365-3.967-6.619 2.341-1.667 2.988-5.138 3.13-6.157.1082727-.8612621.370081-1.6961361.773-2.465l2.878-5.428c.8187913-1.3800524.4066222-3.1600733-.9354224-4.03977781-1.3420446-.87970448-3.1387211-.54757227-4.0775776.75377781l-1.579 2.367 1.047-8.325c.1036093-.793172-.1162282-1.59467802-.61-2.224-.7457157-.94893684-1.9874679-1.35861732-3.1514641-1.03973517-1.1639963.31888216-2.0235735 1.30423153-2.1815359 2.50073517l-.338 2.451-.739-3.626c-.2022123-1.05393351-.951331-1.91992925-1.9651704-2.271775-1.0138393-.35184574-2.138373-.13608776-2.95.56600001-.81162703.70208777-1.18704195 1.78384149-.9848296 2.83777499l.593 2.9-.888-1.66c-.66749987-1.51145483-2.42343624-2.20875648-3.946-1.567-1.51914718.67314094-2.21350147 2.44358829-1.557 3.97l1.873 4.005c-1.11553642-.4395332-2.38528847-.18088-3.24.66-.56818805.5588895-.88818616 1.3225087-.88818616 2.1195s.31999811 1.5606105.88818616 2.1195l4.8 4.8c.519785.5169747.91806952 1.1430944 1.166 1.833.91 2.523 2.071 5.227 3.722 6.114.551 2.6 1.99 9.209 3.468 14.408 2.478 8.685 5.523 16.724 10.957 16.724 5.337 0 26.061-4.975 34.467-14.027.3458494-.3732047.5364527-.8641958.533-1.373v-14.946c.0037023-.7063694-.3678863-1.3615989-.976-1.721zm-34.024 30.067c-4.674 0-7.732-10.7-9.038-15.273-1.461-5.138-2.888-11.694-3.43-14.255-.1005755-.5604665-.4479735-1.0459424-.946-1.322-1.274-.69-2.464-3.991-2.856-5.076-.34660911-.9660722-.90333097-1.8431653-1.63-2.568l-4.808-4.806c-.28108131-.2867452-.36339093-.7138074-.20901671-1.0844799.15437421-.3706725.51549026-.6130609.91701671-.6155201.27736677.0034133.54106877.1209759.729.325l2.59 2.41c.3504357.3254819.88228159.357261 1.26898215.0758248.38670056-.2814361.51998572-.7972898.31801785-1.2308248l-3.824-8.175c-.21368945-.50767014.01606957-1.09315645.518-1.32.25962416-.10273533.5496001-.09708545.80502535.01568508.25542525.11277054.45497092.32324498.55397465.58431492l4.16 7.79c.2346761.4369132.7541254.6358134 1.2205949.467373.4664696-.1684404.7390071-.653324.6404051-1.139373l-1.966-9.61c-.0994113-.54593348.2625665-1.06908875.8085-1.1685s1.0690887.26256652 1.1685.8085l1.909 9.367c.0966822.4782729.5244226.8169374 1.0121207.8013488.4876981-.0155885.8929378-.3808779.9588793-.8643488l1.142-8.268c.0314465-.26261969.168239-.50119454.379-.661.4354185-.32809256 1.0528683-.25008024 1.393.176.1637552.21036457.2358493.47783367.2.742l-1.57 12.53c-.0573735.4600389.2089675.8991896.6434426 1.0609267.4344751.1617372.9231446.0036458 1.1805574-.3819267l3.931-5.892c.1851012-.325741.5367568-.5206878.911091-.50508s.7085409.2391514.8658834.5791705c.1573425.3400192.1114217.7394652-.1189744 1.0349095-.0201103.0286822-.0381558.0587581-.054.09l-2.9 5.463c-.5114955.9762868-.8466376 2.0352005-.99 3.128-.237 1.7-.968 3.853-2.3 4.8-.7817251.5304475-1.0836434 1.5368419-.723 2.41 1.0312802 2.6637098 2.5297848 5.1219347 4.425 7.259 2.430199 2.2814725 4.6510792 4.776114 6.636 7.454-1.1244454.9392195-2.0725894 2.0712357-2.8 3.343-.2739332.4799354-.1069354 1.0910667.373 1.365.4799355.2739332 1.0910668.1069354 1.365-.373.7452577-1.2968955 1.7563834-2.4215045 2.967-3.3l.024-.017c2.382-1.774 5.494-2.732 8.239-3.578 2.559-.788 4.976-1.532 6.541-2.837 3.8623102-3.0799822 8.003209-5.7933774 12.369-8.105v14.956c-7.886 8.49-28.042 13.39-33 13.39z"/><circle id="Oval" cx="55" cy="39" r="1"/><circle id="Oval" cx="35" cy="47" r="1"/><circle id="Oval" cx="31" cy="53" r="1"/><circle id="Oval" cx="23" cy="50" r="1"/><circle id="Oval" cx="26" cy="43" r="1"/><circle id="Oval" cx="21" cy="41" r="1"/><circle id="Oval" cx="12" cy="18" r="1"/><circle id="Oval" cx="19" cy="21" r="1"/><circle id="Oval" cx="14" cy="22" r="1"/><circle id="Oval" cx="18" cy="34" r="1"/><circle id="Oval" cx="47" cy="42" r="1"/><circle id="Oval" cx="52" cy="45" r="1"/><path id="Shape" d="m43 45c-1.6568542 0-3 1.3431458-3 3s1.3431458 3 3 3 3-1.3431458 3-3-1.3431458-3-3-3zm0 4c-.5522847 0-1-.4477153-1-1s.4477153-1 1-1 1 .4477153 1 1-.4477153 1-1 1z"/></g></g></svg>