<svg height="512" viewBox="0 0 60 60" width="512" xmlns="http://www.w3.org/2000/svg"><g id="Page-1" fill="none" fill-rule="evenodd"><g id="030---Itching" fill="rgb(0,0,0)" fill-rule="nonzero"><path id="Shape" d="m45.422 43.108c-.1730701-.1800741-.2753349-.4165616-.288-.666-.1172088-1.5661332-.7421606-3.0512716-1.78-4.23l-14.795-14.8c-.4297387-.4232372-.9700595-.7167919-1.559-.847v-12.445c.0233614-1.49424223-1.0272949-2.79050098-2.494-3.077-.504923-.08454793-1.0230348-.03982381-1.506.13v-1.053c.0233614-1.49424223-1.0272949-2.79050098-2.494-3.077-.5049-.08511998-1.0231554-.04038345-1.506.13v-.173c-.0000117-.88305588-.3890747-1.7212552-1.0635236-2.29126083-.6744488-.57000563-1.5657716-.81391515-2.4364764-.66673917-1.4692496.28439135-2.5229076 1.58165512-2.5 3.078v.053c-.4806101-.17103975-.997017-.21613928-1.5-.131-1.4692496.28439135-2.52290761 1.58165512-2.5 3.078v19.671c-.87361223-.3263838-1.51878392-1.0780145-1.709-1.991l-1.382-5.537c-.21674477-.8518524-.79617751-1.5657924-1.58520133-1.9531838-.78902382-.3873915-1.70824883-.4092559-2.51479867-.0598162-1.36005278.6192216-2.07747683 2.1270781-1.7 3.573l1.361 5.431c.54813059 2.1930315 1.75788371 4.1642483 3.465 5.646.827.889 1.6 1.727 2.255 2.446.622.677 1.146 1.249 1.542 1.67.17449483.1806794.27078071.4228312.268.674v22.31c0 1.1045695.8954305 2 2 2h12c1.1045695 0 2-.8954305 2-2v-4.425c.8742554.1522013 1.7636621.198535 2.649.138 1.078.039 2.094.082 2.991.12 1.066.044 1.964.082 2.594.1.2516538.00631.4913641.1086341.67.286l5.382 5.481c.1880439.1918431.4453659.2999616.714.3h19c.5522847 0 1-.4477153 1-1v-1c-.0013761-.2668986-.1093902-.522172-.3-.709zm-22.422 14.892h-12v-22.31c.004147-.7660277-.2903504-1.5035268-.821-2.056-.382-.405-.9-.97-1.515-1.639-.672-.733-1.457-1.589-2.3-2.5-.02432538-.0276492-.05073621-.0533915-.079-.077-1.41601363-1.2159169-2.42041627-2.8407784-2.875-4.651l-1.359-5.427c-.14564276-.4952993.08600982-1.0235853.549-1.252.26866571-.1192703.57620038-.1142928.84086559.0136095.26466521.1279022.45965157.3657733.53313441.6503905l1.382 5.535c.34927306 1.5411023 1.44640927 2.8052675 2.923 3.368.61671469.2342478 1.30914854.1506271 1.8523698-.2236985.5432213-.3743256.8679237-.9915981.8686302-1.6513015v-19.66c-.0251923-.51764552.3218664-.97983011.826-1.1.2917336-.05349446.5920159.02773245.817.221.2244808.18845605.3549817.46590742.357.759v14c0 .5522847.4477153 1 1 1s1-.4477153 1-1v-16.88c-.0251923-.51764552.3218664-.97983011.826-1.1.291764-.05423783.5923645.02707515.817.221.2244808.18845605.3549817.46590742.357.759v17c0 .5522847.4477153 1 1 1s1-.4477153 1-1v-14c.0001434-.29681487.1321334-.57822825.3602637-.76811148.2281303-.18988324.5288239-.26861205.8207363-.21488852.5027329.12286424.8467822.58621752.819 1.103v13.88c0 .5522847.4477153 1 1 1s1-.4477153 1-1v-10c.0001434-.29681487.1321334-.57822825.3602637-.76811148.2281303-.18988324.5288239-.26861205.8207363-.21488852.5027329.12286424.8467822.58621752.819 1.103v12.663c-.1325799.062832-.2599779.1360607-.381.219-.4176394.2968591-.7525533.6954514-.973 1.158l-.744-.743c-1.0414259-1.0690869-2.6968107-1.2443333-3.939-.417-.418202.2972103-.7537614.6960958-.975 1.159l-.122-.123c-.625302-.6254334-1.4947107-.943091-2.3759289-.8680978s-1.6844468.5349951-2.1950711 1.2570978c-.8284072 1.2419353-.6539828 2.8979167.415 3.94l.036.036c-.4625682.2208765-.861137.5561148-1.158.974-.8297378 1.2414483-.6565582 2.8980033.412 3.941l2.132 2.134-1.842 1.843c-.2599566.2510745-.3642126.6228779-.2726972.9725073.0915155.3496295.3645604.6226744.7141899.7141899.3496294.0915154.7214328-.0127406.9725073-.2726972l1.842-1.842 1.086 1.086-4.342 4.342c-.2599566.2510745-.3642126.6228779-.2726972.9725073.0915155.3496295.3645604.6226744.7141899.7141899.3496294.0915154.7214328-.0127406.9725073-.2726972l4.341-4.341 1.086 1.086-.841.841c-.2599566.2510745-.3642126.6228779-.2726972.9725073.0915155.3496295.3645604.6226744.7141899.7141899.3496294.0915154.7214328-.0127406.9725073-.2726972l.84-.84 1.456 1.453v2.928l-3.6-2.16c-.7560724-.4510835-1.672126-.5472816-2.505411-.2631022-.833285.2841795-1.4996783.9200475-1.822589 1.7391022-.5240774 1.3999634.0367373 2.9738763 1.328 3.727l4.8 2.879c.5734193.3384411 1.1757902.6252366 1.8.857zm3.9-10.774c-.5973385.2726124-1.2749808.3122009-1.9.111v-2.015zm13.52 10.774-5.095-5.189c-.5403888-.542573-1.2685202-.8568795-2.034-.878-.625-.017-1.513-.055-2.567-.1-.915-.038-1.954-.082-3.055-.122-.0369578-.002498-.0740422-.002498-.111 0-1.8622431.1387677-3.7218407-.3016817-5.324-1.261l-4.8-2.877c-.4477631-.2468981-.6591009-.7754516-.505-1.263.1078396-.282156.3353025-.5019269.621-.6.2752643-.0930796.5774866-.0609205.827.088l4.892 2.937c.1.062.206.1.309.157.0161363.0096507.0328324.0183327.05.026 1.2684353.6695024 2.774544.7174559 4.083.13.605966-.2654113 1.0414848-.8132946 1.1633632-1.4635127.1218783-.6502181-.0856541-1.3186365-.5543632-1.7854873l-3.612-3.613-10.291-10.286c-.3791566-.3514641-.4623907-.9195363-.2-1.365.1692763-.2429421.4375133-.3983747.7324646-.4244339s.5862856.0799349.7955354.2894339l9.9 9.9c.3923789.3789722 1.0160848.3735524 1.4018186-.0121814s.3911536-1.0094397.0121814-1.4018186l-9.9-9.9-2.035-2.035c-.379672-.3516084-.4629366-.9203054-.2-1.366.1699784-.2433937.4400304-.3978664.736-.421.2932267-.0258826.5829622.0787441.792.286l2.117 2.118 9.9 9.9c.3923789.3789722 1.0160848.3735524 1.4018186-.0121814s.3911536-1.0094397.0121814-1.4018186l-9.9-9.9c-.2073968-.2103567-.3118561-.5012376-.2856672-.7954782.026189-.2942406.1803791-.5621004.4216672-.7325218.4454637-.2623907 1.0135359-.1791566 1.365.2l2.738 2.738v.005l7.078 7.076c.2527654.2525868.6210837.3511378.966213.25853.3451292-.0926079.6146361-.3623054.707-.7075.0923638-.3451947-.0064476-.7134432-.259213-.96603l-7.071-7.07c-.2099703-.2091281-.3163698-.5006143-.2904973-.7958307.0258724-.2952164.1813516-.5637518.4244973-.7331693.4456946-.2629366 1.0143916-.179672 1.366.2l14.796 14.795c.690589.8434969 1.1090171 1.8766657 1.2 2.963.0479526.7286145.3568123 1.415561.87 1.935l13.572 13.476z"/><circle id="Oval" cx="15" cy="52" r="1"/><circle id="Oval" cx="19" cy="55" r="1"/></g></g></svg>