<?xml version="1.0" encoding="UTF-8" standalone="no"?>
<!DOCTYPE svg PUBLIC "-//W3C//DTD SVG 1.1//EN" "http://www.w3.org/Graphics/SVG/1.1/DTD/svg11.dtd">
<svg width="100%" height="100%" viewBox="0 0 1080 1080" version="1.1" xmlns="http://www.w3.org/2000/svg" xmlns:xlink="http://www.w3.org/1999/xlink" xml:space="preserve" xmlns:serif="http://www.serif.com/" style="fill-rule:evenodd;clip-rule:evenodd;stroke-linecap:round;stroke-linejoin:round;stroke-miterlimit:1.5;">
    <g transform="matrix(3.42744,0,0,3.42744,540,540)">
        <g transform="matrix(1,0,0,1,-157.552,-157.552)">
            <clipPath id="_clip1">
                <rect x="0" y="0" width="315.104" height="315.104"/>
            </clipPath>
            <g clip-path="url(#_clip1)">
                <g>
                    <path d="M84.673,69.664C87.976,69.664 90.668,72.315 90.718,75.618L92.427,188.873C97.656,187.385 105.955,186.781 115.991,186.781C131.151,186.781 150.27,188.16 168.741,189.956C170.496,190.127 172.251,190.211 173.999,190.211C186.083,190.211 197.866,186.173 207.453,178.645C214.114,173.414 233.967,157.557 233.967,157.557C235.305,156.493 236.902,155.976 238.489,155.976C240.629,155.976 242.749,156.916 244.184,158.721C246.685,161.864 246.163,166.438 243.02,168.938L234.598,175.963C233.788,176.639 233.496,177.754 233.872,178.74C234.238,179.7 235.158,180.331 236.18,180.331C236.207,180.331 236.235,180.331 236.262,180.33L283.292,178.777L283.327,178.777C287.327,178.777 290.575,181.121 290.589,185.125C290.598,187.739 289.222,189.13 287.156,190.419L292.809,190.399L292.835,190.399C296.839,190.399 300.092,193.638 300.106,197.645C300.12,201.661 296.876,204.928 292.86,204.942L285.931,204.966C288.006,206.241 289.398,208.521 289.407,211.135C289.421,215.151 286.176,218.418 282.16,218.432L270.094,218.474C272.169,219.749 273.561,221.13 273.57,223.744C273.584,227.76 270.339,229.229 266.324,229.243C265.275,229.247 263.107,229.297 259.961,229.297C251.082,229.297 234.425,228.896 213.252,225.917C209.405,225.376 205.555,225.104 201.71,225.104C196.118,225.104 190.538,225.68 185.008,226.839C154.919,233.147 118.945,240.666 87.22,245.069C85.417,245.319 83.624,245.441 81.851,245.441C63.723,245.441 47.66,232.717 43.856,214.499L15.132,76.945C14.76,75.163 15.21,73.309 16.358,71.896C17.506,70.483 19.229,69.663 21.05,69.663L84.673,69.663M33.196,97.242C36.92,97.242 39.939,94.223 39.939,90.499C39.939,86.775 36.92,83.756 33.196,83.756C29.472,83.756 26.453,86.775 26.453,90.499C26.453,94.223 29.472,97.242 33.196,97.242M45.16,158.821C45.572,158.821 45.989,158.783 46.408,158.705C50.068,158.02 52.481,154.498 51.796,150.838L43.536,106.677C42.93,103.435 40.091,101.173 36.911,101.174C36.501,101.174 36.085,101.212 35.668,101.289C32.008,101.974 29.595,105.496 30.28,109.156L38.54,153.317C39.146,156.559 41.978,158.821 45.16,158.821M84.673,54.664L21.05,54.664C14.685,54.664 8.733,57.497 4.718,62.436C0.704,67.375 -0.853,73.781 0.449,80.012L29.17,217.565C31.705,229.706 38.411,240.682 48.054,248.471C57.61,256.19 69.612,260.442 81.848,260.442C84.32,260.442 86.82,260.269 89.28,259.928C121.829,255.411 158.566,247.71 188.084,241.522C192.565,240.583 197.149,240.106 201.708,240.106C204.835,240.106 208.015,240.33 211.16,240.773C227.553,243.08 244.427,244.299 259.958,244.299C262.157,244.299 263.933,244.275 265.108,244.259C265.637,244.252 266.06,244.246 266.372,244.245C271.529,244.227 276.031,242.964 279.754,240.491C282.655,238.564 284.915,236.002 286.42,233.02C294.689,231.401 301.328,225.194 303.58,217.176C310.469,213.364 315.133,206.01 315.104,197.596C315.077,189.7 310.909,182.755 304.669,178.82C301.985,169.925 293.689,163.78 283.326,163.78L283.2,163.78C283.065,163.781 282.931,163.783 282.796,163.788L260.73,164.517C261.049,159.041 259.364,153.71 255.922,149.384C251.675,144.043 245.32,140.978 238.489,140.978C233.478,140.978 228.556,142.697 224.63,145.819C224.407,145.997 204.725,161.716 198.189,166.849C191.321,172.243 182.73,175.213 173.999,175.213C172.734,175.213 171.453,175.151 170.192,175.028C148.043,172.874 129.807,171.782 115.99,171.782C112.819,171.782 109.887,171.837 107.172,171.948L105.715,75.393C105.544,63.963 96.104,54.664 84.673,54.664Z" style="fill-rule:nonzero;"/>
                </g>
            </g>
        </g>
    </g>
    <path d="M384.065,287.273C394.885,287.273 440.696,276.211 449.18,267.585C449.809,266.945 451.312,265.987 451.312,265.417" style="fill:none;stroke:black;stroke-width:9px;"/>
    <path d="M392.514,362.792C404.05,368.56 451.17,346.45 451.17,355.649" style="fill:none;stroke:black;stroke-width:9px;"/>
    <path d="M395.864,427.258C403.799,435.194 486.641,415.229 505.677,415.229" style="fill:none;stroke:black;stroke-width:9px;"/>
    <path d="M46.07,739.257C43.011,751.291 34.96,801.367 21.762,814.35" style="fill:none;stroke:black;stroke-width:9px;"/>
    <path d="M107.809,835.877C107.809,858.868 97.556,882.127 97.556,904.768" style="fill:none;stroke:black;stroke-width:9px;"/>
    <path d="M391.741,921.133C391.741,933.52 398.094,947.786 398.094,959.612" style="fill:none;stroke:black;stroke-width:9px;"/>
    <path d="M564.182,895.332C568.37,907.899 576.265,923.77 576.265,937.027" style="fill:none;stroke:black;stroke-width:9px;"/>
    <path d="M631.562,871.619C640.331,880.388 647.83,909.205 647.83,920.627" style="fill:none;stroke:black;stroke-width:9px;"/>
    <path d="M481.546,914.949C481.546,913.254 482.475,921.22 482.772,923.23C483.986,931.434 482.819,943.188 486.664,950.879" style="fill:none;stroke:black;stroke-width:9px;"/>
    <path d="M241.894,942.456C241.894,952.184 240.26,962.947 240.26,973.125" style="fill:none;stroke:black;stroke-width:9px;"/>
    <path d="M315.476,935.108C315.476,931.71 316.009,940.721 316.009,941.896L316.009,970.078" style="fill:none;stroke:black;stroke-width:9px;"/>
    <path d="M164.03,904.306C164.03,912.848 157.922,926.571 155.288,934.3C155.125,934.779 148.3,959.399 147.851,959.399" style="fill:none;stroke:black;stroke-width:9px;"/>
    <path d="M417.968,506.526C437.007,496.849 473.084,500.397 487.863,485.372" style="fill:none;stroke:black;stroke-width:9px;"/>
    <path d="M516.018,563.681C516.018,543.567 540.717,527.071 540.717,506.446" style="fill:none;stroke:black;stroke-width:9px;"/>
    <path d="M34.529,585.199C24.951,588.357 19.45,604.039 13.313,610.076" style="fill:none;stroke:black;stroke-width:9px;"/>
    <path d="M576.762,556.689C577.235,557.161 577.295,547.022 577.295,544.481C577.295,534.739 578.521,525.114 578.521,515.269" style="fill:none;stroke:black;stroke-width:9px;"/>
</svg>
