<svg height="512" viewBox="0 0 60 60" width="512" xmlns="http://www.w3.org/2000/svg"><g id="Page-1" fill="none" fill-rule="evenodd"><g id="010---Joint-Pain" fill="rgb(0,0,0)" fill-rule="nonzero" transform="translate(-1)"><path id="Shape" d="m60.024 27.933c-.6019637-.3625974-1.3511147-.3785854-1.968-.042-4.4839343 2.3786225-8.7357556 5.1710981-12.7 8.341-1.256 1.047-3.487 1.734-5.849 2.462-2.7915341.7306318-5.4719571 1.8338803-7.969 3.28-2.0456668-2.7579666-4.3326852-5.3284361-6.834-7.681-1.7119886-1.9480894-3.0561133-4.1907819-3.967-6.619 2.342-1.668 2.989-5.139 3.13-6.158.1105842-.8605706.3726267-1.694773.774-2.464l2.877-5.428c.8187913-1.3800524.4066222-3.1600733-.9354224-4.03977781-1.3420446-.87970448-3.1387211-.54757227-4.0775776.75377781l-1.579 2.367 1.044-8.326c.1028858-.79312433-.1176778-1.59428921-.612-2.223-.7435258-.95302828-1.9870559-1.36568786-3.1528417-1.04625557-1.1657858.3194323-2.0252799 1.30833317-2.1791583 2.50725557l-.339 2.45-.739-3.625c-.3125932-1.62924001-1.88676-2.69659317-3.516-2.384-1.62924001.31259317-2.69659317 1.88675999-2.384 3.516l.593 2.9-.887-1.66c-.66706459-1.51022391-2.42126297-2.20736539-3.943-1.567-1.51872411.673546-2.21291583 2.44357884-1.557 3.97l1.873 4.005c-1.11555972-.4392664-2.38516269-.1806436-3.24.66-.56818805.5588895-.88818616 1.3225087-.88818616 2.1195s.31999811 1.5606105.88818616 2.1195l4.8 4.8c.51777136.5176314.91488708 1.1431826 1.163 1.832.909 2.523 2.071 5.228 3.721 6.114.552 2.6 1.992 9.217 3.467 14.408.428 1.5.875 2.972 1.345 4.393-2.0987347 3.7947916-1.7737568 8.4682081.83 11.936.3418328.4093302.9447304.4783933 1.3702727.1569674.4255424-.321426.5239787-.9202294.2237273-1.3609674-1.7057761-2.2699798-2.235483-5.2137855-1.428-7.936 2.105 5.466 4.758 9.536 8.621 9.536 2.3645351-.1237818 4.7118516-.473033 7.01-1.043-.0218756.3252775.1194365.6401374.377.84.4399986.3329064 1.0664887.2465403 1.4-.193.3031231-.4049446.5774633-.8306563.821-1.274 8.325-2.158 19.292-6.362 24.859-12.357.3458494-.3732047.5364527-.8641958.533-1.373v-14.946c.0037023-.7063694-.3678863-1.3615989-.976-1.721zm-23.452 28.061c.9374068-3.2993663.2821323-6.8471672-1.772-9.594-.2143594-.2858125-.5649147-.4355547-.9196152-.3928203-.3547006.0427344-.6596589.2714531-.8.6-.1403412.3285469-.0947442.7070078.1196152.9928203 1.9407587 2.6032287 2.3250332 6.0513763 1.005 9.018-2.680809.7388416-5.430078 1.2019117-8.205 1.382-1.922 0-3.57-1.811-4.936-4.26-.2380384-1.5658107.2815378-3.1516313 1.4-4.273.3789722-.3923789.3735524-1.0160848-.0121814-1.4018186s-1.0094397-.3911536-1.4018186-.0121814c-.6732827.6783913-1.2001548 1.4877595-1.548 2.378-.338-.832-.651-1.676-.937-2.5.3149899-.4617483.6725527-.8929664 1.068-1.288.2602871-.250712.3650501-.6223558.2740261-.9720992-.0910241-.3497435-.363671-.6231628-.7131556-.7151758-.3494845-.0920131-.7214232.0116982-.9728705.271275-.141.14-.267.289-.4.435-.343-1.107-.632-2.117-.864-2.93-1.458-5.13-2.887-11.691-3.43-14.255-.1003505-.5602777-.4473559-1.045718-.945-1.322-1.274-.69-2.465-3.991-2.857-5.076-.34484747-.9672245-.89982827-1.8459725-1.625-2.573l-4.8-4.8c-.28431847-.2851823-.36983647-.7130814-.21697059-1.0856374.15286587-.372556.51428575-.6170691.91697059-.6203626.27736677.0034133.54106877.1209759.729.325l2.589 2.41c.35023044.3268717.88307972.3594373 1.27050902.0776483.3874293-.2817889.52058447-.7987595.31749098-1.2326483l-3.824-8.175c-.21368945-.50767014.01606957-1.09315645.518-1.32.25964579-.10245234.54950568-.09666391.8048542.01607274.25534851.11273665.45491838.323032.5541458.58392726l4.16 7.79c.2346761.4369132.7541254.6358134 1.2205949.467373.4664696-.1684404.7390071-.653324.6404051-1.139373l-1.965-9.61c-.0643078-.35297841.0645811-.71345171.3381154-.94563312.2735344-.2321814.6501579-.30079701.988-.18.3378422.12079701.5855768.41265471.6498846.76563312l1.909 9.367c.104811.4729912.5275889.807203 1.012.8.4869179-.0159037.8915163-.3803802.958-.863l1.143-8.267c.0314843-.26315672.1682125-.50234091.379-.663.4358214-.32731524 1.0528861-.2489086 1.393.177.163652.21041599.2357343.47784108.2.742l-1.57 12.53c-.0573735.4600389.2089675.8991896.6434426 1.0609267.4344751.1617372.9231446.0036458 1.1805574-.3819267l3.931-5.892c.1841883-.3272838.5362204-.5237765.9114728-.5087539.3752525.0150225.7104507.2390271.8678872.5799873.1574364.3409601.1105644.7413836-.12136 1.0367666-.019.029-.038.06-.055.091l-2.9 5.463c-.5119429.9761004-.8471108 2.0350955-.99 3.128-.226 1.62-.965 3.851-2.3 4.8-.7822488.530505-1.0845837 1.5373134-.724 2.411 1.0308749 2.6639098 2.5294213 5.1222033 4.425 7.259 2.430199 2.2814725 4.6510792 4.776114 6.636 7.454-1.1247043.9393505-2.0728804 2.0717437-2.8 3.344-.1768465.3104638-.1746289.6916907.0058174 1.0000761s.5117072.4970784.869.495.6863361-.1946123.8631826-.5050761c.7493061-1.2948592 1.7642175-2.4164419 2.978-3.291l.023-.018c2.383-1.774 5.495-2.732 8.24-3.578 2.559-.788 4.976-1.532 6.542-2.837 3.8586448-3.0824576 7.9962079-5.798539 12.359-8.113v14.956c-4.921 5.302-14.625 9.202-22.428 11.384z"/><path id="Shape" d="m26 50c-1.6568542 0-3 1.3431458-3 3s1.3431458 3 3 3 3-1.3431458 3-3-1.3431458-3-3-3zm0 4c-.5522847 0-1-.4477153-1-1s.4477153-1 1-1 1 .4477153 1 1-.4477153 1-1 1z"/><path id="Shape" d="m30.06 48.472c-.2070508.1658593-.3397107.4071951-.3687808.6708887-.02907.2636935.0478324.5281319.2137808.7351113 1.0622362 1.3213666 1.3784411 3.092717.839 4.7-.1739178.5241145.1099158 1.089991.634 1.264.1015472.0339388.2079316.0511629.315.051.4312411.0003916.8141592-.2757125.95-.685.7553979-2.2528055.3118296-4.7352049-1.177-6.587-.3471797-.429275-.9765579-.495973-1.406-.149z"/><path id="Shape" d="m34.293 37.707c.3904999.3903819 1.0235001.3903819 1.414 0l3-3c.2859079-.2859943.3714219-.7160366.216678-1.0896546-.1547439-.3736179-.5192821-.6172591-.923678-.6173454h-.586l1.293-1.293c.3789722-.3923789.3735524-1.0160848-.0121814-1.4018186s-1.0094397-.3911536-1.4018186-.0121814l-3 3c-.2859079.2859943-.3714219.7160366-.216678 1.0896546.1547439.3736179.5192821.6172591.923678.6173454h.586l-1.293 1.293c-.3903819.3904999-.3903819 1.0235001 0 1.414z"/><path id="Shape" d="m27.887 33.28c.3308163.2344015.7704259.2458558 1.113.029l.493-.309-.4 1.784c-.0597062.2592999-.0136085.5317032.1280905.7569201.141699.225217.3673136.3846742.6269095.4430799.072605.0158275.14669.0238729.221.024.4673338-.0002336.8721866-.3241159.975-.78l.935-4.138c.089438-.3947458-.0678984-.8044779-.3985548-1.0379082-.3306565-.2334304-.7694185-.2445201-1.1114452-.0280918l-.494.313.4-1.784c.0785984-.3485126-.0347029-.7124833-.2972244-.9548078s-.63438-.326188-.9755-.22c-.34112.1061881-.5996772.3862952-.6782756.7348078l-.935 4.138c-.0856663.3917759.0710038.796835.398 1.029z"/></g></g></svg>