<svg height="512" viewBox="0 0 56 60" width="512" xmlns="http://www.w3.org/2000/svg"><g id="Page-1" fill="none" fill-rule="evenodd"><g id="013---Bloated" fill="rgb(0,0,0)" fill-rule="nonzero"><path id="Shape" d="m52.089 30.969-.638-1.333c-.4017251-.8301036-1.3222398-1.2742042-2.222-1.072-.274-.514-.55-1.024-.82-1.551-.5960066-1.2153337-.8087327-2.5830582-.61-3.922.6437304-4.4639174-.1354994-9.0171806-2.227-13.013.873-3.775 2.2-8.253 2.347-8.684.1324388-.30894891.1007989-.66376723-.0842148-.94440826s-.4986462-.44955462-.8347852-.44959174h-38c-.33613905.00003712-.64977151.16895071-.83478522.44959174-.1850137.28064103-.21665357.63545935-.08421478.94440826.151.431 1.474 4.909 2.347 8.684-2.0919227 3.996042-2.87150194 8.5496526-2.228 13.014.19865287 1.3386163-.01407426 2.7059984-.61 3.921-.27.528-.546 1.038-.821 1.552-.90125753-.2036506-1.82361136.2427969-2.223 1.076l-.636 1.331c-.762 1.584-.879 1.828-.747 2.55.16597356.7908741.38513831 1.569644.656 2.331-.35382295 1.3141724-.6026067 2.6543946-.744 4.008-.5551844 5.9379699-.58864587 11.9131846-.1 17.857l.03.427c.07027882 1.048391.94427348 1.8610527 1.995 1.855h19.97c.5505928-.0008448 1.0769329-.2266256 1.457-.625.3740303-.3888184.5702556-.9152236.542-1.454-.0225194-1.1055922-.1968154-2.2028499-.518-3.261.4987192.1758206 1.0207001.2769144 1.549.3.5279403-.0233728 1.0495495-.1244598 1.548-.3-.3200497 1.0535886-.4940057 2.1461131-.517 3.247-.0305784.5430019.1657217 1.0743159.542 1.467.3798966.3987428.9062587.6248943 1.457.626h19.97c1.054067.0075468 1.9311666-.8081559 2-1.86l.029-.422c.4886572-5.9448164.4551958-11.9210283-.1-17.86-.1419285-1.3508961-.3907075-2.6884177-.744-4 .2742342-.772091.4957433-1.5619064.663-2.364.122-.694.004-.938-.759-2.525zm-41.9-8.135c-.78282531-5.0093562.5019801-10.1218711 3.56-14.166.3694785-.41172828.3352283-1.0450215-.0765-1.4145s-1.0450215-.33522828-1.4145.0765c-.029.032-.156.178-.339.413-.519-2.056-1.135-4.301-1.561-5.743h35.284c-.426 1.442-1.042 3.687-1.561 5.743-.183-.235-.31-.381-.339-.413-.3723215-.39743233-.9942086-.42386922-1.3989162-.05946899s-.4434206.98564401-.0870838 1.39746899c3.0580199 4.0441289 4.3428253 9.1566438 3.56 14.166-.2515768 1.7394261.0316113 3.5142341.812 5.089.291.569.588 1.12.885 1.673-.613.43-1.232.843-1.867 1.229.0009922-.4687733-.3256633-.8745227-.7838406-.9736337-.4581772-.0991109-.9233224.1353594-1.1161594.5626337-.3737752.7864529-.8232286 1.5346487-1.342 2.234-.0322341.0391962-.0616415.080634-.088.124-2.098 2.792-6.307 6.228-14.316 6.228s-12.218-3.436-14.319-6.228c-.0263585-.043366-.0557659-.0848038-.088-.124-.5187714-.6993513-.9682248-1.4475471-1.342-2.234-.192837-.4272743-.6579822-.6617446-1.1161594-.5626337-.4581773.099111-.7848328.5048604-.7838406.9736337-.636-.386-1.254-.8-1.867-1.229.3-.553.594-1.1.885-1.672.7813731-1.5748174 1.0656028-3.3499448.815-5.09zm-5.189 35.166-.031-.424c-.47719865-5.8297559-.44373789-11.6900733.1-17.514.034-.328.095-.648.142-.973 1.00603129 1.8672523 2.44190436 3.4683417 4.189 4.671 1.92 1.44 4.668 3.062 7.326 4.631 2.2746455 1.2321594 4.4481103 2.6425708 6.5 4.218 1.128646 1.5714901 1.7383587 3.4562155 1.744 5.391zm19.709-6.747c-1.152-1.152-3.846-2.742-6.965-4.584-2.611-1.542-5.311-3.135-7.141-4.508-2.879-2.161-3.64-3.635-4.812-6.736-.27799432-.7397411-.50551603-1.4974786-.681-2.268.031-.13.27-.628.6-1.318l.628-1.318c.117.087.235.165.352.251.008.005.013.013.021.017h.008c1.73790481 1.2747534 3.5854814 2.3928033 5.521 3.341 2.367 3.016 7.081 6.87 15.76 6.87s13.393-3.854 15.76-6.87c1.9112234-.9326025 3.732282-2.039632 5.44-3.307.0295564-.0098545.0585937-.0212024.087-.034.1013452-.058163.1917123-.1336382.267-.223.031-.024.062-.044.092-.067l.641 1.337c.332.69.571 1.188.6 1.262-.1636206.7964113-.3903357 1.5785449-.678 2.339-1.172 3.089-1.933 4.563-4.809 6.723-1.831 1.374-4.531 2.967-7.142 4.509-3.119 1.842-5.813 3.432-6.965 4.584-.8522359.9463166-2.0178889 1.552584-3.282 1.707-1.2725027-.1475194-2.4473797-.7545155-3.304-1.707zm26.326 6.323-.035.424h-19.971c.0066483-1.9343154.6162741-3.8184228 1.744-5.39 2.0518897-1.5754292 4.2253545-2.9858406 6.5-4.218 2.658-1.569 5.406-3.191 7.327-4.632 1.7481375-1.2018136 3.1853544-2.802187 4.193-4.669.047.323.108.643.141.969.5437415 5.8246075.5768678 11.6856184.099 17.516z"/><path id="Shape" d="m28 33c.5522847 0 1-.4477153 1-1v-2c0-.5522847-.4477153-1-1-1s-1 .4477153-1 1v2c0 .5522847.4477153 1 1 1z"/><path id="Shape" d="m48.45 8.657c-.2395195.11401149-.4239248.31851925-.5126337.56851709-.0887089.24999783-.0744518.5249987.0396337.76448291 1.7129104 3.602178 2.3586889 7.6194687 1.861 11.577-.0676986.5478023.3212525 1.0468593.869 1.115.0414221.0056494.0831957.0083229.125.008.5038032-.0012127.9280335-.3770208.99-.877.5449789-4.335628-.1625582-8.736655-2.039-12.683-.1140115-.23951945-.3185193-.42392475-.5685171-.51263366s-.5249987-.07445183-.7644829.03963366z"/><path id="Shape" d="m7.55 8.657c-.23948421-.11408549-.51448508-.12834257-.76448291-.03963366-.24999784.08870891-.4545056.27311421-.56851709.51263366-1.87644176 3.946345-2.58397895 8.347372-2.039 12.683.06196651.4999792.48619685.8757873.99.877.04180428.0003229.08357795-.0023506.125-.008.54774749-.0681407.93669864-.5671977.869-1.115-.49768894-3.9575313.14808958-7.974822 1.861-11.577.11408549-.23948421.12834257-.51448508.03963366-.76448291-.08870891-.24999784-.27311421-.4545056-.51263366-.56851709z"/><path id="Shape" d="m51.479 5.9c-.2341636.12494009-.4090537.33784397-.4861444.59181178s-.0500575.5281645.0751444.76218822c2.6063165 4.9072561 3.505892 10.5421802 2.557 16.017-.0949373.543988.2690301 1.0619588.813 1.157.0571354.0099085.1150118.0149267.173.015.4855111-.0005326.9004923-.3497241.984-.828 1.0243225-5.9133892.0526531-11.9995154-2.762-17.3-.1242469-.23485606-.33685-.41061141-.5908823-.4884721-.2540322-.07786069-.5286068-.05142496-.7631177.0734721z"/><path id="Shape" d="m1.562 24.425c.54396989-.0950412.90793727-.613012.813-1.157-.94889196-5.4748198-.04931646-11.1097439 2.557-16.017.1682721-.31528688.15555838-.69639608-.03335203-.99976743-.1889104-.30337135-.5253175-.48291554-.8825-.471-.3571825.01191553-.68087588.21348054-.84914797.52876743-2.8170294 5.3007603-3.79048093 11.3880865-2.767 17.303.08350768.4782759.49848886.8274674.984.828.05965782.0002151.1192195-.0048041.178-.015z"/></g></g></svg>