<svg height="512" viewBox="0 0 60 60" width="512" xmlns="http://www.w3.org/2000/svg"><g id="Page-1" fill="none" fill-rule="evenodd"><g id="007---Shivers" fill="rgb(0,0,0)" fill-rule="nonzero"><path id="Shape" d="m11.159 56.6c.0853593.0234089.1734892.035182.262.035.5007295-.001122.923437-.372421.9891189-.8688252.065682-.4964043-.2459125-.9648628-.7291189-1.0961748-4.09352368-1.1137452-7.60872849-3.7456788-9.83-7.36-.30083428-.4429438-.89718357-.5703294-1.35273837-.2889574-.4555548.2813721-.6086437.8716461-.34726163 1.3389574 2.48757353 4.0469394 6.42408912 6.9936044 11.008 8.24z"/><path id="Shape" d="m48.319 54.665c-.4832064.131312-.7948009.5997705-.7291189 1.0961748.0656819.4964042.4883894.8677032.9891189.8688252.0885108.000182.1766407-.0115911.262-.035 4.5846511-1.2459407 8.5219488-4.1926558 11.01-8.24.2065339-.3040974.229573-.696993.0599964-1.0231452-.1695767-.3261522-.5044256-.5329706-.8719852-.538579s-.7085627.1908976-.8880112.5117242c-2.2217492 3.6147259-5.7377361 6.2467096-9.832 7.36z"/><path id="Shape" d="m44.312 1.843c1.5536085.98651494 2.9630134 2.18356679 4.188 3.557 4.858 5.473 6.7 13.532 5.475 23.95-1.022 8.685.524 11.482 1.236 12.281.2375816.2668774.5994935.386734.9494069.314421s.6346682-.3258096.747-.665.0351747-.7125436-.2024069-.979421c-.182-.2-1.742-2.232-.744-10.718 1.297-11.005-.71-19.588-5.961-25.507-1.3492327-1.51278566-2.9012808-2.83162273-4.612-3.919-.3011749-.1922089-.6820142-.20914235-.9990594-.04442169-.3170453.16472066-.5221297.48607046-.538.84300002-.0158704.35692956.1598845.69521279.4610594.88742167z"/><path id="Shape" d="m4.04 41.97c.28539558.0000447.55721194-.1218542.747-.335.712-.8 2.258-3.6 1.236-12.281-1.223-10.418.617-18.477 5.477-23.954 1.2253308-1.37499022 2.6354291-2.57340546 4.19-3.561.4356314-.30893686.5516274-.90565945.2634539-1.35529567-.2881735-.44963623-.8788017-.59348075-1.3414539-.32670433-1.7109742 1.08742568-3.2630594 2.40663076-4.612 3.92-5.253 5.918-7.26 14.5-5.965 25.51 1 8.486-.562 10.515-.744 10.718-.2622358.294508-.32690901.7156275-.16513146 1.0752531.16177755.3596257.51979421.5905982.91413146.5897469z"/><path id="Shape" d="m15.7 53.262c-.8978145 1.3533391-1.4590807 2.9017069-1.637 4.516-.0607908.5671548.122495 1.1333998.5040959 1.5573583.3816008.4239586.9255015.6656178 1.4959041.6646417h27.875c.5705965.001007 1.1146763-.2407873 1.4963121-.6649754.3816357-.4241881.5647836-.9907075.5036879-1.5580246-.1789184-1.6190307-.7429836-3.1716672-1.645-4.528 5.2950593-.1974519 10.0922346-3.176438 12.617-7.835.1464535-.3285002.1052144-.7103439-.108-1-.2131352-.2923431-.5663582-.4483563-.926-.409-.7839136.0034647-1.5308917-.3328214-2.048-.922-1.16-1.176-2.942-4.555-1.835-13.969 1.154-9.832-.523-17.363-4.988-22.382-5.212-5.857-12.892-6.732-17.005-6.732s-11.793.875-17 6.735c-4.47 5.019-6.147 12.55-4.993 22.382 1.107 9.414-.675 12.793-1.835 13.969-.51076086.5876661-1.25139385.9247818-2.03.924-.36065547-.050933-.72048079.0982564-.93928745.389444-.21880665.2911876-.26198494.6783147-.11271255 1.010556 2.51255781 4.6692 7.3112779 7.6572691 12.61 7.852zm.355 4.738c.2262584-1.9139348 1.091997-3.6954464 2.457-5.056.0127377-.0112389.0247611-.0232623.036-.036.6272388-.637049 1.3193304-1.2068096 2.065-1.7 1.467 1.228 4.322 2.792 9.387 2.792s7.92-1.563 9.387-2.8c.7474042.4955064 1.4405587 1.0683308 2.068 1.709.007.009.017.016.025.025 1.3677083 1.3627844 2.2340236 3.1482821 2.458 5.066zm-.895-26.9999852-.16-.0000148c-.7970226.0030636-1.5192282-.4690211-1.8362365-1.2002941-.3170082-.731273-.1678517-1.5810949.3792365-2.1607059.3732676-.4097109.902759-.6419312 1.457-.639v2c.0050302.6696529.0585031 1.3380644.16 2.0000148zm1.84-2.0000148v-8c-.0083398-.5176522.3843323-.9539545.9-1 3.514-.3 11.858-1.6 16.92-7.123 1.8853127 2.8643527 4.5249969 5.1524481 7.628 6.612.3356809.1682738.5477325.5115034.548.887v8.624c-.0071604 6.6228876-5.3731152 11.9906316-11.996 12h-2c-6.624447-.0071648-11.9928352-5.375553-12-12zm28 0v-2c.4489315.0008607.8841746.1546418 1.234.436.4876282.3714132.7715205.9510575.766 1.564 0 1.1045695-.8954305 2-2 2h-.16c.1014969-.6619356.1549698-1.3303471.16-2zm-17 16v-2.051c.332.024.662.051 1 .051h2c.338 0 .668-.027 1-.051v2.051c.099803 1.6605451 1.0710469 3.1442316 2.553 3.9.0423349.0210749.0861114.0391202.131.054.9706471.3225648 1.9173302.7132011 2.833 1.169-1.341.91-3.669 1.877-7.517 1.877s-6.176-.967-7.517-1.882c.9156698-.4557989 1.8623529-.8464352 2.833-1.169.0448886-.0148798.0886651-.0329251.131-.054 1.480478-.7548766 2.4514735-2.2362818 2.553-3.895zm-20.485-.43c2.574-2.51 3.408-7.788 2.478-15.687-1.085-9.24.428-16.244 4.5-20.819 4.69-5.276 11.729-6.064 15.507-6.064s10.817.788 15.511 6.064c4.068 4.575 5.581 11.579 4.5 20.819-.93 7.9-.1 13.177 2.478 15.687.5392366.5364235 1.1909471.9463044 1.908 1.2-2.6589982 3.7880651-7.1262676 5.8833701-11.739 5.506-2.0860433-1.9089681-4.5627496-3.3408033-7.258-4.196-.7839183-.4169422-1.3088179-1.196793-1.4-2.08v-2.332c4.9647639-1.0996922 8.9468536-4.7979481 10.41-9.668h.59c2.209139 0 4-1.790861 4-4 .009382-1.2330479-.5622644-2.3985693-1.543-3.146-.7009839-.55045-1.5657286-.8510165-2.457-.854v-4.619c-.0038372-1.1351224-.6461474-2.1714808-1.661-2.68-5.652-2.8-7.395-6.928-7.41-6.966-.1346715-.3363222-.4407129-.5735043-.8-.62-.3584136-.0491801-.71518.1006541-.931.391-4.407 5.877-12.984 7.207-16.468 7.507-1.5510703.1286141-2.741076 1.4306459-2.73 2.987v4c-2.209139 0-4 1.790861-4 4s1.790861 4 4 4h.59c1.4631464 4.8700519 5.4452361 8.5683078 10.41 9.668v2.332c-.0910101.8832693-.6159592 1.6631937-1.4 2.08-2.6931643.8540856-5.168129 2.2841941-7.253 4.191-4.6128522.3764946-9.08000403-1.7185768-11.74-5.506.7165944-.2522323 1.36826696-.6603815 1.908-1.195z"/><path id="Shape" d="m22.04 45.6c.3295976.142111.7100767.0966789.9969463-.1190431.2868695-.215722.4361226-.5686413.3910786-.9247327-.045044-.3560915-.2774751-.6607295-.6090249-.7982242-3.7245571-1.5725455-6.7198552-4.4907208-8.389-8.173-.2286459-.5028553-.8216447-.7251459-1.3245-.4965s-.7251459.8216447-.4965 1.3245c1.8772161 4.1388592 5.2443667 7.4188945 9.431 9.187z"/><path id="Shape" d="m46.9 35.09c-.2419604-.1097894-.5176664-.118771-.7662594-.0249624-.2485929.0938087-.4496322.2826942-.5587406.5249624-1.6691448 3.6822792-4.6644429 6.6004545-8.389 8.173-.3578636.1176022-.6192778.426328-.6762849.7986811-.057007.3723531.1000666.7451492.4063532.9644324.3062865.2192832.7098127.2478437 1.0439317.0738865 4.1866333-1.7681055 7.5537839-5.0481408 9.431-9.187.2284712-.5009694.0089835-1.0923793-.491-1.323z"/><path id="Shape" d="m25 31c.405774-.0004721.7710356-.2461017.9245299-.6217242s.0647875-.8067617-.2245299-1.0912758c.1955794-.4009568.298128-.84089.3-1.287 0-1.6568542-1.3431458-2.9999999-3-2.9999999s-3 1.3431457-3 2.9999999c.001872.44611.1044206.8860432.3 1.287-.2893174.2845141-.3780242.7156533-.2245299 1.0912758s.5187559.6212521.9245299.6217242zm-2-4c.5522847 0 1 .4477153 1 1s-.4477153 1-1 1-1-.4477153-1-1 .4477153-1 1-1z"/><path id="Shape" d="m34 30c0 .5522847.4477153 1 1 1h4c.405774-.0004721.7710356-.2461017.9245299-.6217242s.0647875-.8067617-.2245299-1.0912758c.1955794-.4009568.298128-.84089.3-1.287 0-1.6568542-1.3431458-3-3-3s-3 1.3431458-3 3c.001872.44611.1044206.8860432.3 1.287-.1922653.1873453-.3004872.4445527-.3.713zm3-3c.5522847 0 1 .4477153 1 1s-.4477153 1-1 1-1-.4477153-1-1 .4477153-1 1-1z"/><path id="Shape" d="m20.316 23.949 3-1c.5246705-.174522.808522-.7413295.634-1.266s-.7413295-.808522-1.266-.634l-3 1c-.5246705.174522-.808522.7413295-.634 1.266s.7413295.808522 1.266.634z"/><path id="Shape" d="m36.684 22.949 3 1c.5246705.174522 1.091478-.1093295 1.266-.634s-.1093295-1.091478-.634-1.266l-3-1c-.5246705-.174522-1.091478.1093295-1.266.634s.1093295 1.091478.634 1.266z"/><path id="Shape" d="m29 34h2c.5522847 0 1-.4477153 1-1s-.4477153-1-1-1h-2c-.5522847 0-1 .4477153-1 1s.4477153 1 1 1z"/><path id="Shape" d="m24.292 37.7c.3883382.3909924 1.0198043.3941229 1.412.007.3504448-.3614598.8023769-.6079999 1.296-.707.3728909.0664365.7300449.2021075 1.053.4.5928318.3502243 1.2598673.5557822 1.947.6.6871327-.0442178 1.3541682-.2497757 1.947-.6.3229551-.1978925.6801091-.3335635 1.053-.4.49538.0985528.9489018.3458967 1.3.709.3929089.3784551 1.0166378.3721707 1.4018415-.0141242.3852036-.3862949.3897235-1.0100391.0101585-1.4018758-.7242908-.7358502-1.6842927-1.1935502-2.712-1.293-.6871327.0442178-1.3541682.2497757-1.947.6-.3229551.1978925-.6801091.3335635-1.053.4-.3728909-.0664365-.7300449-.2021075-1.053-.4-.5928318-.3502243-1.2598673-.5557822-1.947-.6-1.0259392.1005866-1.9839926.5582013-2.707 1.293-.3860168.3894107-.3864628 1.017041-.001 1.407z"/></g></g></svg>