<svg height="512" viewBox="0 0 54 60" width="512" xmlns="http://www.w3.org/2000/svg"><g id="Page-1" fill="none" fill-rule="evenodd"><g id="003---Cramps" fill="rgb(0,0,0)" fill-rule="nonzero"><path id="Shape" d="m2.93 60h21.04c.5505928-.0008448 1.0769329-.2266256 1.457-.625.3740303-.3888184.5702556-.9152236.542-1.454-.0642779-2.1403828-.3497975-4.2683749-.852-6.35.60032.2439424 1.2362558.3888263 1.883.429.6464257-.0401404 1.2820376-.1850275 1.882-.429-.5008454 2.0774457-.7860218 4.2010214-.851 6.337-.0305784.5430019.1657217 1.0743159.542 1.467.3800671.3983744.9064072.6241552 1.457.625h21.04c1.054067.0075468 1.9311666-.8081559 2-1.86.5138617-7.0715817.4904612-14.1719589-.07-21.24-.140754-1.3488684-.3885348-2.6844101-.741-3.994.2651222-.7653829.482211-1.5465685.65-2.339.0959092-.4492513.0366862-.9177472-.168-1.329l-1.351-2.7-.936-1.872c-.4105386-.8285477-1.337925-1.2648917-2.238-1.053-.169-.305-.338-.615-.5-.915-1.7-3.04-3.3-5.911-3.716-8.835-.4674082-3.7766349.0013639-7.6102633 1.365-11.163.2336238-.61435299.1491574-1.30440595-.2257492-1.84427141-.3749065-.53986546-.9919906-.86004504-1.6492508-.85572859h-32.98c-.6583593-.0044723-1.2764478.31647984-1.65151313.85757408-.37506532.54109424-.4587066 1.23250426-.22348687 1.84742592 1.3663771 3.54821527 1.8385945 7.3781561 1.375 11.152-.421 2.926-2.021 5.8-3.716 8.837-.167.3-.336.609-.505.914-.90019893-.210568-1.82696831.2258998-2.238 1.054l-2.288 4.576c-.20269201.4112153-.26014604.8789545-.163 1.327.16792256.7923988.38500903 1.5735761.65 2.339-.35288926 1.3115267-.60067396 2.649096-.741 4-.56117594 7.069324-.58524501 14.1710345-.072 21.244.07222263 1.0462026.94431759 1.8565989 1.993 1.852zm20.777-11.707c-1.152-1.152-3.846-2.742-6.965-4.584-2.611-1.542-5.311-3.135-7.142-4.509-3.726-2.8-5.587-4.6-6.547-9.07l.735-1.476c6.812 6.561 18.012 8.346 23.212 8.346s16.4-1.784 23.208-8.342l.741 1.485c-.962 4.457-2.823 6.262-6.549 9.057-1.831 1.374-4.531 2.967-7.142 4.509-3.119 1.842-5.813 3.432-6.965 4.584-.8518422.9468252-2.0176985 1.5531984-3.282 1.707-1.2726668-.1469813-2.4477236-.7540703-3.304-1.707zm27.298-11.193c.5507907 6.9549729.5725199 13.9417357.065 20.9h-21.041c.055-1.413.345-6.145 1.751-8.357 2.0509536-1.5717003 4.2223117-2.979706 6.494-4.211 2.658-1.57 5.406-3.192 7.326-4.632 2.0079839-1.3579987 3.7718535-3.0457957 5.217-4.992.068.429.144.856.188 1.292zm-39.015-22.959c.5084804-4.1071342.0002555-8.27629473-1.48-12.141h32.99c-1.4853674 3.86412756-1.9970772 8.0343906-1.49 12.143.474 3.291 2.162 6.319 3.948 9.525.18.323.363.655.544.984-4.3910552 3.0708672-9.4186736 5.1109016-14.708 5.968-.6092138-2.1427227-2.566355-3.6209813-4.794-3.6209813s-4.1847862 1.4782586-4.794 3.6209813c-5.2886294-.8573875-10.3155342-2.8974098-14.706-5.968.181-.329.364-.661.544-.984 1.784-3.206 3.472-6.234 3.946-9.527zm17.773 16.723c-.9.081-1.816.136-2.763.136s-1.863-.055-2.763-.136c.4550659-1.1263047 1.5482378-1.8636528 2.763-1.8636528s2.3079341.7373481 2.763 1.8636528zm-24.43-5.313c5.1543556 3.8723403 11.2191273 6.3519744 17.61 7.2h.006c1.3440284.1651389 2.6968646.2482927 4.051.249 1.3531993-.0017006 2.7050377-.0858566 4.048-.252h.009c6.3866589-.8465468 12.4478368-3.3230201 17.6-7.191l.6 1.211c-6.512 6.725-18.204 8.232-22.257 8.232s-15.752-1.508-22.269-8.238zm3.067 15.249c1.92 1.44 4.668 3.062 7.326 4.631 2.2716883 1.231294 4.4430464 2.6392997 6.494 4.211 1.406 2.212 1.7 6.944 1.75 8.358h-21.042c-.50400671-6.9584824-.47993779-13.9451553.072-20.9.044-.436.12-.864.188-1.294 1.44347493 1.9464998 3.20563848 3.6349581 5.212 4.994z"/><path id="Shape" d="m27 23c-2.3882508-.0065523-4.6798598.9426434-6.364 2.636-.3789722.3923789-.3735524 1.0160848.0121814 1.4018186s1.0094397.3911536 1.4018186.0121814c1.3127752-1.3129091 3.0933608-2.0505051 4.95-2.0505051s3.6372248.737596 4.95 2.0505051c.3923789.3789722 1.0160848.3735524 1.4018186-.0121814s.3911536-1.0094397.0121814-1.4018186c-1.6841402-1.6933566-3.9757492-2.6425523-6.364-2.636z"/><path id="Shape" d="m17.808 24.222c.3904999.3903819 1.0235001.3903819 1.414 0 4.2989198-4.2878198 11.2570802-4.2878198 15.556 0 .3923789.3789722 1.0160848.3735524 1.4018186-.0121814s.3911536-1.0094397.0121814-1.4018186c-5.0796931-5.0691318-13.3043069-5.0691318-18.384 0-.3903819.3904999-.3903819 1.0235001 0 1.414z"/><path id="Shape" d="m34 18c.2163702 0 .4269038-.0701779.6-.2l4-3c.2977259-.2231651.4469308-.5931765.3872941-.960446-.0596366-.3672694-.3182524-.6710595-.6712941-.788554l-1.465-.488 1.856-1.856c.3789722-.3923789.3735524-1.01608478-.0121814-1.40181858-.3857338-.38573379-1.0094397-.39115363-1.4018186-.01218142l-3 3c-.245167.2450788-.3459191.5996472-.2662601.9370267.0796591.3373795.3283645.609437.6572601.7189733l1.189.4-2.473 1.851c-.3443443.2582582-.4847973.7078856-.3486833 1.1162278.136114.4083421.5182529.6837722.9486833.6837722z"/><path id="Shape" d="m17.149 12.563-1.465.488c-.3530417.1174945-.6116575.4212846-.6712941.788554-.0596367.3672695.0895682.7372809.3872941.960446l4 3c.4418278.3313708 1.0686292.2418278 1.4-.2s.2418278-1.0686292-.2-1.4l-2.473-1.855 1.189-.4c.3288956-.1095363.577601-.3815938.6572601-.7189733.079659-.3373795-.0210931-.6919479-.2662601-.9370267l-3-3c-.3923789-.37897221-1.0160848-.37355237-1.4018186.01218142-.3857338.3857338-.3911536 1.00943968-.0121814 1.40181858z"/></g></g></svg>