<svg height="512" viewBox="0 0 54 60" width="512" xmlns="http://www.w3.org/2000/svg"><g id="Page-1" fill="none" fill-rule="evenodd"><g id="036---Back-Pain" fill="rgb(0,0,0)" fill-rule="nonzero"><path id="Shape" d="m52.948 16.683c-1.742-5.22-8.362-7.348-13.195-8.9-1.4532782-.38752565-2.861202-.92857065-4.2-1.614-2.363-1.577-1.615-4.794-1.583-4.926.0748476-.29878238.0078292-.61538644-.1816655-.85821317-.1894947-.24282674-.4803198-.38477873-.7883345-.38478683h-12c-.3080147.0000081-.5988398.14196009-.7883345.38478683-.1894947.24282673-.2565131.55943079-.1816655.85821317.008.033.8 3.334-1.585 4.925-1.338798.68542935-2.7467218 1.22647435-4.2 1.614-4.833 1.553-11.453 3.681-13.195 8.9-2.095 6.274-.214 28.334 9 38.819-.12591024 1.1984361-.13963649 2.4060115-.041 3.607.0549999.5063031.4817208.890395.991.892h32c.5100835-.0000213.9384009-.3839557.994-.891.0986365-1.2009885.0849102-2.4085639-.041-3.607 9.209-10.485 11.09-32.545 8.995-38.819zm-9.41 36.162c-.158017-.7303325-.3549647-1.4516952-.59-2.161-1.9214601-5.2664323-1.9281863-11.0411059-.019-16.312 1.2924915-3.3018607 2.3128899-6.7038576 3.051-10.172.0839647-.3556996-.0328053-.7288731-.3045463-.9732685s-.6551639-.32108-1-.2-.5961521.4206363-.6554537.7812685c-.7196431 3.3480185-1.7057842 6.6331492-2.949 9.824-2.0853107 5.7104658-2.0920378 11.9730674-.019 17.688.7009543 2.1573016 1.0388821 4.4160107 1 6.684h-30.1c-.0388821-2.2679893.2990457-4.5266984 1-6.684 2.0730378-5.7149326 2.0663107-11.9775342-.019-17.688-1.2449833-3.1933298-2.2324674-6.4811537-2.953-9.832-.1238056-.5244774-.640941-.856525-1.16936792-.7508396-.52842691.1056854-.87807208.611089-.79063208 1.1428396.7378995 3.4694995 1.75830039 6.8728424 3.051 10.176 1.9091863 5.2708941 1.9024601 11.0455677-.019 16.312-.2350353.7093048-.431983 1.4306675-.59 2.161-8.056-10.713-9.1-30.763-7.514-35.528 1.422-4.259 7.485-6.208 11.911-7.631 1.6348873-.42869108 3.2127268-1.05109843 4.7-1.854 1.8593083-1.32653114 2.8500325-3.5593001 2.586-5.828h9.71c-.2646732 2.27083678.7278315 4.50569685 2.59 5.832 1.4872732.80290157 3.0651127 1.42530892 4.7 1.854 4.426 1.423 10.489 3.372 11.911 7.631 1.587 4.765.538 24.815-7.518 35.528z"/><path id="Shape" d="m17 29c.0819433.0003256.1635963-.009755.243-.03 4.035-1.009 5.757-3.093 5.757-6.97v-7c0-.5522847-.4477153-1-1-1s-1 .4477153-1 1v7c0 2.514-.694 4.143-4.242 5.03-.4895717.1226969-.8109744.5909795-.7494367 1.0919267.0615377.5009473.4867242.8775169.9914367.8780733z"/><path id="Shape" d="m36.758 28.97c.0790796.0201612.1603912.0302411.242.03.5045236-.0010576.9292396-.3777768.9905039-.8785681.0612643-.5007912-.2601138-.9687839-.7495039-1.0914319-3.547-.887-4.241-2.516-4.241-5.03v-7c0-.5522847-.4477153-1-1-1s-1 .4477153-1 1v7c0 3.877 1.722 5.961 5.758 6.97z"/><path id="Shape" d="m30 40c-.0052514-1.2667854-.8056491-2.3937454-2-2.816v-16.184c0-.5522847-.4477153-1-1-1s-1 .4477153-1 1v16.184c-1.4345815.511019-2.2572889 2.0172125-1.9119918 3.5004302.3452971 1.4832176 1.7486502 2.4711782 3.2614267 2.2960444 1.5127765-.1751339 2.6532831-1.4575966 2.6505651-2.9804746zm-3 1c-.5522847 0-1-.4477153-1-1s.4477153-1 1-1 1 .4477153 1 1-.4477153 1-1 1z"/><path id="Shape" d="m22.051 35.05c-1.3129091 1.3127752-2.0505051 3.0933608-2.0505051 4.95s.737596 3.6372248 2.0505051 4.95c.3923789.3789722 1.0160848.3735524 1.4018186-.0121814s.3911536-1.0094397.0121814-1.4018186c-.9379671-.9377198-1.4649322-2.2096891-1.4649322-3.536s.5269651-2.5982802 1.4649322-3.536c.3789722-.3923789.3735524-1.0160848-.0121814-1.4018186s-1.0094397-.3911536-1.4018186-.0121814z"/><path id="Shape" d="m30.535 44.95c.3904999.3903819 1.0235001.3903819 1.414 0 1.3129091-1.3127752 2.0505051-3.0933608 2.0505051-4.95s-.737596-3.6372248-2.0505051-4.95c-.3923789-.3789722-1.0160848-.3735524-1.4018186.0121814s-.3911536 1.0094397-.0121814 1.4018186c.9379671.9377198 1.4649322 2.2096891 1.4649322 3.536s-.5269651 2.5982802-1.4649322 3.536c-.3903819.3904999-.3903819 1.0235001 0 1.414z"/><path id="Shape" d="m19.929 48.071c.4043959-.0000863.7689341-.2437275.923678-.6173454.1547439-.373618.0692299-.8036603-.216678-1.0896546-3.5092581-3.5170091-3.5092581-9.2109909 0-12.728.2599566-.2510745.3642126-.6228779.2726972-.9725073-.0915155-.3496295-.3645604-.6226744-.7141899-.7141899-.3496294-.0915154-.7214328.0127406-.9725073.2726972-4.2889198 4.2984649-4.2889198 11.2575351 0 15.556.1870531.1882061.4416514.2937185.707.293z"/><path id="Shape" d="m33.364 32.222c-.3903819.3904999-.3903819 1.0235001 0 1.414 3.5092581 3.5170091 3.5092581 9.2109909 0 12.728-.2599566.2510745-.3642126.6228779-.2726972.9725073.0915155.3496295.3645604.6226744.7141899.7141899.3496294.0915154.7214328-.0127406.9725073-.2726972 4.2889198-4.2984649 4.2889198-11.2575351 0-15.556-.3904999-.3903819-1.0235001-.3903819-1.414 0z"/><path id="Shape" d="m24.758 48.03-4 1c-.3156247.0787313-.5732307.3060639-.6906048.6094463-.1173742.3033825-.0798471.6448976.1006048.9155537l1.213 1.819-2.623.656c-.4895717.1226969-.8109744.5909795-.7494367 1.0919267.0615377.5009473.4867242.8775169.9914367.8780733.0819433.0003256.1635963-.009755.243-.03l4-1c.3156247-.0787313.5732307-.3060639.6906048-.6094463.1173742-.3033825.0798471-.6448976-.1006048-.9155537l-1.213-1.819 2.623-.656c.3539356-.0796449.636976-.3447323.7396106-.6926975.1026346-.3479653.0087636-.7242251-.2452935-.9832013-.2540571-.2589763-.6284478-.3600447-.9783171-.2641012z"/><path id="Shape" d="m35.242 53.03-2.623-.656 1.213-1.819c.1804519-.2706561.217979-.6121712.1006048-.9155537-.1173741-.3033824-.3749801-.530715-.6906048-.6094463l-4-1c-.3498693-.0959435-.72426.0051249-.9783171.2641012-.2540571.2589762-.3479281.635236-.2452935.9832013.1026346.3479652.385675.6130526.7396106.6926975l2.623.656-1.213 1.819c-.1804519.2706561-.217979.6121712-.1006048.9155537.1173741.3033824.3749801.530715.6906048.6094463l4 1c.0790796.0201612.1603912.0302411.242.03.5045236-.0010576.9292396-.3777768.9905039-.8785681.0612643-.5007912-.2601138-.9687839-.7495039-1.0914319z"/></g></g></svg>