<svg height="512" viewBox="0 0 54 60" width="512" xmlns="http://www.w3.org/2000/svg"><g id="Page-1" fill="none" fill-rule="evenodd"><g id="039---Rash" fill="rgb(0,0,0)" fill-rule="nonzero"><path id="Shape" d="m52.948 16.683c-1.742-5.22-8.362-7.348-13.195-8.9-1.4532782-.38752565-2.861202-.92857065-4.2-1.614-2.363-1.577-1.615-4.794-1.583-4.926.0748476-.29878238.0078292-.61538644-.1816655-.85821317-.1894947-.24282674-.4803198-.38477873-.7883345-.38478683h-12c-.3080147.0000081-.5988398.14196009-.7883345.38478683-.1894947.24282673-.2565131.55943079-.1816655.85821317.008.033.8 3.334-1.585 4.925-1.338798.68542935-2.7467218 1.22647435-4.2 1.614-4.833 1.553-11.453 3.681-13.195 8.9-2.095 6.274-.214 28.334 9 38.819-.12591024 1.1984361-.13963649 2.4060115-.041 3.607.0549999.5063031.4817208.890395.991.892h32c.5100835-.0000213.9384009-.3839557.994-.891.0986365-1.2009885.0849102-2.4085639-.041-3.607 9.209-10.485 11.09-32.545 8.995-38.819zm-9.41 36.162c-.1575481-.7304471-.3545027-1.4518348-.59-2.161-1.9214601-5.2664323-1.9281863-11.0411059-.019-16.312 1.2924915-3.3018607 2.3128899-6.7038576 3.051-10.172.0839647-.3556996-.0328053-.7288731-.3045463-.9732685s-.6551639-.32108-1-.2-.5961521.4206363-.6554537.7812685c-.7196431 3.3480185-1.7057842 6.6331492-2.949 9.824-2.0853107 5.7104658-2.0920378 11.9730674-.019 17.688.7009543 2.1573016 1.0388821 4.4160107 1 6.684h-30.1c-.0388821-2.2679893.2990457-4.5266984 1-6.684 2.0730378-5.7149326 2.0663107-11.9775342-.019-17.688-1.2449833-3.1933298-2.2324674-6.4811537-2.953-9.832-.1238056-.5244774-.640941-.856525-1.16936792-.7508396-.52842691.1056854-.87807208.611089-.79063208 1.1428396.7378995 3.4694995 1.75830039 6.8728424 3.051 10.176 1.9091863 5.2708941 1.9024601 11.0455677-.019 16.312-.2354973.7091652-.4324519 1.4305529-.59 2.161-8.056-10.713-9.1-30.763-7.514-35.528 1.422-4.259 7.485-6.208 11.911-7.631 1.6348873-.42869108 3.2127268-1.05109843 4.7-1.854 1.8593083-1.32653114 2.8500325-3.5593001 2.586-5.828h9.71c-.2646732 2.27083678.7278315 4.50569685 2.59 5.832 1.4872732.80290157 3.0651127 1.42530892 4.7 1.854 4.426 1.423 10.489 3.372 11.911 7.631 1.587 4.765.538 24.815-7.518 35.528z"/><path id="Shape" d="m28 49v-28c0-.5522847-.4477153-1-1-1s-1 .4477153-1 1v28c0 .5522847.4477153 1 1 1s1-.4477153 1-1z"/><path id="Shape" d="m22 14c-.5522847 0-1 .4477153-1 1v7c0 2.514-.694 4.143-4.242 5.03-.4895717.1226969-.8109744.5909795-.7494367 1.0919267.0615377.5009473.4867242.8775169.9914367.8780733.0819433.0003256.1635963-.009755.243-.03 4.035-1.009 5.757-3.093 5.757-6.97v-7c0-.5522847-.4477153-1-1-1z"/><path id="Shape" d="m37.97 28.243c.0644087-.2573975.0238814-.5298406-.1126593-.7573459-.1365406-.2275052-.3578997-.3914195-.6153407-.4556541-3.548-.887-4.242-2.516-4.242-5.03v-7c0-.5522847-.4477153-1-1-1s-1 .4477153-1 1v7c0 3.877 1.722 5.961 5.758 6.97.0790796.0201612.1603912.0302411.242.03.4586794-.0000121.8585409-.3120689.97-.757z"/><path id="Shape" d="m19 49c-1.2133867 0-2.3072956.7309265-2.7716386 1.8519497s-.2076757 2.4113767.6503183 3.2693706c.8579939.857994 2.1483474 1.1146613 3.2693706.6503183s1.8519497-1.5582519 1.8519497-2.7716386c0-1.6568542-1.3431458-3-3-3zm0 4c-.5522847 0-1-.4477153-1-1s.4477153-1 1-1 1 .4477153 1 1-.4477153 1-1 1z"/><path id="Shape" d="m40 15c-1.6568542 0-3 1.3431458-3 3s1.3431458 3 3 3 3-1.3431458 3-3-1.3431458-3-3-3zm0 4c-.5522847 0-1-.4477153-1-1s.4477153-1 1-1 1 .4477153 1 1-.4477153 1-1 1z"/><path id="Shape" d="m33 34c-1.6568542 0-3 1.3431458-3 3s1.3431458 3 3 3 3-1.3431458 3-3-1.3431458-3-3-3zm0 4c-.5522847 0-1-.4477153-1-1s.4477153-1 1-1 1 .4477153 1 1-.4477153 1-1 1z"/><circle id="Oval" cx="21" cy="38" r="1"/><circle id="Oval" cx="19" cy="45" r="1"/><circle id="Oval" cx="28" cy="55" r="1"/><circle id="Oval" cx="32" cy="45" r="1"/><circle id="Oval" cx="38" cy="54" r="1"/><circle id="Oval" cx="33" cy="50" r="1"/><circle id="Oval" cx="22" cy="32" r="1"/><circle id="Oval" cx="32" cy="31" r="1"/><circle id="Oval" cx="38" cy="32" r="1"/><circle id="Oval" cx="40" cy="25" r="1"/><circle id="Oval" cx="25" cy="10" r="1"/><circle id="Oval" cx="32" cy="11" r="1"/><circle id="Oval" cx="16" cy="16" r="1"/><circle id="Oval" cx="15" cy="23" r="1"/><circle id="Oval" cx="10" cy="16" r="1"/><circle id="Oval" cx="17" cy="34" r="1"/></g></g></svg>