<svg height="512" viewBox="0 0 60 60" width="512" xmlns="http://www.w3.org/2000/svg"><g id="Page-1" fill="none" fill-rule="evenodd"><g id="017---Constipation" fill="rgb(0,0,0)" fill-rule="nonzero"><path id="Shape" d="m58.6 52.471c.2591718-.4471277.3970562-.9541978.4-1.471v-2c-.0052296-1.60794-1.2772537-2.9258345-2.884-2.988.232-5.038.838-10.5 1.29-14.559.345-3.089.594-5.321.594-6.453 0-3.046 0-5.677-5.629-7.929-2.3071543-.7882858-4.7024407-1.2900466-7.132-1.494.026-.045.053-.084.079-.13.7433596-1.3163367 1.2993884-2.7299692 1.652-4.2.6839154-3.37281326 1.0289642-6.80554558 1.03-10.247 0-.55228475-.4477153-1-1-1h-14c-.5522847 0-1 .44771525-1 1 0 .058-.012 5.874-.951 8.691-.1107451.3382123-.2611241.6621313-.448.965v.007l-.006.011c-.3194561.5293888-.6739116 1.0368514-1.061 1.519-1.6701858 1.8698662-2.5748962 4.3001598-2.534 6.807-.0504086 2.7222147 1.1740177 5.3116358 3.31 7h-5.31v-17c0-.55228475-.4477153-1-1-1s-1 .44771525-1 1v17.1c-.7276558.1542758-1.4112306.4704292-2 .925v-17.303c.6167513-.35441258.997855-1.01067322 1-1.722v-1c-.0033061-2.76005315-2.2399468-4.99669388-5-5h-12c-2.76005315.00330612-4.99669388 2.23994685-5 5v1c.002145.71132678.38324874 1.36758742 1 1.722v19.278c.00260366.740399.28064791 1.4533329.78 2-.7990291.8759347-1.00435039 2.1415341-.52322425 3.2251516.48112614 1.0836174 1.55760981 1.7800954 2.74322425 1.7748484h4v8c0 1.6568542 1.34314575 3 3 3h1.834l-1.646 10.7c-.0874381.576325.0809147 1.1621172.4610016 1.6040786.3800868.4419615.9340783.6961044 1.5169984.6959214h17.48c.6347285.0001235 1.2318337-.3010519 1.6089998-.8115674.377166-.5105155.4896104-1.1697556.3030002-1.7764326l-3.204-10.412h3.646c6.2993924-.009932 11.5198936-4.8868528 11.958-11.171 1.3919526-.4663519 2.2399689-1.873673 2.0018965-3.322237-.2380725-1.448564-1.4919038-2.510445-2.9598965-2.506763h-.1c-.1495073-.7095439-.4529859-1.3776066-.889-1.957 2.734.14 4.99.721 4.99 2.957v15c-1.6568542 0-3 1.3431458-3 3v2c.0010973.3826652.0757874.7615475.22 1.116-1.3056093.3510515-2.2150952 1.5320318-2.221 2.884v2c0 1.6568542 1.3431458 3 3 3h11c1.6568542 0 3-1.3431458 3-3v-2c-.0018551-1.0273655-.5303387-1.9820333-1.4-2.529zm-24.615-50.471h12c-.037853 2.94440664-.3573083 5.87843929-.954 8.762-.2362781.9739032-.5713479 1.9211456-1 2.827-3.528188-1.5939294-7.2659171-2.6758504-11.1-3.213.007-.02.017-.039.023-.06.6809813-2.71968173 1.0272118-5.51236131 1.031-8.316zm-30.985 27v-19h16v2h-1c-.5522847 0-1 .4477153-1 1s.4477153 1 1 1h1v16h-15c-.55228475 0-1-.4477153-1-1zm-1-22c0-1.65685425 1.34314575-3 3-3h12c1.6568542 0 3 1.34314575 3 3v1h-18zm31 38h-5c-.3173643-.0000618-.6159169.1505259-.8044999.4057837s-.2448052.5848778-.1515001.8882163l3.602 11.706h-17.481l1.823-11.848c.0443372-.2883028-.0394159-.5815936-.22931-.8030085-.189894-.2214149-.4669979-.3488805-.75869-.3489915h-3c-.5522847 0-1-.4477153-1-1v-8h32.95c-.5193281 5.1069968-4.8166695 8.9940392-9.95 9zm12-12c0 .5522847-.4477153 1-1 1h-40c-.55228475 0-1-.4477153-1-1s.44771525-1 1-1h40c.5522847 0 1 .4477153 1 1zm-23.829-3c.4253536-1.1977017 1.5580112-1.9984494 2.829-2h15c1.2709888.0015506 2.4036464.8022983 2.829 2zm19.829-4h-5c-1.8684789.0399592-3.6722678-.6846997-4.993784-2.006216-1.3215163-1.3215162-2.0461752-3.1253051-2.006216-4.993784-.035365-2.0666813.7234307-4.0681837 2.12-5.592.284-.372.565-.759.832-1.158 3.8235461.4889279 7.5566202 1.526604 11.084 3.081l-.017.023c-3.713-.313-6.974-.354-7.007-.354h-.012c-.3572656-.0021436-.6885362.1864746-.8690254.4948038-.1804892.3083293-.1827764.6895272-.006 1 .1767764.3104729.5057598.5030526.8630254.5051962.035 0 3.56.044 7.419.4 2.7945775.1603403 5.5574135.6754738 8.222 1.533 4.371 1.744 4.371 3.189 4.371 6.067 0 1.021-.257 3.32-.581 6.231-.459 4.11-1.072 9.644-1.3 14.769h-4.119v-15c0-5-6.079-5-9-5zm17 31c0 .5522847-.4477153 1-1 1h-11c-.5522847 0-1-.4477153-1-1v-2c0-.5522847.4477153-1 1-1h4c.5522847 0 1-.4477153 1-1s-.4477153-1-1-1h-2c-.5522847 0-1-.4477153-1-1v-2c0-.5522847.4477153-1 1-1h8c.5522847 0 1 .4477153 1 1v2c0 .5522847-.4477153 1-1 1h-2c-.5522847 0-1 .4477153-1 1s.4477153 1 1 1h3c.5522847 0 1 .4477153 1 1z"/></g></g></svg>