<svg height="512" viewBox="0 0 54 60" width="512" xmlns="http://www.w3.org/2000/svg"><g id="Page-1" fill="none" fill-rule="evenodd"><g id="020---Cough" fill="rgb(0,0,0)" fill-rule="nonzero"><path id="Shape" d="m1.142 44.01c-.36065547-.050933-.72048079.0982564-.93928745.389444-.21880665.2911876-.26198494.6783147-.11271255 1.010556 2.51570779 4.6728381 7.32135247 7.6605216 12.625 7.849-.9005426 1.3507848-1.4658559 2.8969114-1.649 4.51-.0640854.5633166.115269 1.1272095.493 1.55.380393.4294999.9262686.6758718 1.5.677h27.881c.5737314-.0011282 1.119607-.2475001 1.5-.677.376672-.4210383.5563136-.9825091.494-1.544-.1847542-1.6206332-.7538732-3.1737109-1.66-4.53 5.3010409-.1902223 10.1066392-3.1684306 12.636-7.831.1464535-.3285002.1052144-.7103439-.108-1-.2135378-.2918431-.5664566-.4477219-.926-.409-.7839697.0037288-1.5310522-.3326043-2.048-.922-1.16-1.176-2.942-4.555-1.835-13.969 1.154-9.832-.523-17.363-4.988-22.382-5.212-5.857-12.892-6.732-17.005-6.732s-11.793.875-17 6.735c-4.47 5.019-6.147 12.55-4.993 22.382 1.107 9.414-.675 12.793-1.835 13.969-.51076086.5876661-1.25139385.9247818-2.03.924zm11.912 13.99c.447-4.019 3.633-6.482 6.456-7.895.7030761.5745727 1.582019.890498 2.49.895 0 2.7614237 2.2385763 5 5 5s5-2.2385763 5-5c.9078593-.0042195 1.7867889-.319787 2.49-.894 2.823 1.413 6.01 3.876 6.45 7.894zm8.946-13 .137.008c.4820246.0315646.9363373.2365204 1.279.577.2514473.2595768.623386.3632881.9728705.271275.3494846-.092013.6221315-.3654323.7131556-.7151758.091024-.3497434-.013739-.7213872-.2740261-.9720992-.4143719-.4065191-.9117326-.7186488-1.458-.915l.284-1.423v-.008c0-.006 0-.011 0-.016l.326-1.607c.08744-.5317506-.2622052-1.0371542-.7906321-1.1428396s-1.0455623.2263622-1.1693679.7508396l-.1.48c-4.7552582-1.7173206-7.9229953-6.2321458-7.92-11.288v-8c-.0034266-.517271.3915783-.950165.907-.994 3.517-.306 11.864-1.608 16.918-7.122 1.889254 2.8637767 4.5299343 5.15262 7.633 6.616.3299953.1699991.5386692.5088053.542.88v8.62c.0007008 5.0554178-3.1685448 9.5685131-7.924 11.284l-.1-.48c-.1238056-.5244774-.640941-.856525-1.1693679-.7508396s-.8780721.611089-.7906321 1.1428396l.321 1.611v.016.009l.284 1.427c-.5465037.1934679-1.0441161.504049-1.458.91-.2602871.250712-.3650501.6223558-.2740261.9720992.0910241.3497435.363671.6231628.7131556.7151758.3494845.0920131.7214232-.0116982.9728705-.271275.3426627-.3404796.7969754-.5454354 1.279-.577.025 0 .113-.005.137-.008 1.1045695 0 2 .8954305 2 2s-.8954305 2-2 2c-.2733406.0016949-.5438289-.055609-.793-.168-.3642992-.1669663-.7930914-.1003274-1.0895353.1693255-.2964439.2696528-.4032802.6902352-.2714647 1.0686745.1061752.2986464.1612796.6130459.163.93 0 1.6568542-1.3431458 3-3 3s-3-1.3431458-3-3c-.0011723-.3164417.0508871-.630827.154-.93.1318155-.3784393.0249792-.7990217-.2714647-1.0686745-.2964439-.2696529-.7252361-.3362918-1.0895353-.1693255-.2491711.112391-.5196594.1696949-.793.168-1.1045695 0-2-.8954305-2-2s.8954305-2 2-2zm-9.847-13.9999852-.153-.0000148c-.7970226.0030636-1.5192282-.4690211-1.8362365-1.2002941-.31700821-.731273-.16785166-1.5810949.3792365-2.1607059.3732676-.4097109.902759-.6419312 1.457-.639v2c.0033709.6694569.0545007 1.3378204.153 2.0000148zm29.847-2.0000148v-2c.4489315.0008607.8841746.1546418 1.234.436.4876282.3714132.7715205.9510575.766 1.564 0 1.1045695-.8954305 2-2 2h-.153c.0984993-.6621796.1496291-1.3305431.153-2zm-35.007-.117c-1.085-9.24.428-16.244 4.5-20.819 4.69-5.276 11.729-6.064 15.507-6.064s10.817.788 15.511 6.064c4.068 4.575 5.581 11.579 4.5 20.819-.93 7.9-.1 13.177 2.478 15.687.5392366.5364235 1.1909471.9463044 1.908 1.2-2.6644499 3.7979652-7.1459227 5.8945741-11.769 5.506-1.167156-1.111688-2.4904632-2.046897-3.928-2.776.4637288-1.1268766.3848235-2.4042153-.2140719-3.4654502-.5988955-1.0612349-1.651569-1.789039-2.8559281-1.9745498l-.161-.806c4.3056656-1.4493134 7.6385838-4.9004519 8.937-9.254h.594c2.209139 0 4-1.790861 4-4 .009382-1.2330479-.5622644-2.3985693-1.543-3.146-.7009839-.55045-1.5657286-.8510165-2.457-.854v-4.62c-.0006048-1.1343869-.6410094-2.1714166-1.655-2.68-5.656-2.805-7.4-6.929-7.417-6.967-.1352459-.3355443-.441177-.571876-.8-.618-.3585301-.0500714-.7157348.0999469-.931.391-4.4 5.862-12.98 7.2-16.467 7.5-1.5530854.1302135-2.7432967 1.4355223-2.73 2.994v4c-2.209139 0-4 1.790861-4 4s1.790861 4 4 4h.594c1.2970976 4.3548471 4.6297782 7.8076176 8.936 9.258l-.161.806c-1.2031273.1861007-2.2545721.913411-2.8530993 1.973559-.5985273 1.060148-.6780926 2.3361518-.2159007 3.462441-1.4352053.7267541-2.7567737 1.6588927-3.923 2.767-4.62286895.3910754-9.10523745-1.704251-11.77-5.502.71705289-.2536956 1.3687634-.6635765 1.908-1.2 2.574-2.505 3.408-7.783 2.478-15.682z"/><path id="Shape" d="m20.707 25.293c-.3923789-.3789722-1.0160848-.3735524-1.4018186.0121814s-.3911536 1.0094397-.0121814 1.4018186l.293.293h-1.586c-.5522847 0-1 .4477153-1 1s.4477153 1 1 1h4c.4043959-.0000863.7689341-.2437275.923678-.6173454.1547439-.373618.0692299-.8036603-.216678-1.0896546z"/><path id="Shape" d="m32 29h4c.5522847 0 1-.4477153 1-1s-.4477153-1-1-1h-1.586l.293-.293c.3789722-.3923789.3735524-1.0160848-.0121814-1.4018186s-1.0094397-.3911536-1.4018186-.0121814l-2 2c-.2859079.2859943-.3714219.7160366-.216678 1.0896546.1547439.3736179.5192821.6172591.923678.6173454z"/><path id="Shape" d="m26 32h2c.5522847 0 1-.4477153 1-1s-.4477153-1-1-1h-2c-.5522847 0-1 .4477153-1 1s.4477153 1 1 1z"/><path id="Shape" d="m31 36c0-1.682-1.757-3-4-3s-4 1.318-4 3 1.757 3 4 3 4-1.318 4-3zm-6 0c0-.408.779-1 2-1s2 .592 2 1-.779 1-2 1-2-.592-2-1z"/><path id="Shape" d="m27 41c-.5522847 0-1 .4477153-1 1v1c0 .5522847.4477153 1 1 1s1-.4477153 1-1v-1c0-.5522847-.4477153-1-1-1z"/></g></g></svg>