<svg height="512" viewBox="0 0 41 60" width="512" xmlns="http://www.w3.org/2000/svg"><g id="Page-1" fill="none" fill-rule="evenodd"><g id="004---Sore-Throat" fill="rgb(0,0,0)" fill-rule="nonzero"><path id="Shape" d="m2 29c0 2.209139 1.790861 4 4 4h.59c1.46314635 4.8700519 5.4452361 8.5683078 10.41 9.668v2.332c-.3499802.4833136-.611059 1.0251113-.771 1.6-.1944058.1848035-.4087171.3474654-.639.485-.482.163-1.006.358-1.556.586.0317948-.8565332.2220046-1.699763.561-2.487.2100267-.5027188-.0210288-1.0810535-.5196375-1.3006593s-1.0812579.0003431-1.3103625.4946593c-.5793759 1.3324921-.8254688 2.7860534-.717 4.235-3.174 1.7-6.467 4.554-6.981 9.165-.06132913.5662543.120945 1.1318841.5013527 1.5557888.38040771.4239047.92308151.6661155 1.4926473.6662112h27.878c.56976-.0000649 1.1126129-.2424109 1.4930555-.6665452.3804425-.4241342.5625786-.9900383.5009445-1.5564548-.514-4.611-3.807-7.461-6.981-9.165.1084688-1.4489466-.1376241-2.9025079-.717-4.235-.1394811-.3338613-.44843-.5663357-.8078621-.6078911-.3594322-.0415555-.7132764.1142907-.9252578.4075179s-.2490311.6780922-.0968801 1.0063732c.3389954.787237.5292052 1.6304668.561 2.487-.551-.228-1.075-.424-1.558-.587-.2291158-.135504-.4421412-.296531-.635-.48-.1605223-.5759625-.4222703-1.1187594-.773-1.603v-2.332c4.9647639-1.0996922 8.9468536-4.7979481 10.41-9.668h.59c1.5455683.0009954 2.9534145-.8885147 3.6161631-2.2847764s.4617958-3.0494033-.5161631-4.2462236c1.256-2.298 1.9-5.469 1.9-9.469 0-15.344-16.784-17-24-17-8.462 0-17 5.256-17 17 .05672968 3.4644812.94608484 6.8644727 2.593 9.913-.38844347.6267448-.59384744 1.3496421-.593 2.087zm4 2c-.7970226.0030636-1.51922821-.4690211-1.83623646-1.2002941s-.1678517-1.5810949.37923646-2.1607059c.37341765-.4095018.90281112-.6416792 1.457-.639v2c.00503019.6696529.05850311 1.3380644.16 2.0000148zm17.043 14.555c.0306254.1811228.1105484.3503105.231.489 1.0224974 1.1905048.9567205 2.9673535-.151 4.079-.2599566.2510745-.3642126.6228779-.2726972.9725073.0915155.3496295.3645604.6226744.7141899.7141899.3496294.0915154.7214328-.0127406.9725073-.2726972.6878232-.6880939 1.1586064-1.5629023 1.354-2.516.57.2 1.2.436 1.859.732-.3024046 1.2086939-.9240859 2.3139051-1.8 3.2-.2599566.2510745-.3642126.6228779-.2726972.9725073.0915155.3496295.3645604.6226744.7141899.7141899.3496294.0915154.7214328-.0127406.9725073-.2726972 1.0218074-1.0294117 1.7769836-2.2926155 2.2-3.68 2.544 1.489 4.989 3.807 5.376 7.313h-27.885c.39-3.506 2.838-5.823 5.382-7.312.4230164 1.3873845 1.1781926 2.6505883 2.2 3.68.3923789.3789722 1.0160848.3735524 1.4018186-.0121814s.3911536-1.0094397.0121814-1.4018186c-.8759141-.8860949-1.4975954-1.9913061-1.8-3.2.66-.3 1.289-.536 1.859-.732.1953936.9530977.6661768 1.8279061 1.354 2.516.2510745.2599566.6228779.3642126.9725073.2726972.3496295-.0915155.6226744-.3645604.7141899-.7141899.0915154-.3496294-.0127406-.7214328-.2726972-.9725073-1.1077205-1.1116465-1.1734974-2.8884952-.151-4.079.1204516-.1386895.2003746-.3078772.231-.489.0290438-.183889.04309-.3698347.042-.556v-2.051c.332.024.662.051 1 .051h2c.338 0 .668-.027 1-.051v2.051c-.0007052.1858587.0136754.371468.043.555zm-1.043-4.555h-2c-6.624447-.0071648-11.99283515-5.375553-12-12v-8c-.00833978-.5176522.38433228-.9539545.9-1 3.514-.3 11.858-1.6 16.92-7.123 1.8855883 2.8641113 4.5251967 5.152141 7.628 6.612.3356809.1682738.5477325.5115034.548.887v8.624c-.0071604 6.6228876-5.3731152 11.9906316-11.996 12zm15.413-10.587c-.3735065.3768159-.8824382.5882405-1.413.587l-.16.0000054c.1014969-.661941.1549698-1.3303525.16-2.0000054v-2c.4489866.0005408.8843327.1543583 1.234.436.4876282.3714132.7715205.9510575.766 1.564.0012405.5305618-.2101841 1.0394935-.587 1.413zm-20.413-28.413c8.216 0 22 1.949 22 15 .1243741 2.8471743-.4001782 5.6853646-1.534 8.3-.4652323-.1920232-.9627347-.2938313-1.466-.3v-4.619c-.0038372-1.1351224-.6461474-2.1714808-1.661-2.68-5.652-2.8-7.395-6.928-7.41-6.966-.1340453-.335858-.4389716-.5731816-.7974606-.6206622-.3584889-.0474806-.7146832.1022799-.9315394.3916622-4.408 5.876-12.984 7.207-16.467 7.507-1.55225811.1271328-2.74395422 1.4295829-2.733 2.987v4c-.67351017.0060274-1.33447428.1828809-1.921.514-1.31172128-2.6501998-2.02164385-5.5575018-2.079-8.514 0-10.362 7.534-15 15-15z"/><path id="Shape" d="m28 25c-1.6568542 0-3 1.3431458-3 3 .001872.44611.1044206.8860432.3 1.287-.2893174.2845141-.3780242.7156533-.2245299 1.0912758s.5187559.6212521.9245299.6217242h4c.405774-.0004721.7710356-.2461017.9245299-.6217242s.0647875-.8067617-.2245299-1.0912758c.1957102-.4009103.2982658-.8408738.3-1.287 0-1.6568542-1.3431458-3-3-3zm0 2c.5522847 0 1 .4477153 1 1s-.4477153 1-1 1-1-.4477153-1-1 .4477153-1 1-1z"/><path id="Shape" d="m25.447 36.1c-1.3921318-.6651901-2.9052975-1.0394834-4.447-1.1-1.5417025.0605166-3.0548682.4348099-4.447 1.1-.3197527.1595191-.530114.4775068-.5518427.8341803-.0217288.3566735.148476.6978456.4465.895.2980239.1971545.67859.2203388.9983427.0608197 1.1146758-.5273176 2.3223606-.8297485 3.554-.89 1.2323211.0633898 2.4400372.3692267 3.554.9.4942949.2465951 1.0949049.0457949 1.3415-.4485s.0457949-1.0949049-.4485-1.3415z"/><path id="Shape" d="m20 34h2c.5522847 0 1-.4477153 1-1s-.4477153-1-1-1h-2c-.5522847 0-1 .4477153-1 1s.4477153 1 1 1z"/><path id="Shape" d="m17 30c.0004872-.2684473-.1077347-.5256547-.3-.713.1957102-.4009103.2982658-.8408738.3-1.287 0-1.6568542-1.3431458-3-3-3s-3 1.3431458-3 3c.001872.44611.1044206.8860432.3 1.287-.2893174.2845141-.3780242.7156533-.2245299 1.0912758s.5187559.6212521.9245299.6217242h4c.5522847 0 1-.4477153 1-1zm-3-3c.5522847 0 1 .4477153 1 1s-.4477153 1-1 1-1-.4477153-1-1 .4477153-1 1-1z"/><path id="Shape" d="m11.316 23.949 3-1c.3394023-.1128959.5927937-.398285.6647242-.748664.0719304-.350379-.0485282-.712517-.3160001-.95-.2674719-.2374831-.6413218-.3142319-.9807241-.201336l-3 1c-.5246705.174522-.80852198.7413295-.634 1.266.174522.5246705.7413295.808522 1.266.634z"/><path id="Shape" d="m31.316 22.051-3-1c-.5246705-.174522-1.091478.1093295-1.266.634s.1093295 1.091478.634 1.266l3 1c.3394023.1128959.7132522.0361471.9807241-.201336.2674719-.237483.3879304-.599621.316-.95s-.3253218-.6357681-.6647241-.748664z"/><circle id="Oval" cx="21" cy="48" r="1"/><path id="Shape" d="m39.97 40.757c-.1342174-.5357071-.677286-.8611901-1.213-.727l-4 1c-.3154478.0789833-.5727921.306418-.6899534.6097642s-.0795069.6447182.1009534.9152358l1.213 1.819-2.624.656c-.4897554.1227443-.8111846.5913178-.7493732 1.0924224s.4874708.8775246.9923732.8775776c.0822727.0003241.1642562-.0097558.244-.03l4-1c.3154478-.0789833.5727921-.306418.6899534-.6097642s.0795069-.6447182-.1009534-.9152358l-1.213-1.819 2.624-.656c.5353016-.1346678.8602516-.6775939.726-1.213z"/><path id="Shape" d="m4.067 45.361c.11737294.3030635.37470311.5301853.69.609l4 1c.07941957.0201607.16106183.03024.243.03.5047125-.0005564.92989901-.377126.99143669-.8780733.06153771-.5009472-.25986496-.9692298-.74943669-1.0919267l-2.624-.656 1.213-1.819c.18046025-.2705176.21811465-.6118896.10095339-.9152358s-.37450557-.5307809-.68995339-.6097642l-4-1c-.53396655-.1297214-1.07256598.1957027-1.20609737.7287292-.13353139.5330266.18803803 1.0739362.72009737 1.2112708l2.624.656-1.213 1.819c-.18040192.27087-.21770708.6125853-.1.916z"/></g></g></svg>