<svg height="512" viewBox="0 0 44 60" width="512" xmlns="http://www.w3.org/2000/svg"><g id="Page-1" fill="none" fill-rule="evenodd"><g id="016---Rash" fill="rgb(0,0,0)" fill-rule="nonzero"><path id="Shape" d="m8.062 60h27.876c.5705965.001007 1.1146763-.2407873 1.4963121-.6649754.3816357-.4241881.5647836-.9907075.5036879-1.5580246-.719-6.441-6.858-9.455-10.524-10.693-.7915256-.4129872-1.322727-1.1958893-1.414-2.084v-2.332c4.9647639-1.0996922 8.9468536-4.7979481 10.41-9.668h.59c1.5455683.0009954 2.9534145-.8885147 3.6161631-2.2847764s.4617958-3.0494033-.5161631-4.2462236c1.257-2.299 1.9-5.469 1.9-9.469 0-15.344-16.784-17-24-17-8.462 0-17 5.256-17 17 .05699953 3.4647618.94633334 6.8650146 2.593 9.914-.75402504 1.233693-.78358121 2.7782751-.07730526 4.0399115.70627595 1.2616365 2.03843266 2.0439188 3.48430526 2.0460885h.59c1.46314635 4.8700519 5.4452361 8.5683078 10.41 9.668v2.332c-.0911022.8867663-.620021 1.6690707-1.409 2.084-3.665 1.237-9.806 4.251-10.525 10.694-.06079084.5671548.12249503 1.1333998.50409589 1.5573583.38160085.4239586.92550153.6656178 1.49590411.6646417zm30.351-29.587c-.3736971.3765323-.8825047.5879053-1.413.587l-.16.0000029c.1014969-.6619385.1549698-1.33035.16-2.0000029v-2c.4489315.0008607.8841746.1546418 1.234.436.4876282.3714132.7715205.9510575.766 1.564.0012405.5305618-.2101841 1.0394935-.587 1.413zm-20.413-28.413c8.217 0 22 1.949 22 15 .1243741 2.8471743-.4001782 5.6853646-1.534 8.3-.4652323-.1920232-.9627347-.2938313-1.466-.3v-4.619c-.0038372-1.1351224-.6461474-2.1714808-1.661-2.68-5.652-2.8-7.395-6.928-7.41-6.966-.1346715-.3363222-.4407129-.5735043-.8-.62-.3584718-.0496246-.7154566.1003014-.931.391-4.407 5.877-12.984 7.207-16.468 7.507-1.55107029.1286141-2.74107598 1.4306459-2.73 2.987v4c-.67349238.0061581-1.33442441.1830031-1.921.514-1.31181476-2.6501657-2.02174252-5.5574889-2.079-8.514 0-10.362 7.534-15 15-15zm-11 29c-.7970226.0030636-1.51922821-.4690211-1.83623646-1.2002941s-.1678517-1.5810949.37923646-2.1607059c.37326762-.4097109.90275896-.6419312 1.457-.639v2c.00503019.6696529.05850311 1.3380644.16 2.0000148zm2-2v-8c-.00833978-.5176522.38433228-.9539545.9-1 3.514-.3 11.858-1.6 16.92-7.123 1.8853127 2.8643527 4.5249969 5.1524481 7.628 6.612.3356809.1682738.5477325.5115034.548.887v8.624c-.0071604 6.6228876-5.3731152 11.9906316-11.996 12h-2c-6.624447-.0071648-11.99283515-5.375553-12-12zm12 14h2c.338 0 .668-.027 1-.051v2.051c.0216252 1.2128932.5645293 2.3577286 1.49 3.142-1.0491052.6340284-2.2665047.9333203-3.49.858-1.2238032.074613-2.4414423-.2238689-3.492-.856.9267354-.7843568 1.4704461-1.9300851 1.492-3.144v-2.051c.332.024.662.051 1 .051zm-4.347 6.182c.732.76 2.296 1.818 5.347 1.818s4.615-1.058 5.347-1.818c3.239 1.19 8.037 3.784 8.591 8.818h-27.883c.561-5.034 5.359-7.628 8.598-8.818z"/><path id="Shape" d="m.927 35.241c-.24971577.0902433-.45328952.2760945-.56584176.5165811s-.1248414.5158625-.03415824.7654189c1.71778283 4.6753749 4.96140748 8.6352251 9.207 11.24.4710989.2885687 1.0869312.1405988 1.3755-.3305.2885687-.4710989.1405989-1.0869312-.3305-1.3755-3.86125279-2.3677159-6.81120283-5.9683954-8.373-10.22-.18958699-.5168659-.76129157-.7832739-1.279-.596z"/><path id="Shape" d="m14.054 45.6c.1223483.0509254.2534777.0774231.386.078.4770581.0010523.8884304-.3350226.9825506-.8027051.0941202-.4676826-.1552237-.9367253-.5955506-1.1202949-3.9833117-1.6823874-7.12403659-4.8940912-8.717-8.914-.12712637-.3376086-.42623694-.5805759-.78273311-.6358134s-.71510943.0858183-.93844382.3691246c-.2233344.2833063-.27676584.6649413-.13982307.9986888 1.7917317 4.5217797 5.32446169 8.1344961 9.805 10.027z"/><path id="Shape" d="m43.67 36.523c.1894337-.5188715-.0776285-1.0930663-.5965-1.2825s-1.0930663.0776285-1.2825.5965c-1.5617972 4.2516046-4.5117472 7.8522841-8.373 10.22-.4710989.2885688-.6190687.9044011-.3305 1.3755.2885688.4710988.9044011.6190687 1.3755.3305 4.2455925-2.6047749 7.4892172-6.5646251 9.207-11.24z"/><path id="Shape" d="m37.89 34.844c-1.5929634 4.0199088-4.7336883 7.2316126-8.717 8.914-.4403269.1835696-.6896708.6526123-.5955506 1.1202949.0941202.4676825.5054925.8037574.9825506.8027051.1325223-.0005769.2636517-.0270746.386-.078 4.4805383-1.8925039 8.0132683-5.5052203 9.805-10.027.1369428-.3337475.0835113-.7153825-.1398231-.9986888s-.5819476-.4243621-.9384438-.3691246-.6556067.2982048-.7827331.6358134z"/><path id="Shape" d="m29 25c-1.6568542 0-3 1.3431458-3 3 .001872.44611.1044206.8860432.3 1.287-.2893174.2845141-.3780242.7156533-.2245299 1.0912758s.5187559.6212521.9245299.6217242h4c.405774-.0004721.7710356-.2461017.9245299-.6217242s.0647875-.8067617-.2245299-1.0912758c.1955794-.4009568.298128-.84089.3-1.287 0-.7956495-.3160705-1.5587112-.8786797-2.1213203-.5626091-.5626092-1.3256708-.8786797-2.1213203-.8786797zm0 2c.5522847 0 1 .4477153 1 1s-.4477153 1-1 1-1-.4477153-1-1 .4477153-1 1-1z"/><path id="Shape" d="m25.554 37.9c.4942949.2465951 1.0949049.0457949 1.3415-.4485s.0457949-1.0949049-.4485-1.3415c-1.3913948-.6686472-2.9045936-1.0463514-4.447-1.11-1.5417025.0605166-3.0548682.4348099-4.447 1.1-.4942949.2465951-.6950951.8472051-.4485 1.3415s.8472051.6950951 1.3415.4485c1.1146758-.5273176 2.3223606-.8297485 3.554-.89 1.2323211.0633898 2.4400372.3692267 3.554.9z"/><path id="Shape" d="m21 32c-.5522847 0-1 .4477153-1 1s.4477153 1 1 1h2c.5522847 0 1-.4477153 1-1s-.4477153-1-1-1z"/><path id="Shape" d="m18 30c.0004872-.2684473-.1077347-.5256547-.3-.713.1955794-.4009568.298128-.84089.3-1.287 0-1.6568542-1.3431458-3-3-3s-3 1.3431458-3 3c.001872.44611.1044206.8860432.3 1.287-.2893174.2845141-.3780242.7156533-.2245299 1.0912758s.5187559.6212521.9245299.6217242h4c.5522847 0 1-.4477153 1-1zm-3-3c.5522847 0 1 .4477153 1 1s-.4477153 1-1 1-1-.4477153-1-1 .4477153-1 1-1z"/><path id="Shape" d="m12.316 23.949 3-1c.5246705-.174522.808522-.7413295.634-1.266s-.7413295-.808522-1.266-.634l-3 1c-.5246705.174522-.808522.7413295-.634 1.266s.7413295.808522 1.266.634z"/><path id="Shape" d="m28.684 22.949 3 1c.5246705.174522 1.091478-.1093295 1.266-.634s-.1093295-1.091478-.634-1.266l-3-1c-.5246705-.174522-1.091478.1093295-1.266.634s.1093295 1.091478.634 1.266z"/><circle id="Oval" cx="27" cy="17" r="1"/><circle id="Oval" cx="25" cy="23" r="1"/><circle id="Oval" cx="20" cy="21" r="1"/><circle id="Oval" cx="23" cy="28" r="1"/><circle id="Oval" cx="30" cy="34" r="1"/><circle id="Oval" cx="15" cy="35" r="1"/></g></g></svg>