<svg height="512" viewBox="0 0 48 60" width="512" xmlns="http://www.w3.org/2000/svg"><g id="Page-1" fill="none" fill-rule="evenodd"><g id="040---Sneezing" fill="rgb(0,0,0)" fill-rule="nonzero" transform="translate(-1)"><path id="Shape" d="m21 0c-8.462 0-17 5.256-17 17 .05699953 3.4647618.94633334 6.8650146 2.593 9.914-.75402504 1.233693-.78358121 2.7782751-.07730526 4.0399115.70627595 1.2616365 2.03843266 2.0439188 3.48430526 2.0460885h.59c1.4631464 4.8700519 5.4452361 8.5683078 10.41 9.668v2.332c-.0911022.8867663-.620021 1.6690707-1.409 2.084-3.665 1.237-9.806 4.251-10.525 10.694-.06079084.5671548.12249503 1.1333998.50409589 1.5573583.38160085.4239586.92550151.6656178 1.49590411.6646417h27.872c.5705965.001007 1.1146763-.2407873 1.4963121-.6649754.3816357-.4241881.5647836-.9907075.5036879-1.5580246-.719-6.441-6.858-9.455-10.524-10.693-.7915256-.4129872-1.322727-1.1958893-1.414-2.084v-2.332c4.9647639-1.0996922 8.9468536-4.7979481 10.41-9.668h.59c1.5455683.0009954 2.9534145-.8885147 3.6161631-2.2847764s.4617958-3.0494033-.5161631-4.2462236c1.256-2.299 1.9-5.469 1.9-9.469 0-15.344-16.784-17-24-17zm-11 31c-.7970226.0030636-1.51922821-.4690211-1.83623646-1.2002941s-.1678517-1.5810949.37923646-2.1607059c.37326762-.4097109.90275896-.6419312 1.457-.639v2c.0050302.6696529.0585031 1.3380644.16 2.0000148zm20.347 18.182c3.239 1.19 8.037 3.784 8.591 8.818h-27.883c.561-5.033 5.359-7.627 8.6-8.817.73.759 2.294 1.817 5.345 1.817s4.615-1.058 5.347-1.818zm-1.857-1.04c-1.0491052.6340284-2.2665047.9333203-3.49.858-1.2238032.074613-2.4414423-.2238689-3.492-.856.9267354-.7843568 1.4704461-1.9300851 1.492-3.144v-2.051c.332.024.662.051 1 .051h2c.338 0 .668-.027 1-.051v2.051c.0216252 1.2128932.5645293 2.3577286 1.49 3.142zm-2.49-7.142h-2c-6.624447-.0071648-11.9928352-5.375553-12-12v-8c-.0083398-.5176522.3843323-.9539545.9-1 3.514-.3 11.858-1.6 16.92-7.123 1.8853127 2.8643527 4.5249969 5.1524481 7.628 6.612.3356809.1682738.5477325.5115034.548.887v8.624c-.0071604 6.6228876-5.3731152 11.9906316-11.996 12zm15.413-10.587c-.3736971.3765323-.8825047.5879053-1.413.587l-.16.0000029c.1014969-.6619385.1549698-1.33035.16-2.0000029v-2c.4489315.0008607.8841746.1546418 1.234.436.4876282.3714132.7715205.9510575.766 1.564.0012405.5305618-.2101841 1.0394935-.587 1.413zm.053-5.118c-.4655679-.1903099-.9630583-.2904188-1.466-.295v-4.619c-.0038372-1.1351224-.6461474-2.1714808-1.661-2.68-5.652-2.8-7.395-6.928-7.41-6.966-.1340453-.335858-.4389716-.5731816-.7974606-.6206622-.3584889-.0474806-.7146832.1022799-.9315394.3916622-4.407 5.877-12.984 7.207-16.468 7.507-1.5518622.1276268-2.74299465 1.4299374-2.732 2.987v4c-.67351017.0060274-1.33447428.1828809-1.921.514-1.31181476-2.6501657-2.02174252-5.5574889-2.079-8.514 0-10.362 7.534-15 15-15 8.217 0 22 1.949 22 15 .1243741 2.8471743-.4001782 5.6853646-1.534 8.3z"/><path id="Shape" d="m18.707 25.293c-.3923789-.3789722-1.0160848-.3735524-1.4018186.0121814s-.3911536 1.0094397-.0121814 1.4018186l.293.293h-1.586c-.5522847 0-1 .4477153-1 1s.4477153 1 1 1h4c.4043959-.0000863.7689341-.2437275.923678-.6173454.1547439-.373618.0692299-.8036603-.216678-1.0896546z"/><path id="Shape" d="m34 27h-1.586l.293-.293c.3789722-.3923789.3735524-1.0160848-.0121814-1.4018186s-1.0094397-.3911536-1.4018186-.0121814l-2 2c-.2859079.2859943-.3714219.7160366-.216678 1.0896546.1547439.3736179.5192821.6172591.923678.6173454h4c.5522847 0 1-.4477153 1-1s-.4477153-1-1-1z"/><path id="Shape" d="m23 31c0 .5522847.4477153 1 1 1h2c.5522847 0 1-.4477153 1-1s-.4477153-1-1-1h-2c-.5522847 0-1 .4477153-1 1z"/><path id="Shape" d="m25 33c-2.243 0-4 1.318-4 3s1.757 3 4 3 4-1.318 4-3-1.757-3-4-3zm0 4c-1.221 0-2-.592-2-1s.779-1 2-1 2 .592 2 1-.779 1-2 1z"/><path id="Shape" d="m13.759 41.349c-.3594674-.4185011-.9899503-.4668277-1.409-.108l-7 6c-.28696176.2275866-.4265481.5938406-.36385019.9546891.06269791.3608486.3176476.6585514.66455995.7760016s.73027691.0358542.99929024-.2126907l7-6c.4194577-.3592625.4682585-.9905389.109-1.41z"/><path id="Shape" d="m2.648 40.688-1 .375c-.45382034.1691865-.72116299.6392726-.63456644 1.1157996.08659655.4765271.5022367.8224985.98656644.8212004.12009435-.0004789.23919467-.0217951.352-.063l1-.375c.51749078-.1932997.78029959-.7695092.58699994-1.287s-.76950914-.7802996-1.28699994-.587z"/><path id="Shape" d="m6.063 40.476c.14640953.3905823.51987869.6492605.937.649.12009435-.0004789.23919467-.0217951.352-.063l3-1.125c.5174908-.1932997.7802996-.7695092.5869999-1.287-.1932996-.5174908-.7695091-.7802996-1.2869999-.587l-3 1.125c-.2491534.0923697-.4512982.2801055-.56180684.5217611-.11050864.2416555-.12029306.5173574-.02719316.7662389z"/><circle id="Oval" cx="16" cy="45" r="1"/><circle id="Oval" cx="6" cy="36" r="1"/><path id="Shape" d="m37.65 41.241c-.2690133-.2485449-.6523779-.3301409-.9992902-.2126907-.3469124.1174502-.6018621.415153-.66456.7760016-.0626979.3608485.0768884.7271025.3638502.9546891l7 6c.2690133.2485449.6523779.3301409.9992902.2126907.3469124-.1174502.6018621-.415153.66456-.7760016.0626979-.3608485-.0768884-.7271025-.3638502-.9546891z"/><path id="Shape" d="m48.352 41.063-1-.375c-.5174908-.1932997-1.0937003.0695092-1.287.587s.0695092 1.0937003.587 1.287l1 .375c.1115422.040752.2292503.0620613.348.063.4843297.0012981.8999699-.3446733.9865664-.8212004.0865966-.476527-.1807461-.9466131-.6345664-1.1157996z"/><path id="Shape" d="m42.648 41.062c.1128053.0412049.2319056.0625211.352.063.4843297.0012981.8999699-.3446733.9865664-.8212004.0865966-.476527-.1807461-.9466131-.6345664-1.1157996l-3-1.125c-.5174908-.1932997-1.0937003.0695092-1.287.587s.0695092 1.0937003.587 1.287z"/><circle id="Oval" cx="34" cy="45" r="1"/><circle id="Oval" cx="44" cy="36" r="1"/><path id="Shape" d="m21 24c1.6568542 0 3-1.3431458 3-3 0-.5522847-.4477153-1-1-1s-1 .4477153-1 1-.4477153 1-1 1-1 .4477153-1 1 .4477153 1 1 1z"/><path id="Shape" d="m30 23c0-.5522847-.4477153-1-1-1s-1-.4477153-1-1-.4477153-1-1-1-1 .4477153-1 1c0 1.6568542 1.3431458 3 3 3 .5522847 0 1-.4477153 1-1z"/></g></g></svg>