<svg height="512" viewBox="0 0 60 60" width="512" xmlns="http://www.w3.org/2000/svg"><g id="Page-1" fill="none" fill-rule="evenodd"><g id="001---Headache" fill="rgb(0,0,0)" fill-rule="nonzero" transform="translate(0 -1)"><path id="Shape" d="m11 30c0 2.209139 1.790861 4 4 4h.59c1.4631464 4.8700519 5.4452361 8.5683078 10.41 9.668v2.332c-.0911022.8867663-.620021 1.6690707-1.409 2.084-3.665 1.237-9.806 4.251-10.524 10.693-.0616341.5664165.120502 1.1323206.5009445 1.5564548.3804426.4241343.9232955.6664803 1.4930555.6665452h27.878c.56976-.0000649 1.1126129-.2424109 1.4930555-.6665452.3804425-.4241342.5625786-.9900383.5009445-1.5564548-.718-6.441-6.857-9.455-10.523-10.693-.7899832-.4139881-1.3195611-1.1967118-1.41-2.084v-2.332c4.9647639-1.0996922 8.9468536-4.7979481 10.41-9.668h.59c1.5455683.0009954 2.9534145-.8885147 3.6161631-2.2847764s.4617958-3.0494033-.5161631-4.2462236c1.256-2.298 1.9-5.469 1.9-9.469 0-15.344-16.784-17-24-17-8.462 0-17 5.256-17 17 .05672968 3.4644812.94608484 6.8644727 2.593 9.913-.3884435.6267448-.5938474 1.3496421-.593 2.087zm4 2c-.7970226.0030636-1.5192282-.4690211-1.8362365-1.2002941-.3170082-.731273-.1678517-1.5810949.3792365-2.1607059.3734177-.4095018.9028111-.6416792 1.457-.639v2c.0050302.6696529.0585031 1.3380644.16 2.0000148zm20.347 18.182c3.239 1.19 8.037 3.784 8.592 8.818h-27.884c.561-5.033 5.359-7.627 8.6-8.817.73.759 2.294 1.817 5.345 1.817s4.615-1.058 5.347-1.818zm-1.857-1.04c-1.0491052.6340284-2.2665047.9333203-3.49.858-1.2238146.0747398-2.4414908-.2237513-3.492-.856.9267354-.7843568 1.4704461-1.9300851 1.492-3.144v-2.051c.332.024.662.051 1 .051h2c.338 0 .668-.027 1-.051v2.051c.0216252 1.2128932.5645293 2.3577286 1.49 3.142zm-2.49-7.142h-2c-6.624447-.0071648-11.9928352-5.375553-12-12v-8c-.0083398-.5176522.3843323-.9539545.9-1 3.514-.3 11.858-1.6 16.92-7.123 1.8855883 2.8641113 4.5251967 5.152141 7.628 6.612.3356809.1682738.5477325.5115034.548.887v8.624c-.0071604 6.6228876-5.3731152 11.9906316-11.996 12zm15.413-10.587c-.3735065.3768159-.8824382.5882405-1.413.587l-.16.0000054c.1014969-.661941.1549698-1.3303525.16-2.0000054v-2c.4489866.0005408.8843327.1543583 1.234.436.4876282.3714132.7715205.9510575.766 1.564.0012405.5305618-.2101841 1.0394935-.587 1.413zm-20.413-28.413c8.216 0 22 1.949 22 15 .1243741 2.8471743-.4001782 5.6853646-1.534 8.3-.4652323-.1920232-.9627347-.2938313-1.466-.3v-4.619c-.0038372-1.1351224-.6461474-2.1714808-1.661-2.68-5.652-2.8-7.395-6.928-7.41-6.966-.1340453-.335858-.4389716-.5731816-.7974606-.6206622-.3584889-.0474806-.7146832.1022799-.9315394.3916622-4.408 5.876-12.984 7.207-16.467 7.507-1.5522581.1271328-2.7439542 1.4295829-2.733 2.987v4c-.6735102.0060274-1.3344743.1828809-1.921.514-1.3117213-2.6501998-2.0216438-5.5575018-2.079-8.514 0-10.362 7.534-15 15-15z"/><path id="Shape" d="m25.924 29.383c.1548179-.3737776.0691653-.8040145-.217-1.09l-2-2c-.3923789-.3789722-1.0160848-.3735524-1.4018186.0121814s-.3911536 1.0094397-.0121814 1.4018186l.293.293h-1.586c-.5522847 0-1 .4477153-1 1s.4477153 1 1 1h4c.4044291.0001018.7691037-.2434093.924-.617z"/><path id="Shape" d="m39 28h-1.586l.293-.293c.3789722-.3923789.3735524-1.0160848-.0121814-1.4018186s-1.0094397-.3911536-1.4018186-.0121814l-2 2c-.2859079.2859943-.3714219.7160366-.216678 1.0896546.1547439.3736179.5192821.6172591.923678.6173454h4c.5522847 0 1-.4477153 1-1s-.4477153-1-1-1z"/><path id="Shape" d="m26 25c1.6568542 0 3-1.3431458 3-3 0-.5522847-.4477153-1-1-1s-1 .4477153-1 1-.4477153 1-1 1-1 .4477153-1 1 .4477153 1 1 1z"/><path id="Shape" d="m34 25c.5522847 0 1-.4477153 1-1s-.4477153-1-1-1-1-.4477153-1-1-.4477153-1-1-1-1 .4477153-1 1c0 1.6568542 1.3431458 3 3 3z"/><path id="Shape" d="m33 35c-.6871054.0443665-1.3541071.249914-1.947.6-.3229551.1978925-.6801091.3335635-1.053.4-.3728909-.0664365-.7300449-.2021075-1.053-.4-.5928929-.350086-1.2598946-.5556335-1.947-.6-1.0259392.1005866-1.9839926.5582013-2.707 1.293-.3550623.3942928-.3403581.9972533.0335016 1.3737701s.9767009.3954908 1.3734984.0432299c.3511209-.3632656.8045884-.6109286 1.3-.71.3728909.0664365.7300449.2021075 1.053.4.5928929.350086 1.2598946.5556335 1.947.6.6871054-.0443665 1.3541071-.249914 1.947-.6.3229551-.1978925.6801091-.3335635 1.053-.4.4952268.0989749.9486299.3462539 1.3.709.3929089.3784551 1.0166378.3721707 1.4018415-.0141242.3852036-.3862949.3897235-1.0100391.0101585-1.4018758-.7242908-.7358502-1.6842927-1.1935502-2.712-1.293z"/><path id="Shape" d="m28 33c0 .5522847.4477153 1 1 1h2c.5522847 0 1-.4477153 1-1s-.4477153-1-1-1h-2c-.5522847 0-1 .4477153-1 1z"/><path id="Shape" d="m4.391 7.9c.35912783.11978573.75510951.02649972 1.023-.241l.708-.707.424 2.97c.07053341.491687.49128059.8570727.988.858.04784663.0001549.09564061-.0031874.143-.01.54635367-.0783712.92589725-.5845785.848-1.131l-.707-4.95c-.05295914-.37610272-.3144128-.68973792-.67484094-.80952727-.36042813-.11978935-.75760557-.02505214-1.02515906.24452727l-.708.707-.42-2.973c-.07842443-.5467619-.5852381-.92642443-1.132-.848s-.92642443.5852381-.848 1.132l.707 4.949c.05300185.37569281.31405297.68903161.674.809z"/><path id="Shape" d="m1.391 16.9c.35912783.1197857.75510951.0264997 1.023-.241l.708-.707.424 2.97c.07053341.491687.49128059.8570727.988.858.04784663.0001549.09564061-.0031874.143-.01.54635367-.0783712.92589725-.5845785.848-1.131l-.707-4.95c-.05295914-.3761027-.3144128-.6897379-.67484094-.8095273-.36042813-.1197893-.75760557-.0250521-1.02515906.2445273l-.708.707-.42-2.973c-.07842443-.5467619-.5852381-.92642443-1.132-.848-.5467619.0784244-.92642443.5852381-.848 1.132l.707 4.949c.05300186.3756928.31405297.6890316.674.809z"/><path id="Shape" d="m52.323 10.768c.0473594.0068126.0951534.0101549.143.01.4967194-.0009273.9174666-.366313.988-.858l.424-2.97.708.707c.2676907.26962351.6650526.36425687 1.0255386.24423622.3604861-.12002065.6218173-.43396006.6744614-.81023622l.707-4.949c.0507317-.35422884-.0913691-.70861485-.3727744-.92966424-.2814053-.22104938-.659363-.27517948-.9915-.142-.332137.13317947-.5679939.43343539-.6187256.78766424l-.424 2.971-.708-.707c-.2675535-.26957941-.6647309-.36431662-1.0251591-.24452727-.3604281.11978935-.6218818.43342455-.6748409.80952727l-.707 4.95c-.0373452.26301726.0314996.530085.1913427.742271.159843.2121861.3975463.3520501.6606573.388729z"/><path id="Shape" d="m55.855 12.88c-.3589774.1199614-.6194649.4323141-.673.807l-.707 4.95c-.0778973.5464215.3016463 1.0526288.848 1.131.0473594.0068126.0951534.0101549.143.01.4967194-.0009273.9174666-.366313.988-.858l.424-2.97.708.707c.2676907.2696235.6650526.3642569 1.0255386.2442362.3604861-.1200206.6218173-.43396.6744614-.8102362l.707-4.949c.0507317-.3536929-.0910832-.7075837-.3720244-.9283651-.2809412-.22078147-.6583271-.27491156-.99-.142-.3316729.1329115-.5672439.4326722-.6179756.7863651l-.424 2.971-.708-.707c-.2682644-.2690127-.6657967-.3627777-1.026-.242z"/></g></g></svg>