<svg height="512" viewBox="0 0 60 60" width="512" xmlns="http://www.w3.org/2000/svg"><g id="Page-1" fill="none" fill-rule="evenodd"><g id="006---Dizzy" fill="rgb(0,0,0)" fill-rule="nonzero" transform="translate(0 -1)"><path id="Shape" d="m30 34c-1.6568542 0-3 1.3431458-3 3s1.3431458 3 3 3 3-1.3431458 3-3-1.3431458-3-3-3zm0 4c-.5522847 0-1-.4477153-1-1s.4477153-1 1-1 1 .4477153 1 1-.4477153 1-1 1z"/><path id="Shape" d="m28 32c0 .5522847.4477153 1 1 1h2c.5522847 0 1-.4477153 1-1s-.4477153-1-1-1h-2c-.5522847 0-1 .4477153-1 1z"/><path id="Shape" d="m23.707 26.293c-.3923789-.3789722-1.0160848-.3735524-1.4018186.0121814s-.3911536 1.0094397-.0121814 1.4018186l.293.293h-1.586c-.5522847 0-1 .4477153-1 1s.4477153 1 1 1h4c.4043959-.0000863.7689341-.2437275.923678-.6173454.1547439-.373618.0692299-.8036603-.216678-1.0896546z"/><path id="Shape" d="m39 28h-1.586l.293-.293c.3789722-.3923789.3735524-1.0160848-.0121814-1.4018186s-1.0094397-.3911536-1.4018186-.0121814l-2 2c-.2859079.2859943-.3714219.7160366-.216678 1.0896546.1547439.3736179.5192821.6172591.923678.6173454h4c.5522847 0 1-.4477153 1-1s-.4477153-1-1-1z"/><path id="Shape" d="m10.467 10.388c-.162.373-.3.773-.434 1.17-5.193 2.894-7.51 5.442-6.869 7.586.5 1.627 2.61 2.51 6.239 2.648.38136349 2.1490814 1.1217034 4.2186526 2.19 6.122-.754025 1.233693-.7835812 2.7782751-.0773053 4.0399115.706276 1.2616365 2.0384327 2.0439188 3.4843053 2.0460885h.59c1.4631464 4.8700519 5.4452361 8.5683078 10.41 9.668v2.332c-.0911022.8867663-.620021 1.6690707-1.409 2.084-3.665 1.237-9.806 4.251-10.525 10.694-.0607908.5671548.122495 1.1333998.5040959 1.5573583.3816008.4239586.9255015.6656178 1.4959041.6646417h27.872c.5705965.001007 1.1146763-.2407873 1.4963121-.6649754.3816357-.4241881.5647836-.9907075.5036879-1.5580246-.719-6.441-6.858-9.455-10.524-10.693-.7915256-.4129872-1.322727-1.1958893-1.414-2.084v-2.332c4.9647639-1.0996922 8.9468536-4.7979481 10.41-9.668h.59c1.5455683.0009954 2.9534145-.8885147 3.6161631-2.2847764s.4617958-3.0494033-.5161631-4.2462236c.9028167-1.7645899 1.4688157-3.6820006 1.669-5.654 4.223-.019 6.545-.9 7.072-2.679.851-2.848-3.8-6-8.131-8.261 4.715-2.739 6.8-5.16 6.19-7.2-1.283-4.251-13.04-2.417-18.271-1.375-3.4731038-.88462273-7.0450713-1.32149899-10.629-1.3-1.8463663.00117392-3.6832656.26378049-5.456.78-5.398-.88-14.352-1.761-15.444 1.894-.569 1.908 1.236 4.165 5.367 6.714zm36.282 1.552c.8603387 1.9025257 1.2876161 3.9723108 1.251 6.06 0 .607-.022 1.188-.054 1.756-1.167-.06-2.391-.165-3.682-.331-.2530032-.3012217-.5659858-.5464312-.919-.72-1.6887792-.8279349-3.2402346-1.910581-4.6-3.21 2.7328557-1.0332334 5.4051185-2.2201268 8.004-3.555zm-1.749 14.06v-4.481c.9513333.1046667 1.8703333.1806667 2.757.228-.1780912 1.5781254-.6142321 3.116274-1.291 4.553-.4652323-.1920232-.9627347-.2938313-1.466-.3zm-5.6-7.368c-1.889-.365-3.835-.8-5.828-1.311 1.0773333-.3493333 2.123-.705 3.137-1.067.8197844.8759784 1.7208207 1.6722119 2.691 2.378zm-6.07-3.332c.5281114-.4430818 1.0290207-.9176099 1.5-1.421.141.223.317.476.5.736-.658.23-1.314.46-2 .685zm-18.33 6.7v4c-.6734924.0061581-1.3344244.1830031-1.921.514-.7635367-1.4894639-1.3145623-3.0785856-1.637-4.721 1.128-.038 2.335-.1276667 3.621-.269-.033575.1567475-.0546413.3159151-.063.476zm1.856-2.72c-1.899983.2842523-3.8148761.4578782-5.735.52-.0737758-.5972829-.1141719-1.1982167-.121-1.8-.0327467-2.2583577.3917697-4.4999948 1.248-6.59 4.5375807 2.3966498 9.2838122 4.3754735 14.18 5.912-1.2.31-2.38.594-3.521.844-.6.137-1.2.266-1.782.383-1.562.31-2.956.551-4.269.731zm-11.778-.717c-.154-.516.627-2 4.248-4.269-.21687921 1.223417-.32596441 2.4635083-.326 3.706.00683363.5967962.04354627 1.1928758.11 1.786-2.897-.155-3.91-.819-4.032-1.223zm9.922 13.437c-.7970226.0030636-1.5192282-.4690211-1.8362365-1.2002941-.3170082-.731273-.1678517-1.5810949.3792365-2.1607059.3732676-.4097109.902759-.6419312 1.457-.639v2c.0050302.6696529.0585031 1.3380644.16 2.0000148zm20.347 18.182c3.239 1.19 8.037 3.784 8.591 8.818h-27.883c.561-5.033 5.359-7.627 8.6-8.817.73.759 2.294 1.817 5.345 1.817s4.615-1.058 5.347-1.818zm-1.857-1.04c-1.0491052.6340284-2.2665047.9333203-3.49.858-1.2238032.074613-2.4414423-.2238689-3.492-.856.9267354-.7843568 1.4704461-1.9300851 1.492-3.144v-2.051c.332.024.662.051 1 .051h2c.338 0 .668-.027 1-.051v2.051c.0216252 1.2128932.5645293 2.3577286 1.49 3.142zm-2.49-7.142h-2c-6.624447-.0071648-11.9928352-5.375553-12-12v-8c.0010389-.3034116.1419922-.5893769.382-.775 1.276-.182 2.629-.415 4.138-.715.6-.121 1.214-.254 1.823-.393 2.118-.462 4.362-1.038 6.657-1.7 4.2570264 1.2501298 8.595822 2.2027602 12.985 2.851.007026.0370339.0120334.0744224.015.112v8.62c-.0071648 6.624447-5.375553 11.9928352-12 12zm15.413-10.587c-.3736971.3765323-.8825047.5879053-1.413.587l-.16.0000029c.1014969-.6619385.1549698-1.33035.16-2.0000029v-2c.4489315.0008607.8841746.1546418 1.234.436.4876282.3714132.7715205.9510575.766 1.564.0012405.5305618-.2101841 1.0394935-.587 1.413zm8.508-12.847c-.139.467-1.376 1.2-4.972 1.247.031-.586.051-1.187.051-1.813.0078116-1.4966774-.1763574-2.9881772-.548-4.438 4.311 2.474 5.678 4.304 5.469 5.004zm-1.939-14.321c.17.571-.793 2.32-5.463 5.006-1.7745901-2.4915999-4.2156055-4.43248958-7.043-5.6 8.014-1.236 12.186-.47 12.506.594zm-16.782-.04c.1114599.05313232.2318516.08501069.355.094 3.656 1.036 7.071 2.841 9.2 5.907-2.7423359 1.4022234-5.5656556 2.6400763-8.455 3.707-.5436793-.6678805-1.0043744-1.399217-1.372-2.178-.135016-.3341974-.4394341-.5698763-.796797-.6168759-.357363-.0469997-.7123671.1019533-.929203.3898759-1.4595338 1.8655938-3.3116458 3.3872276-5.425 4.457-5.3984217-1.5922207-10.6267103-3.712811-15.609-6.331 2.771-4.525 7.811-6.634 12.832-6.634 3.437549-.03633567 6.865549.36863884 10.2 1.205zm-29.182.041c.254-.853 3.189-1.709 9.872-.955-2.2616769 1.26505547-4.1540354 3.09847165-5.49 5.319-3.763-2.343-4.531-3.864-4.382-4.364z"/><path id="Shape" d="m6 10c0-1.65685425-1.34314575-3-3-3s-3 1.34314575-3 3c0 1.6568542 1.34314575 3 3 3 .79564947 0 1.55871121-.3160705 2.12132034-.8786797.56260914-.5626091.87867966-1.3256708.87867966-2.1213203zm-4 0c0-.55228475.44771525-1 1-1s1 .44771525 1 1c0 .5522847-.44771525 1-1 1-.26521649 0-.5195704-.1053568-.70710678-.2928932s-.29289322-.4418903-.29289322-.7071068z"/><path id="Shape" d="m57 8c-1.6568542 0-3 1.34314575-3 3 0 1.6568542 1.3431458 3 3 3s3-1.3431458 3-3c0-1.65685425-1.3431458-3-3-3zm0 4c-.5522847 0-1-.4477153-1-1s.4477153-1 1-1 1 .4477153 1 1-.4477153 1-1 1z"/><circle id="Oval" cx="7" cy="26" r="1"/><circle id="Oval" cx="57" cy="24" r="1"/><circle id="Oval" cx="57" cy="2" r="1"/><path id="Shape" d="m29 22c0-.5522847-.4477153-1-1-1s-1 .4477153-1 1-.4477153 1-1 1-1 .4477153-1 1 .4477153 1 1 1c1.6568542 0 3-1.3431458 3-3z"/><path id="Shape" d="m35 24c0-.5522847-.4477153-1-1-1s-1-.4477153-1-1-.4477153-1-1-1-1 .4477153-1 1c0 1.6568542 1.3431458 3 3 3 .5522847 0 1-.4477153 1-1z"/></g></g></svg>