<svg height="512" viewBox="0 0 54 60" width="512" xmlns="http://www.w3.org/2000/svg"><g id="Page-1" fill="none" fill-rule="evenodd"><g id="005---Vomit" fill="rgb(0,0,0)" fill-rule="nonzero"><path id="Shape" d="m12.726 53.264c-.9020965 1.3470051-1.4701267 2.8896338-1.657 4.5-.0636464.5681078.1173766 1.1364692.4978545 1.5631235.3804779.4266542.9244857.6713163 1.4961455.6728765h27.875c.5718752-.0017809 1.115973-.2468363 1.4962988-.6739156.3803257-.4270793.5609408-.9958259.4967012-1.5640844-.1874217-1.6152145-.7582894-3.1622145-1.665-4.512 5.3049229-.1886515 10.1143408-3.1692431 12.644-7.836.1464535-.3285002.1052144-.7103439-.108-1-.2132698-.2921761-.5663911-.4481443-.926-.409-.7839136.0034647-1.5308917-.3328214-2.048-.922-1.16-1.176-2.942-4.555-1.835-13.969 1.154-9.832-.523-17.363-4.988-22.382-5.212-5.857-12.891-6.732-17.005-6.732s-11.793.875-17 6.735c-4.47 5.019-6.148 12.55-4.993 22.382 1.107 9.414-.674 12.793-1.836 13.969-.51245119.5848264-1.25142615.9213532-2.029.924-.36065547-.050933-.72048079.0982564-.93928745.389444-.21880665.2911876-.26198494.6783147-.11271255 1.010556 2.52143947 4.6733193 7.32934432 7.6617084 12.636 7.854zm.33 4.722c.3-2.686 1.85-4.957 4.572-6.772.7995422.6572545 1.6927179 1.1914747 2.65 1.585-.104.358-.21.7096667-.318 1.055l-.045.146c-1.6235675.0460194-2.9156521 1.3757806-2.915 3 .0033905.3372607.0646117.6714403.181.988zm-.902-26.9859852-.154-.0000148c-.7970226.0030636-1.5192282-.4690211-1.8362365-1.2002941-.31700821-.731273-.16785166-1.5810949.3792365-2.1607059.3734177-.4095018.9028111-.6416792 1.457-.639v2c.002749.6695197.0542183 1.3379518.154 2.0000148zm1.846-2.0000148v-8c-.0034689-.516918.3909743-.9496736.906-.994 3.517-.306 11.865-1.608 16.919-7.122 1.889254 2.8637767 4.5299343 5.15262 7.633 6.616.3299953.1699991.5386692.5088053.542.88v8.62c-.0086597 5.0324449-3.1518763 9.5265743-7.876 11.261-.1600426-.5756987-.3646608-1.1380644-.612-1.682.9563941-.4960352 1.5372355-1.5027488 1.488-2.579 0-2.729-3.58-4-6-4s-6 1.271-6 4c-.0503992 1.0790131.5243661 2.0907868 1.477 2.6-.2415415.5374246-.4421129 1.0923388-.6 1.66-4.7241746-1.7339681-7.8677677-6.227666-7.877-11.26zm28 0v-2c.4489866.0005408.8843327.1543583 1.234.436.4876282.3714132.7715205.9510575.766 1.564 0 1.1045695-.8954305 2-2 2h-.154c.0997817-.6620482.151251-1.3304803.154-2zm-7.983 29-14.068-.01c-.5110341-.0628327-.8908299-.5034324-.8776387-1.0181458.0131911-.5147133.415057-.9352805.9286387-.9718542h.657c.4429659.0000778.8331977-.2912736.959-.716.082-.28.168-.558.255-.839.7265459-2.0720606 1.1079523-4.2493541 1.129-6.445 0-7.211 1.672-9.248 1.7-9.289v-.006c.674157-.4695753 1.4784984-.7161235 2.3-.705.7517195.0033118 1.4894879.2032677 2.14.58.064447.0963353.1449487.180896.238.25.366.558 1.622 2.917 1.622 9.17.0210477 2.1956459.4024541 4.3729394 1.129 6.445.087.281.173.559.255.839.1258023.4247264.5160341.7160778.959.716h.657c.5522847-.0046944 1.0038056.4392153 1.0085.9915s-.4392153 1.0038056-.9915 1.0085zm-3.744-21.062c-2.0128907-1.2590441-4.5699684-1.2500978-6.574.023-.4481469-.0887361-.7526023-.5073079-.699-.961 0-1.108 2.188-2 4-2s4 .892 4 2c.0308178.2212729-.028978.4456178-.1658377.6221988s-.3391968.2904488-.5611623.3158012zm2.8 12.533c.452.185.929.4 1.433.649-.3978677.2665608-.816554.5006506-1.252.7-.08-.42-.141-.872-.184-1.349zm-12.324 1.351c-.4355564-.1991316-.85426-.433231-1.252-.7.5-.253.981-.464 1.433-.649-.043.475-.104.927-.181 1.349zm16.067 7.178c.1186518-.3201981.1809065-.6585391.184-1 .0006521-1.6242194-1.2914325-2.9539806-2.915-3l-.045-.147c-.108-.346-.214-.6976667-.318-1.055.9572821-.3935253 1.8504578-.9277455 2.65-1.585 2.721 1.815 4.268 4.087 4.566 6.787zm-32.301-13.43c2.573-2.51 3.407-7.788 2.478-15.687-1.085-9.24.428-16.244 4.5-20.819 4.689-5.276 11.729-6.064 15.507-6.064s10.818.788 15.511 6.064c4.068 4.575 5.581 11.579 4.5 20.819-.93 7.9-.1 13.177 2.478 15.687.5392366.5364235 1.1909471.9463044 1.908 1.2-2.6663724 3.8022003-7.1551023 5.8976013-11.782 5.5-.8549625-.830128-1.8032949-1.5583239-2.826-2.17-1.2062085-.7201048-2.4787009-1.3228644-3.8-1.8-.0111776-1.6984917-.1539382-3.3935644-.427-5.07 4.2593259-1.4756933 7.5484274-4.9106794 8.838-9.23h.6c2.209139 0 4-1.790861 4-4 .009382-1.2330479-.5622644-2.3985693-1.543-3.146-.7009839-.55045-1.5657286-.8510165-2.457-.854v-4.62c-.0007946-1.1346091-.641621-2.1716953-1.656-2.68-5.655-2.8-7.4-6.929-7.416-6.967-.1355285-.3345656-.4408471-.5701222-.7988521-.6163231s-.7131222.1041259-.9291479.3933231c-4.4 5.862-12.98 7.2-16.468 7.5-1.5523318.1291144-2.7431121 1.4323476-2.732 2.99v4c-2.209139 0-4 1.790861-4 4s1.790861 4 4 4h.6c1.2922669 4.3161129 4.5813903 7.7473841 8.839 9.221-.2730618 1.6764356-.4158224 3.3715083-.427 5.07-1.3213062.4771186-2.5938002 1.0798789-3.8 1.8-1.0243071.613394-1.973701 1.3439809-2.829 2.177-4.62497417.3922252-9.10981356-1.7035689-11.776-5.503.71649284-.2524431 1.36812167-.6605649 1.908-1.195z"/><path id="Shape" d="m22 28c.4043959-.0000863.7689341-.2437275.923678-.6173454.1547439-.373618.0692299-.8036603-.216678-1.0896546l-2-2c-.3923789-.3789722-1.0160848-.3735524-1.4018186.0121814s-.3911536 1.0094397-.0121814 1.4018186l.293.293h-1.586c-.5522847 0-1 .4477153-1 1s.4477153 1 1 1z"/><path id="Shape" d="m31.076 27.383c.1548963.3735907.5195709.6171018.924.617h4c.5522847 0 1-.4477153 1-1s-.4477153-1-1-1h-1.586l.293-.293c.3789722-.3923789.3735524-1.0160848-.0121814-1.4018186s-1.0094397-.3911536-1.4018186-.0121814l-2 2c-.2861653.2859855-.3718179.7162224-.217 1.09z"/><path id="Shape" d="m23 24c1.6568542 0 3-1.3431458 3-3 0-.5522847-.4477153-1-1-1s-1 .4477153-1 1-.4477153 1-1 1-1 .4477153-1 1 .4477153 1 1 1z"/><path id="Shape" d="m31 24c.5522847 0 1-.4477153 1-1s-.4477153-1-1-1-1-.4477153-1-1-.4477153-1-1-1-1 .4477153-1 1c0 1.6568542 1.3431458 3 3 3z"/><path id="Shape" d="m25 30c0 .5522847.4477153 1 1 1h2c.5522847 0 1-.4477153 1-1s-.4477153-1-1-1h-2c-.5522847 0-1 .4477153-1 1z"/><path id="Shape" d="m28 43v-1c0-.5522847-.4477153-1-1-1s-1 .4477153-1 1v1c0 .5522847.4477153 1 1 1s1-.4477153 1-1z"/><path id="Shape" d="m25 51c-.5522847 0-1 .4477153-1 1v1c0 .5522847.4477153 1 1 1s1-.4477153 1-1v-1c0-.5522847-.4477153-1-1-1z"/><path id="Shape" d="m29 53c-.5522847 0-1 .4477153-1 1v1c0 .5522847.4477153 1 1 1s1-.4477153 1-1v-1c0-.5522847-.4477153-1-1-1z"/><circle id="Oval" cx="28" cy="48" r="1"/></g></g></svg>