<svg height="512" viewBox="0 0 46 60" width="512" xmlns="http://www.w3.org/2000/svg"><g id="Page-1" fill="none" fill-rule="evenodd"><g id="031---Hair-Loss" fill="rgb(0,0,0)" fill-rule="nonzero"><path id="Shape" d="m29.41 47.084c-.7899832-.4139881-1.3195611-1.1967118-1.41-2.084v-2.332c4.9647639-1.0996922 8.9468536-4.7979481 10.41-9.668h.59c1.5455683.0009954 2.9534145-.8885147 3.6161631-2.2847764s.4617958-3.0494033-.5161631-4.2462236c1.256-2.298 1.9-5.469 1.9-9.469 0-15.344-16.784-17-24-17-8.462 0-17 5.256-17 17 .05672968 3.4644812.94608484 6.8644727 2.593 9.913-.75455254 1.2337442-.78439626 2.7787021-.07805294 4.0406662.70634332 1.2619642 2.0388612 2.0443845 3.48505294 2.0463338h.59c1.4631464 4.8700519 5.4452361 8.5683078 10.41 9.668v2.332c-.0911022.8867663-.620021 1.6690707-1.409 2.084-3.665 1.237-9.806 4.251-10.524 10.693-.06163406.5664165.120502 1.1323206.50094453 1.5564548.38044253.4241343.92329552.6664803 1.49305547.6665452h27.878c.56976-.0000649 1.1126129-.2424109 1.4930555-.6665452.3804425-.4241342.5625786-.9900383.5009445-1.5564548-.718-6.441-6.857-9.455-10.523-10.693zm11-16.671c-.372775.3760754-.8804778.5874382-1.41.587l-.16.0000007c.1014969-.6619363.1549698-1.3303478.16-2.0000007v-2c.4489866.0005408.8843327.1543583 1.234.436.4876282.3714132.7715205.9510575.766 1.564.0012405.5305618-.2101841 1.0394935-.587 1.413zm-20.41-28.413c8.216 0 22 1.949 22 15 .1243741 2.8471743-.4001782 5.6853646-1.534 8.3-.4652323-.1920232-.9627347-.2938313-1.466-.3v-4c0-2.968 0-12-7-12-1.9444471-.09121386-3.8760777.3588076-5.58 1.3-1.4787586.9319095-3.3612414.9319095-4.84 0-1.7039223-.9411924-3.6355529-1.39121386-5.58-1.3-7 0-7 9.032-7 12v4c-.67351017.0060274-1.33447428.1828809-1.921.514-1.31172128-2.6501998-2.02164385-5.5575018-2.079-8.514 0-10.362 7.534-15 15-15zm-11 29c-.7970226.0030636-1.51922821-.4690211-1.83623646-1.2002941s-.1678517-1.5810949.37923646-2.1607059c.37341765-.4095018.90281112-.6416792 1.457-.639v2c.00503019.6696529.05850311 1.3380644.16 2.0000148zm2-2v-8c0-4.656.568-10 5-10 1.6247883-.0900883 3.2416892.2837897 4.662 1.078 2.0553452 1.2300897 4.6206548 1.2300897 6.676 0 1.4203108-.7942103 3.0372117-1.1680883 4.662-1.078 4.432 0 5 5.344 5 10v8c-.0071648 6.624447-5.375553 11.9928352-12 12h-2c-6.624447-.0071648-11.9928352-5.375553-12-12zm12 14h2c.338 0 .668-.027 1-.051v2.051c.0216252 1.2128932.5645293 2.3577286 1.49 3.142-1.0491052.6340284-2.2665047.9333203-3.49.858-1.2238146.0747398-2.4414908-.2237513-3.492-.856.9267354-.7843568 1.4704461-1.9300851 1.492-3.144v-2.051c.332.024.662.051 1 .051zm-12.945 15c.561-5.033 5.359-7.627 8.6-8.817.73.759 2.294 1.817 5.345 1.817s4.615-1.058 5.347-1.818c3.239 1.19 8.037 3.784 8.592 8.818z"/><path id="Shape" d="m7.949 35.684c-.12039143-.3615558-.43580855-.6232603-.81337178-.6748621-.37756322-.0516017-.75163602.1158699-.96462822.4318621-1.22543884 1.6185912-3.14085669 2.5664841-5.171 2.559-.34661803-.0001616-.6685998.1791823-.85093159.4739691-.1823318.2947867-.19900673.6629693-.04406841.9730309.59631228 1.1271679 1.59915914 1.9852187 2.805 2.4-.06773738.5298516-.28134689 1.0304665-.617 1.446-.28590792.2859943-.37142191.7160366-.21667798 1.0896546.15474393.3736179.51928208.6172591.92367798.6173454.1073623-.0002469.21401109-.0174592.316-.051 1.17552902-.4355343 2.24586706-1.1143351 3.141-1.992 1.92784022-1.8965634 2.51742605-4.7705967 1.492-7.273zm-2.99 5.975c.02537907-.218781.0390652-.4387604.041-.659 0-.5522847-.44771525-1-1-1-.32818682-.0018356-.65055541-.0868143-.937-.247 1.22406376-.3058074 2.36422939-.8815278 3.337-1.685.08507809 1.352946-.44429464 2.6721531-1.441 3.591z"/><path id="Shape" d="m44.408 43c-2.0299744.0079557-3.9452875-.9400687-5.17-2.559-.2128392-.3165834-.5872545-.4844948-.9652229-.4328667-.3779685.051628-.6936371.3138004-.8137771.6758667-1.0248588 2.5024563-.4353397 5.3761645 1.492 7.273.8951329.8776649 1.965471 1.5564657 3.141 1.992.1019889.0335408.2086377.0507531.316.051.4043959-.0000863.7689341-.2437275.923678-.6173454.1547439-.373618.0692299-.8036603-.216678-1.0896546-.3357494-.4153719-.5490661-.916112-.616-1.446 1.2041755-.4155196 2.2052009-1.2735414 2.8-2.4.1546231-.3094256.1383551-.6767868-.043014-.9713335-.1813691-.2945466-.50208-.4744452-.847986-.4756665zm-3 2c-.5522847 0-1 .4477153-1 1 0 .073 0 .318.04.659-.9947534-.9199892-1.5228247-2.2386986-1.438-3.591.9721874.8032082 2.1116425 1.3789148 3.335 1.685-.2864446.1601857-.6088132.2451644-.937.247z"/><path id="Shape" d="m20 23c1.6568542 0 3-1.3431458 3-3 0-.5522847-.4477153-1-1-1s-1 .4477153-1 1-.4477153 1-1 1-1 .4477153-1 1 .4477153 1 1 1z"/><path id="Shape" d="m28 23c.5522847 0 1-.4477153 1-1s-.4477153-1-1-1-1-.4477153-1-1-.4477153-1-1-1-1 .4477153-1 1c0 1.6568542 1.3431458 3 3 3z"/><path id="Shape" d="m20 29c.0004872-.2684473-.1077347-.5256547-.3-.713.1957102-.4009103.2982658-.8408738.3-1.287 0-1.6568542-1.3431458-3-3-3s-3 1.3431458-3 3c.001872.44611.1044206.8860432.3 1.287-.2893174.2845141-.3780242.7156533-.2245299 1.0912758s.5187559.6212521.9245299.6217242h4c.5522847 0 1-.4477153 1-1zm-3-3c.5522847 0 1 .4477153 1 1s-.4477153 1-1 1-1-.4477153-1-1 .4477153-1 1-1z"/><path id="Shape" d="m28 27c.001872.44611.1044206.8860432.3 1.287-.2893174.2845141-.3780242.7156533-.2245299 1.0912758s.5187559.6212521.9245299.6217242h4c.405774-.0004721.7710356-.2461017.9245299-.6217242s.0647875-.8067617-.2245299-1.0912758c.1957102-.4009103.2982658-.8408738.3-1.287 0-1.6568542-1.3431458-3-3-3s-3 1.3431458-3 3zm3-1c.5522847 0 1 .4477153 1 1s-.4477153 1-1 1-1-.4477153-1-1 .4477153-1 1-1z"/><path id="Shape" d="m22 31c0 .5522847.4477153 1 1 1h2c.5522847 0 1-.4477153 1-1s-.4477153-1-1-1h-2c-.5522847 0-1 .4477153-1 1z"/><path id="Shape" d="m29 37c0-2.209139-1.790861-4-4-4h-2c-2.209139 0-4 1.790861-4 4 0 1.1045695.8954305 2 2 2h6c1.1045695 0 2-.8954305 2-2zm-6-2h2c1.1045695 0 2 .8954305 2 2h-6c0-1.1045695.8954305-2 2-2z"/></g></g></svg>