<svg height="512" viewBox="0 0 48 61" width="512" xmlns="http://www.w3.org/2000/svg"><g id="Page-1" fill="none" fill-rule="evenodd"><g id="019---Nose-Bleed" fill="rgb(0,0,0)" fill-rule="nonzero"><path id="Shape" d="m47.989 34.355c.0963091-2.7112152-.9130698-5.3452093-2.796581-7.297733-1.8835113-1.9525237-4.4794941-3.0559928-7.192419-3.057267h-.28c-.4937387.0255634-.9296391-.3195601-1.018-.806-.4325871-2.5364337-1.0183251-5.044354-1.754-7.51-.139-.422-.3-1.028-.493-1.755-1.202-4.521-3.703-13.929-10.455-13.929s-9.253 9.408-10.455 13.929c-.193.727-.354 1.333-.493 1.753-.7247554 2.4711007-1.3096827 4.9810797-1.752 7.518-.1053318.4875056-.5489478.8264673-1.047.8h-.253c-2.71292494.0012742-5.3089077 1.1047433-7.19241896 3.057267-1.88351125 1.9525237-2.89289019 4.5865178-2.79658104 7.297733.22933818 4.9807432 4.05664969 9.0500746 9.014 9.584-1.352 2.212-2.025 3.883-2.025 5.061.00000007 3.3137084 2.68629155 5.9999999 6 5.9999999 3.3137084 0 5.9999999-2.6862915 6-5.9999999 0-.035-.009-.076-.01-.112 1.559093.7601313 3.2757218 1.1411476 5.01 1.112 4.4796852.1860287 8.5474807-2.5985493 9.995-6.842 1.2001692.529538 2.4934641.8157283 3.805.842h.185c5.3786629-.0192267 9.7883083-4.2706292 10.004-9.645zm-34.989 18.645c-2.209139 0-4-1.790861-4-4 0-.459.26-1.911 2.668-5.479.488-.723.961-1.375 1.334-1.878.175.234.37.5.578.789l.169.239c.051.071.1.146.154.22.5337344 1.4980764 1.3666197 2.8719289 2.448 4.038.3539521.63943.5747238 1.3439265.649 2.071 0 2.209139-1.790861 4-4 4zm24.839-11c-1.1228402-.0257404-2.2273296-.2902725-3.24-.776.2548848-1.0520011.3890835-2.1296168.4-3.212-.029542-.2744292.0659629-.5475858.2600654-.7438212.1941024-.1962355.4661989-.2947199.7409346-.2681788.8276815-.0432642 1.643525.2110662 2.3.717.3985064.3506401 1.0015362.3288293 1.37367-.049684.3721338-.3785132.3836925-.9818266.02633-1.374316-1.023374-.8869696-2.346923-1.3494963-3.7-1.293-.8027002-.0237684-1.5796498.2846632-2.1474933.8525067s-.8762751 1.3447931-.8525067 2.1474933c-.037322 1.2146157-.2346909 2.4190028-.587 3.582v.009c-.871 2.871-3.025 6.409-8.413 6.409-3.6996372.1876901-7.0584757-2.1489826-8.169-5.683-.0131952-.0430156-.0292304-.085108-.048-.126-.4781098-1.3475788-.7423083-2.7616989-.783-4.191.0234737-.8026156-.2850527-1.5793921-.8528303-2.1471697s-1.3445541-.876304-2.1471697-.8528303c-1.35546-.0583036-2.68184133.4043376-3.707 1.293-.38658818.3856403-.38926855 1.0110603-.006 1.4.38341523.390809 1.0088181.4036902 1.408.029.6570317-.5090244 1.4749835-.7652332 2.305-.722.2725415-.0267493.5427363.0699799.7363782.2636218s.2903711.4638367.2636218.7363782c0 .315.019.658.047 1.011-.016 0-.031-.011-.047-.011-.3032453.0007359-.5897753.1390353-.779.376-.04.049-.9 1.134-1.921 2.607-2.8856823.1019061-5.60204239-1.3602882-7.10606283-3.8251349-1.50402044-2.4648468-1.56191369-5.5492062-.15145012-8.0687576 1.41046356-2.5195515 4.07003906-4.0826517 6.95751295-4.0891075h.22c1.4805532.059792 2.7789687-.9801347 3.044-2.438.426556-2.4446872.9887577-4.8637566 1.684-7.246.151-.45.323-1.1.531-1.873 1.073-4.043 3.307-12.443 8.521-12.443s7.448 8.4 8.521 12.443c.208.777.38 1.423.531 1.875.7029241 2.3798867 1.2652289 4.7990659 1.684 7.245.2623263 1.4467601 1.5443814 2.4833786 3.014 2.437h.25c2.1704851.001064 4.2473792.8839997 5.7541752 2.4462328 1.506796 1.5622332 2.3141486 3.6696596 2.2368248 5.8387672-.2065205 4.3426757-3.8045403 7.7478183-8.152 7.715z"/><path id="Shape" d="m24 4c-3.258 0-5.232 5.855-6.59 10.958-.219.826-.405 1.512-.563 1.989-.6753702 2.2926848-1.215632 4.6230228-1.618 6.979-.1010032.5428822.2571403 1.0648763.8 1.166.0607429.010738.1223153.0160921.184.016.4812895-.0005357.8939243-.3438377.982-.817.3851863-2.2648444.9020629-4.5053109 1.548-6.71.164-.5.352-1.176.6-2.111 2.274-8.547 4.014-9.47 4.657-9.47.5522847 0 1-.44771525 1-1s-.4477153-1-1-1z"/><path id="Shape" d="m34.226 47.368c-.706.864-4.226 5.3-4.226 7.7 0 2.7614237 2.2385763 5 5 5s5-2.2385763 5-5c0-2.4-3.52-6.839-4.226-7.7-.1960796-.2218423-.4779236-.3488852-.774-.3488852s-.5779204.1270429-.774.3488852zm.774 10.632c-1.6362974.0172332-2.9780444-1.2927592-3-2.929 0-1.052 1.568-3.54 3-5.446 1.432 1.906 3 4.394 3 5.446-.0219556 1.6362408-1.3637026 2.9462332-3 2.929z"/><path id="Shape" d="m4 12c-.55228475 0-1 .4477153-1 1v4c-.00007741.3214436.15437125.6233283.41509465.8113424.26072341.1880141.59593279.2392338.90090535.1376576l1.684-.562v2.613c0 .5522847.44771525 1 1 1s1-.4477153 1-1v-4c.00007741-.3214436-.15437125-.6233283-.41509465-.8113424-.26072341-.1880141-.59593279-.2392338-.90090535-.1376576l-1.684.562v-2.613c0-.5522847-.44771525-1-1-1z"/><path id="Shape" d="m42 20v-2.613l1.684.562c.3049726.1015762.6401819.0503565.9009053-.1376576.2607235-.1880141.4151721-.4898988.4150947-.8113424v-4c0-.5522847-.4477153-1-1-1s-1 .4477153-1 1v2.613l-1.684-.562c-.3049726-.1015762-.6401819-.0503565-.9009053.1376576-.2607235.1880141-.4151721.4898988-.4150947.8113424v4c0 .5522847.4477153 1 1 1s1-.4477153 1-1z"/></g></g></svg>