<svg height="512" viewBox="0 0 48 60" width="512" xmlns="http://www.w3.org/2000/svg"><g id="Page-1" fill="none" fill-rule="evenodd"><g id="018---Runny-Nose" fill="rgb(0,0,0)" fill-rule="nonzero"><path id="Shape" d="m37.72 24c-.4900919.0143557-.9195667-.3256802-1.018-.806-.4325871-2.5364337-1.0183251-5.044354-1.754-7.51-.139-.422-.3-1.028-.493-1.755-1.202-4.521-3.703-13.929-10.455-13.929s-9.253 9.408-10.455 13.929c-.193.727-.354 1.333-.493 1.753-.7247554 2.4711007-1.3096827 4.9810797-1.752 7.518-.0955057.4936678-.545584.8375672-1.047.8h-.253c-2.71292494.0012742-5.3089077 1.1047433-7.19241896 3.057267-1.88351125 1.9525237-2.89289019 4.5865178-2.79658104 7.297733.22424706 4.9749773 4.03897322 9.0451785 8.989 9.591v9.054c0 1.6568542 1.3431458 3 3 3 1.6529917-.0092882 2.9907118-1.3470083 3-3v-1c0-.5522847.4477153-1 1-1 .2696918-.0006712.5276905.1100548.713.306.1854514.1830903.2889672.4334037.287.694v5c0 1.6568542 1.3431458 3 3 3 1.6529917-.0092882 2.9907118-1.3470083 3-3v-7.057c.329.024.651.057 1 .057 4.4796852.1860287 8.5474807-2.5985493 9.995-6.842 1.2001692.529538 2.4934641.8157283 3.805.842h.185c5.377484-.0213851 9.7848986-4.2727772 10-9.646.0960077-2.7103518-.9129538-5.3434617-2.7955621-7.2956426-1.8826083-1.9521808-4.4773873-3.0559892-7.1894379-3.0583574zm-16.72 33c.0003954.2693445-.110308.526929-.306.712-.1823963.1865985-.4330776.2906276-.694.288-.5522847 0-1-.4477153-1-1v-5c-.0082058-1.6534434-1.3465566-2.9917942-3-3-1.6568542 0-3 1.3431458-3 3v1c.0003954.2693445-.110308.526929-.306.712-.1823963.1865985-.4330776.2906276-.694.288-.5522847 0-1-.4477153-1-1v-15.891c.328212-.0735926.6636405-.1101543 1-.109.2725415-.0267493.5427363.0699799.7363782.2636218s.2903711.4638367.2636218.7363782c0 3.626 1.756 10.073 8 11.645zm24.991-22.715c-.2014563 4.3449979-3.8025004 7.7530027-8.152 7.715-1.1228402-.0257404-2.2273296-.2902725-3.24-.776.2548848-1.0520011.3890835-2.1296168.4-3.212-.029542-.2744292.0659629-.5475858.2600654-.7438212.1941024-.1962355.4661989-.2947199.7409346-.2681788.8276815-.0432642 1.643525.2110662 2.3.717.3985064.3506401 1.0015362.3288293 1.37367-.049684.3721338-.3785132.3836925-.9818266.02633-1.374316-1.023374-.8869696-2.346923-1.3494963-3.7-1.293-.8027002-.0237684-1.5796498.2846632-2.1474933.8525067s-.8762751 1.3447931-.8525067 2.1474933c-.037322 1.2146157-.2346909 2.4190028-.587 3.582v.009c-.871 2.871-3.025 6.409-8.413 6.409-8.866 0-9-9.593-9-10 .0234737-.8026156-.2850527-1.5793921-.8528303-2.1471697s-1.3445541-.876304-2.1471697-.8528303c-.8191942-.0077402-1.6313773.1514981-2.387.468-.48334115.1943811-.92852195.4726615-1.315.822-.28529746.2838006-.37110566.7117275-.21728047 1.0835813.1538252.3718537.51686656.6141045.91928047.6134187v3.939c-3.86990107-.5243203-6.81189451-3.7398505-6.991-7.641-.0773238-2.1691076.73002878-4.276534 2.2368248-5.8387672 1.50679603-1.5622331 3.58369011-2.4451688 5.7541752-2.4462328h.22c1.4822935.0651043 2.7837726-.9772761 3.044-2.438.426556-2.4446872.9887577-4.8637566 1.684-7.246.151-.45.323-1.1.531-1.873 1.073-4.043 3.307-12.443 8.521-12.443s7.448 8.4 8.521 12.443c.208.777.38 1.423.531 1.875.7029241 2.3798867 1.2652289 4.7990659 1.684 7.245.2658352 1.4446769 1.5456838 2.4795114 3.014 2.437h.25c2.1704851.001064 4.2473792.8839997 5.7541752 2.4462328 1.506796 1.5622332 2.3141486 3.6696596 2.2368248 5.8387672z"/><path id="Shape" d="m24 4c-3.258 0-5.232 5.855-6.59 10.958-.219.826-.405 1.512-.563 1.989-.6753702 2.2926848-1.215632 4.6230228-1.618 6.979-.1010032.5428822.2571403 1.0648763.8 1.166.0607429.010738.1223153.0160921.184.016.4812895-.0005357.8939243-.3438377.982-.817.3851863-2.2648444.9020629-4.5053109 1.548-6.71.164-.5.352-1.176.6-2.111 2.274-8.547 4.014-9.47 4.657-9.47.5522847 0 1-.44771525 1-1s-.4477153-1-1-1z"/></g></g></svg>