<svg height="512" viewBox="0 0 54 60" width="512" xmlns="http://www.w3.org/2000/svg"><g id="Page-1" fill="none" fill-rule="evenodd"><g id="002---Sweats" fill="rgb(0,0,0)" fill-rule="nonzero"><path id="Shape" d="m12.7 53.262c-.8969928 1.3532127-1.4575656 2.9012163-1.635 4.515-.061672.566763.1207254 1.1329956.5016121 1.5571996.3808868.424204.9242795.6663039 1.4943879.6658004h27.878c.56976-.0000649 1.1126129-.2424109 1.4930555-.6665452.3804425-.4241342.5625786-.9900383.5009445-1.5564548-.1786174-1.6189445-.7423373-3.1715746-1.644-4.528 5.296386-.1964595 10.095212-3.1755263 12.621-7.835.1464535-.3285002.1052144-.7103439-.108-1-.2131352-.2923431-.5663582-.4483563-.926-.409-.783818.004366-1.5308455-.3321066-2.047-.922-1.162-1.176-2.943-4.555-1.836-13.969 1.155-9.832-.523-17.363-4.988-22.382-5.212-5.857-12.891-6.732-17.005-6.732s-11.793.875-17 6.735c-4.47 5.019-6.148 12.55-4.993 22.382 1.107 9.414-.674 12.793-1.836 13.969-.51245119.5848264-1.25142615.9213532-2.029.924-.36065547-.050933-.72048079.0982564-.93928745.389444-.21880665.2911876-.26198494.6783147-.11271255 1.010556 2.51454899 4.6673305 7.31207714 7.6546573 12.61 7.852zm.355 4.738c.226487-1.9138678 1.0921909-3.6953081 2.457-5.056.012-.013.025-.022.036-.035.6265452-.6378068 1.31872-1.2076359 2.065-1.7 1.467 1.228 4.323 2.791 9.387 2.791s7.919-1.563 9.387-2.8c.7473645.49556 1.4405135 1.06838 2.068 1.709l.025.025c1.3678153 1.3628262 2.2344442 3.1482439 2.459 5.066zm7.671-18.24c-.76294-1.6191118-1.768517-3.1123026-2.982-4.428-.1944343-.2026776-.463139-.3172599-.744-.3172599s-.5495657.1145823-.744.3172599c-.06.067-.15.169-.257.293-1.3109291-1.9601223-2.006972-4.2669179-1.999-6.625v-8c-.0053291-.5216783.3939459-.9585219.914-1 .45-.042.982-.1 1.548-.178.8387051 1.6428383 2.6948144 2.4958944 4.4877284 2.0625315 1.7929139-.4333628 3.054496-2.039992 3.0502716-3.8845315v-.024c2.9701826-1.0637681 5.6507562-2.8067574 7.828-5.09 1.888715 2.8626207 4.5282866 5.1507107 7.63 6.614.3299953.1699991.5386692.5088053.542.88v8.62c-.0017329 1.6063726-.3268593 3.1959548-.956 4.674-.128-.149-.231-.266-.3-.342-.1944343-.2026776-.463139-.3172599-.744-.3172599s-.5495657.1145823-.744.3172599c-.544.606-3.256 3.727-3.256 5.668 0 .124.026.241.037.363-1.8320473 1.0702035-3.9152721 1.6350931-6.037 1.637h-2c-1.8299578-.0023224-3.634727-.4266519-5.274-1.24zm-1.726 1.24c0 1.1045695-.8954305 2-2 2s-2-.8954305-2-2c0-.637.939-2.125 2-3.451.8247793.9516852 1.4869948 2.0328532 1.96 3.2 0 .015 0 .032.007.047.0178043.0667232.0288599.1350664.033.204zm-6.844-9.9999852-.156-.0000148c-.7970226.0030636-1.5192282-.4690211-1.8362365-1.2002941-.31700821-.731273-.16785166-1.5810949.3792365-2.1607059.3734177-.4095018.9028111-.6416792 1.457-.639v2c.0037968.6695523.0559324 1.3379568.156 2.0000148zm9.844-13.0000148c0 1.1045695-.8954305 2-2 2s-2-.8954305-2-2c0-.637.939-2.125 2-3.451 1.063 1.332 2 2.831 2 3.451zm14 21c0-.637.939-2.125 2-3.451 1.063 1.332 2 2.831 2 3.451 0 1.1045695-.8954305 2-2 2s-2-.8954305-2-2zm6-10v-2c.4489866.0005408.8843327.1543583 1.234.436.4876282.3714132.7715205.9510575.766 1.564 0 1.1045695-.8954305 2-2 2h-.149c.09778-.662207.1475763-1.3306145.149-2zm-17 16v-2.06c.333.023.663.06 1 .06h2c.335 0 .668-.013 1-.036v2.036c.1009957 1.6601499 1.0718863 3.1432966 2.553 3.9.0423349.0210749.0861114.0391202.131.054.9706471.3225648 1.9173302.7132011 2.833 1.169-1.342.91-3.67 1.877-7.517 1.877s-6.175-.967-7.517-1.883c.9158664-.4550848 1.8625223-.8453756 2.833-1.168.0448886-.0148798.0886651-.0329251.131-.054 1.4796408-.7558097 2.4502839-2.2366772 2.553-3.895zm-20.485-.43c2.573-2.51 3.407-7.788 2.478-15.687-1.085-9.24.428-16.244 4.5-20.819 4.689-5.276 11.729-6.064 15.507-6.064s10.818.788 15.511 6.064c4.068 4.575 5.581 11.579 4.5 20.819-.929 7.9-.095 13.177 2.478 15.687.5393826.53624 1.1910493.9460933 1.908 1.2-2.6569655 3.7904841-7.1257072 5.8864797-11.739 5.506-2.0860433-1.9089681-4.5627496-3.3408033-7.258-4.196-.7839183-.4169422-1.3088179-1.196793-1.4-2.08v-2.326c1.2999274-.2874634 2.5522058-.7588776 3.719-1.4.9943085 1.4380377 2.8081665 2.0624942 4.4769828 1.5412899 1.6688163-.5212042 2.8048692-2.0669761 2.8040172-3.8152899-.1996146-1.3065644-.7455286-2.5358203-1.581-3.56.4058636-.7802085.7366833-1.5972127.988-2.44h.593c2.209139 0 4-1.790861 4-4 .0089096-1.2329401-.5626388-2.3982617-1.543-3.146-.7009839-.55045-1.5657286-.8510165-2.457-.854v-4.62c-.0007946-1.1346091-.641621-2.1716953-1.656-2.68-5.655-2.8-7.4-6.929-7.416-6.967-.1355285-.3345656-.4408471-.5701222-.7988521-.6163231s-.7131222.1041259-.9291479.3933231c-2.026265 2.5425909-4.7262173 4.4646437-7.792 5.547-.7421372-1.3397668-1.6360198-2.5896589-2.664-3.725-.1944343-.2026776-.463139-.3172599-.744-.3172599s-.5495657.1145823-.744.3172599c-.532.593-3.134 3.591-3.246 5.538-.464.059-.9.108-1.278.144-1.5507886.1289997-2.7410127 1.4298814-2.732 2.986v4c-2.209139 0-4 1.790861-4 4s1.790861 4 4 4h.6c.4561102 1.5291691 1.1700409 2.9692057 2.111 4.258-.8965304 1.0707297-1.4876276 2.3634741-1.711 3.742-.0061911 2.0118751 1.486086 3.7138028 3.4815107 3.9706296s3.8700298-1.0117568 4.3734893-2.9596296c.696367.2737127 1.4136977.4907513 2.145.649v2.34c-.091354.8831447-.6162041 1.662922-1.4 2.08-2.6931643.8540856-5.168129 2.2841941-7.253 4.191-4.61382339.381885-9.08352755-1.7143834-11.74-5.506.71649284-.2524431 1.36812167-.6605649 1.908-1.195z"/><path id="Shape" d="m34 31c1.6568542 0 3-1.3431458 3-3 .5522847 0 1-.4477153 1-1s-.4477153-1-1-1c-.4104604-.015362-.8187385-.0672334-1.22-.155h-.01c-1.1487057-.2142886-2.2123757-.7520213-3.066-1.55-.3923789-.3789722-1.0160848-.3735524-1.4018186.0121814s-.3911536 1.0094397-.0121814 1.4018186c.134.134.272.259.413.378-.7510553.8902956-.9160833 2.1359688-.4227628 3.1911205.4933205 1.0551518 1.5549963 1.7272978 2.7197628 1.7218795zm1-3c0 .5522847-.4477153 1-1 1s-1-.4477153-1-1c.0009814-.3328691.169346-.6429155.448-.825.4858271.2207576.9900961.3984396 1.507.531.0296895.0951817.04486.1942954.045.294z"/><path id="Shape" d="m22.707 24.293c-.3904999-.3903819-1.0235001-.3903819-1.414 0-.8544637.7979022-1.9187455 1.3355935-3.068 1.55-.4028406.0887236-.8128048.141266-1.225.157-.5522847 0-1 .4477153-1 1s.4477153 1 1 1c-.008065 1.328459.8585393 2.5040224 2.1299316 2.8892884s2.6447647-.1115243 3.3754613-1.2210065c.7306967-1.1094822.6446874-2.5674104-.2113929-3.5832819.141-.119.279-.244.413-.378.3903819-.3904999.3903819-1.0235001 0-1.414zm-1.707 3.707c.0010216.3936887-.2290437.7513428-.587718.9136528-.3586744.1623099-.7792063.0990688-1.0742785-.1615539s-.40977-.6701236-.2930035-1.0460989c.5169039-.1325604 1.0211729-.3102424 1.507-.531.278654.1820845.4470186.4921309.448.825z"/><path id="Shape" d="m30 36c0-1.6568542-1.3431458-3-3-3s-3 1.3431458-3 3 1.3431458 3 3 3 3-1.3431458 3-3zm-4 0c0-.5522847.4477153-1 1-1s1 .4477153 1 1-.4477153 1-1 1-1-.4477153-1-1z"/><path id="Shape" d="m26 32h2c.5522847 0 1-.4477153 1-1s-.4477153-1-1-1h-2c-.5522847 0-1 .4477153-1 1s.4477153 1 1 1z"/></g></g></svg>