<svg height="512" viewBox="0 0 60 45" width="512" xmlns="http://www.w3.org/2000/svg"><g id="Page-1" fill="none" fill-rule="evenodd"><g id="009---Bloodshot-Eyes" fill="rgb(0,0,0)" fill-rule="nonzero"><path id="Shape" d="m11.768 37.931c.0725049.0760191.1565353.1401388.249.19 5.021 3.746 11.234 6.879 17.983 6.879s12.962-3.133 17.983-6.879c.0924647-.0498612.1764951-.1139809.249-.19 4.1697241-3.2151529 7.9137443-6.947412 11.142-11.107.8298313-1.0744252.8298313-2.5735748 0-3.648-1.6252065-2.0891-3.378581-4.0752559-5.25-5.947-.8-.8-1.669-1.63-2.6-2.458l-.016-.014c-5.478-4.869-13.076-9.757-21.508-9.757s-16.027 4.886-21.5 9.754l-.021.019c-.93.827-1.795 1.652-2.6 2.454-1.87277752 1.872049-3.62717195 3.8588932-5.253 5.949-.82983126 1.0744252-.82983126 2.5735748 0 3.648 3.22825575 4.159588 6.97227586 7.8918471 11.142 11.107zm46.024-12.331c-.509.658-1.233 1.559-2.14 2.6.4653291-2.1113315.4653291-4.2986685 0-6.41.908 1.045 1.633 1.946 2.142 2.605.2780574.353804.2772303.8521209-.002 1.205zm-8.876-10.447-2.289.919c-.3788649.1523085-.6270689.5196662-.627.928v1.586l-.707.707c-.2599566.2510745-.3642126.6228779-.2726972.9725073.0915155.3496295.3645604.6226744.7141899.7141899.3496294.0915154.7214328-.0127406.9725073-.2726972l1-1c.1875494-.1874927.2929434-.4418052.293-.707v-1.324l2.607-1.047c.688.625 1.342 1.249 1.955 1.859.192.477.5 1.3.8 2.342.2996693 1.0351552.4992518 2.096693.596 3.17h-1.658l-2.748-1.832c-.4595009-.306518-1.0804819-.1825009-1.387.277-.306518.4595009-.1825009 1.080482.277 1.387l3 2c.1653518.1098251.3594988.168278.558.168h1.956c-.1675914 1.6415278-.5453492 3.2547286-1.124 4.8l-3.015-1.507-.869-2.607c-.0492716-.147097-.1317327-.2808825-.241-.391l-1-1c-.3923789-.3789722-1.0160848-.3735524-1.4018186.0121814s-.3911536 1.0094397-.0121814 1.4018186l.833.833.609 1.827-2.051.684c-.5246705.174522-.8085219.7413295-.634 1.266.174522.5246705.7413295.808522 1.266.634l2.607-.869 2.7 1.348c-1.3466976 1.2883644-2.7596131 2.5056814-4.233 3.647l-1.794-.9-.886-.885c-.3923789-.3789722-1.0160848-.3735524-1.4018186.0121814s-.3911536 1.0094397-.0121814 1.4018186l1 1c.0762928.0758885.1640278.1393277.26.188l1.022.511c-4.5 3.13-9.854 5.593-15.578 5.593s-11.078-2.463-15.575-5.594l1.022-.511c.0959722-.0486723.1837072-.1121115.26-.188l1-1c.3789722-.3923789.3735524-1.0160848-.0121814-1.4018186s-1.0094397-.3911536-1.4018186-.0121814l-.886.885-1.794.9c-1.4734606-1.1422915-2.88637748-2.3606111-4.233-3.65l2.7-1.348 2.607.869c.5246705.174522 1.091478-.1093295 1.266-.634.1745219-.5246705-.1093295-1.091478-.634-1.266l-2.051-.684.609-1.827.833-.833c.3789722-.3923789.3735524-1.0160848-.0121814-1.4018186s-1.0094397-.3911536-1.4018186-.0121814l-1 1c-.1092673.1101175-.1917284.243903-.241.391l-.869 2.607-3.018 1.511c-.57865075-1.5452714-.9564086-3.1584722-1.124-4.8h1.956c.19747937-.0003124.39049934-.0587401.555-.168l3-2c.297245-.1982824.4661282-.5400812.4430331-.8966441s-.2346599-.6737195-.555-.832c-.32034-.1582805-.7007881-.1336383-.9980331.0646441l-2.745 1.832h-1.658c.09509681-1.0699591.29198763-2.1284146.588-3.161.306-1.051.616-1.874.808-2.351.613-.61 1.267-1.234 1.955-1.859l2.607 1.047v1.324c.0000566.2651948.1054506.5195073.293.707l1 1c.3923789.3789722 1.0160848.3735524 1.4018186-.0121814s.3911536-1.0094397.0121814-1.4018186l-.707-.707v-1.586c.0000689-.4083338-.2481351-.7756915-.627-.928l-2.289-.919c5.064-4.236 11.696-8.153 18.916-8.153s13.852 3.917 18.916 8.153zm-46.708 9.247c.509-.659 1.233-1.56 2.142-2.6-.4653422 2.1109928-.4653422 4.2980072 0 6.409-.907-1.044-1.631-1.945-2.14-2.6-.28133818-.3536386-.28216663-.8544325-.002-1.209z"/><path id="Shape" d="m3.739 12.673c14.6154759-14.23077112 37.9065241-14.23077112 52.522 0 .3737466.3988871.998529.4237578 1.4027998.0558413s.4382091-.9922719.0762002-1.4018413c-7.3844142-7.29626864-17.3590883-11.3692006-27.74-11.327-10.3809117-.0422006-20.35558577 4.03073136-27.74 11.327-.36200886.4095694-.32807063 1.0339248.0762002 1.4018413s1.02905315.3430458 1.4027998-.0558413z"/><path id="Shape" d="m30 39c7.7319865 0 14-6.2680135 14-14s-6.2680135-14-14-14-14 6.2680135-14 14c.0082673 7.7285595 6.2714405 13.9917327 14 14zm0-26c6.627417 0 12 5.372583 12 12s-5.372583 12-12 12-12-5.372583-12-12c.0071648-6.624447 5.375553-11.9928352 12-12z"/><path id="Shape" d="m30 31c3.3137085 0 6-2.6862915 6-6s-2.6862915-6-6-6-6 2.6862915-6 6c.0033074 3.3123376 2.6876624 5.9966926 6 6zm0-10c2.209139 0 4 1.790861 4 4s-1.790861 4-4 4-4-1.790861-4-4 1.790861-4 4-4z"/></g></g></svg>