<svg height="512" viewBox="0 0 46 60" width="512" xmlns="http://www.w3.org/2000/svg"><g id="Page-1" fill="none" fill-rule="evenodd"><g id="033---Rash" fill="rgb(0,0,0)" fill-rule="nonzero"><path id="Shape" d="m45 0h-22c-.1974794.00031242-.3904993.05874008-.555.168-.374.249-9.1 6.145-12.275 15.169-1.48859174 1.0678357-2.58458673 2.5956927-3.119 4.348-.80901341 1.9691618-.40898007 4.2283569 1.027 5.8 1.09050455 5.166491 2.7774772 10.1888171 5.027 14.966 2.173 4.345 3.044 7.71 2.454 9.476-.1531355.5185116-.5186329.9479529-1.006 1.182-.9389967.3790738-1.9046011.6885752-2.889.926-3.427.947-6.664 1.846-6.664 3.965.09533989 2.1684208 1.83157925 3.9046601 4 4 1.9285557.0862572 3.8591808-.115973 5.728-.6 1.0639319-.2991855 2.1673273-.4340749 3.272-.4.7104556.0222942 1.4134331.1521006 2.085.385 1.2651589.4070026 2.5859861.6144888 3.915.615 1.6460194.0427489 3.19186-.7883687 4.064-2.185 1.04-1.683.978-3.965-.17-6.263-2.0513225-4.2151373-3.0446404-8.8666383-2.894-13.552.0257104-1.0553344.1081628-2.1085222.247-3.155.386-3.438.863-7.69-1.869-11.768.6372165-1.9145053 2.1049604-3.4388422 3.994-4.148.507-.2 1.058-.407 1.64-.622 5.261-1.944 13.211-4.882 16.944-17.013.0933051-.30333848.0370829-.63295854-.1515001-.8882163s-.4871356-.40584545-.8044999-.4057837zm-16.681 16.431c-.6.221-1.167.431-1.692.641-2.0251223.7838828-3.6881051 2.2901149-4.668 4.228-.7239048-.7671283-1.5132178-1.4697808-2.359-2.1-.2858125-.2143594-.6642734-.2599564-.9928203-.1196152-.3285469.1403411-.5572656.4452994-.6.8-.0427344.3547005.1070078.7052558.3928203.9196152 1.1662023.8543469 2.1997063 1.8763937 3.067 3.033l.01.013c2.592 3.573 2.162 7.4 1.783 10.777-.7974952 6.0909679.1890363 12.2824948 2.84 17.824.832 1.663.926 3.236.258 4.317-.5131473.7988785-1.4090684 1.2684962-2.358 1.236-1.1406709.0004876-2.2741612-.1804388-3.358-.536-.8523679-.2864673-1.743029-.4428892-2.642-.464-1.2740793-.0367554-2.5464091.1189988-3.774.462-1.7049548.4415532-3.466845.6229342-5.226.538-1.04826821-.0954316-1.88574692-.9132885-2.006-1.959.287-.718 3.734-1.675 5.205-2.083 1.1094391-.2632995 2.195413-.6171525 3.247-1.058.9626958-.4701663 1.6895784-1.3156646 2.01-2.338.781-2.34-.081-6.042-2.562-11.005-2.2141626-4.7080241-3.8636234-9.6614416-4.914-14.757-.03806715-.1937244-.13313036-.3716632-.273-.511-1.06740458-1.0324472-1.37080739-2.6243113-.758-3.977.38770215-1.4073194 1.2769358-2.6241468 2.5-3.421.2368204-.1191007.4166625-.3273579.5-.579 2.584-7.748 9.939-13.293 11.365-14.312h20.3c-3.573 10.1-10.314 12.591-15.295 14.431z"/><path id="Shape" d="m20.105 15.553c-.2468713.4942948-.0462948 1.0951287.448 1.342.4942949.2468713 1.0951287.0462948 1.342-.448.028-.057 2.923-5.772 7.62-8.59.4622053-.28924015.6075113-.89543155.3266637-1.36278388-.2808477-.46735233-.8843167-.62357974-1.3566637-.35121612-5.185 3.113-8.252 9.157-8.38 9.41z"/><path id="Shape" d="m17.445 25.168c-.2206869.1471733-.3738581.3759984-.4258077.6361213-.0519495.2601229.0015795.5302285.1488077.7508787 1.805 2.707 1.832 7.399 1.832 7.445 0 .5522847.4477153 1 1 1s1-.4477153 1-1c0-.216-.024-5.34-2.168-8.555-.1471733-.2206869-.3759984-.3738581-.6361213-.4258077-.2601229-.0519495-.5302285.0015795-.7508787.1488077z"/><path id="Shape" d="m21 52v1c0 .5522847.4477153 1 1 1s1-.4477153 1-1v-1c0-.5522847-.4477153-1-1-1s-1 .4477153-1 1z"/><circle id="Oval" cx="19" cy="41" r="1"/><circle id="Oval" cx="21" cy="47" r="1"/><circle id="Oval" cx="15" cy="20" r="1"/><circle id="Oval" cx="18" cy="13" r="1"/><circle id="Oval" cx="25" cy="5" r="1"/><circle id="Oval" cx="38" cy="6" r="1"/><circle id="Oval" cx="30" cy="12" r="1"/><circle id="Oval" cx="34" cy="8" r="1"/><circle id="Oval" cx="22" cy="9" r="1"/><circle id="Oval" cx="13" cy="25" r="1"/><circle id="Oval" cx="16" cy="31" r="1"/><path id="Shape" d="m6.293 43.707c.21029096.2155472.50740454.3234212.807.293.29787265-.0295676.56683543-.1910187.733-.44l2-3c.1982824-.297245.2229246-.6776931.0646441-.9980331-.1582805-.3203401-.4754371-.5319049-.832-.555s-.6983617.1457881-.8966441.4430331l-1.324 1.98-1.138-1.137c-.21065844-.2139384-.5074652-.3199934-.806-.288-.29787265.0295676-.56683543.1910187-.733.44l-2 3c-.30651801.4595009-.18250087 1.0804819.27700002 1.387.4595009.306518 1.08048193.1825009 1.38699998-.277l1.323-1.985z"/><path id="Shape" d="m4.293 35.707c.21178551.2118265.50737385.3175606.80546245.2881198.29808859-.0294409.56728196-.1909559.73353755-.4401198l2-3c.30651804-.4595009.18250091-1.080482-.277-1.387s-1.08048196-.1825009-1.387.277l-1.323 1.985-1.138-1.137c-.21178551-.2118265-.50737385-.3175606-.80546245-.2881198-.29808859.0294409-.56728196.1909559-.73353755.4401198l-2 3c-.30651801.4595009-.18250087 1.0804819.27700002 1.387.4595009.306518 1.08048193.1825009 1.38699998-.277l1.323-1.985z"/><path id="Shape" d="m8.419 5.219c-.14191742-.26404353-.39480155-.45049511-.689-.508l-3.538-.692c-.53405044-.08916453-1.04206258.26291146-1.14605989.79427268-.1039973.53136123.23379977 1.04897785.76205989 1.16772732l2.341.458-.612 1.488c-.11401587.27705924-.09780123.59064253.04418234.85446465.14198356.26382211.39477542.45008448.68881766.50753535l3.538.692c.06322497.01259483.12753276.01895863.192.019.5139653-.0015343.943073-.39242944.9923989-.90402464.049326-.51159519-.2971944-.97727325-.8013989-1.07697536l-2.341-.458.612-1.488c.11423278-.27675018.098454-.59012398-.043-.854z"/></g></g></svg>