<svg id="icons" height="512" viewBox="0 0 48 48" width="512" xmlns="http://www.w3.org/2000/svg"><path d="m5 44h38a1 1 0 0 0 1-1v-24a1 1 0 0 0 -1-1h-5v-9a1 1 0 0 0 -1-1h-5v-1a3 3 0 0 0 -3-3h-10a3 3 0 0 0 -3 3v1h-5a1 1 0 0 0 -1 1v9h-5a1 1 0 0 0 -1 1v24a1 1 0 0 0 1 1zm33-24h4v22h-4zm-11 22h-6v-7h6zm-9-35a1 1 0 0 1 1-1h10a1 1 0 0 1 1 1v10a1 1 0 0 1 -1 1h-10a1 1 0 0 1 -1-1zm-6 3h4v7a3 3 0 0 0 3 3h10a3 3 0 0 0 3-3v-7h4v32h-7v-8a1 1 0 0 0 -1-1h-8a1 1 0 0 0 -1 1v8h-7zm-6 10h4v22h-4z"/><path d="m21 13h2v2a1 1 0 0 0 2 0v-2h2a1 1 0 0 0 0-2h-2v-2a1 1 0 1 0 -2 0v2h-2a1 1 0 0 0 0 2z"/><path d="m17 25h2a1 1 0 0 0 0-2h-2a1 1 0 0 0 0 2z"/><path d="m20 29a1 1 0 0 0 -1-1h-2a1 1 0 0 0 0 2h2a1 1 0 0 0 1-1z"/><path d="m23 25h2a1 1 0 0 0 0-2h-2a1 1 0 0 0 0 2z"/><path d="m23 30h2a1 1 0 0 0 0-2h-2a1 1 0 0 0 0 2z"/><path d="m29 25h2a1 1 0 0 0 0-2h-2a1 1 0 0 0 0 2z"/><path d="m29 30h2a1 1 0 0 0 0-2h-2a1 1 0 0 0 0 2z"/></svg>