<?xml version="1.0"?>
<svg xmlns="http://www.w3.org/2000/svg" xmlns:xlink="http://www.w3.org/1999/xlink" xmlns:svgjs="http://svgjs.com/svgjs" version="1.1" width="512" height="512" x="0" y="0" viewBox="0 0 48 48" style="enable-background:new 0 0 512 512" xml:space="preserve"><g><g xmlns="http://www.w3.org/2000/svg"><path d="m24 0c-5.747 0-10.421 4.676-10.421 10.424 0 5.75 4.675 10.427 10.421 10.427s10.422-4.677 10.422-10.427c0-5.748-4.676-10.424-10.422-10.424z" fill="#ffffff" data-original="#000000" style=""/><path d="m32.053 23.793c.371 1.605.957 4.523.762 6.215 1.533 1.359 5.555 5.365 4.68 9.318-.006.047-.42 2.32-3.24 3.285-.107.037-.217.055-.324.055-.416 0-.803-.262-.945-.678-.18-.523.1-1.092.623-1.27 1.678-.574 1.922-1.764 1.926-1.775.598-2.711-2.402-6.002-4.07-7.465-1.996.969-5.77 3.346-5.916 6.068-.006.084-.068 1.289 1.375 2.271.457.311.576.934.264 1.391-.193.283-.508.438-.826.438-.195 0-.391-.057-.563-.174-2.467-1.678-2.254-3.986-2.245-4.084.227-4.225 5.749-7.104 7.29-7.828.092-1.5-.531-4.598-.99-6.348-.014-.055-.004-.108-.01-.163-1.455-.396-2.98-.626-4.561-.626h-2.567c-1.77 0-3.478.27-5.089.763-.017.071-.021.145-.056.214-.022.045-2.187 4.539-3.222 11.412 1.739.48 3.027 2.059 3.027 3.947 0 2.266-1.844 4.109-4.109 4.109-2.267 0-4.111-1.844-4.111-4.109 0-1.943 1.361-3.568 3.178-3.992.703-4.842 1.929-8.529 2.713-10.541-5.768 2.844-9.756 8.771-9.756 15.627v7.147c0 .553.447 1 1 1h35.422c.553 0 1-.461 1-1.014v-7.133c-.002-7.21-4.402-13.412-10.66-16.06z" fill="#ffffff" data-original="#000000" style=""/></g></g></svg>
