<?xml version="1.0" encoding="iso-8859-1"?>
<!-- Generator: Adobe Illustrator 16.0.0, SVG Export Plug-In . SVG Version: 6.00 Build 0)  -->
<!DOCTYPE svg PUBLIC "-//W3C//DTD SVG 1.1//EN" "http://www.w3.org/Graphics/SVG/1.1/DTD/svg11.dtd">
<svg version="1.1" id="Capa_1" xmlns="http://www.w3.org/2000/svg" xmlns:xlink="http://www.w3.org/1999/xlink" x="0px" y="0px"
	 viewBox="0 0 106.059 106.059" style="enable-background:new 0 0 106.059 106.059;"
	 xml:space="preserve">
<g>
	<path d="M90.545,90.542c20.686-20.685,20.684-54.342,0.002-75.024C69.857-5.172,36.198-5.172,15.514,15.513
		C-5.173,36.198-5.171,69.858,15.516,90.547C36.198,111.23,69.857,111.23,90.545,90.542z M21.301,21.3
		C38.794,3.807,67.261,3.805,84.759,21.302c17.494,17.494,17.492,45.962-0.002,63.455c-17.494,17.494-45.962,17.496-63.456,0.002
		C3.803,67.263,3.805,38.794,21.301,21.3z"/>
	<path d="M28.651,41.818h13.372c1.738,0,3.147-1.409,3.147-3.146c0-1.738-1.409-3.147-3.147-3.147H28.651
		c-1.738,0-3.147,1.409-3.147,3.147C25.504,40.409,26.913,41.818,28.651,41.818z"/>
	<path d="M64.033,41.819h13.372c1.738,0,3.147-1.409,3.147-3.146c0-1.738-1.409-3.147-3.147-3.147H64.033
		c-1.736,0-3.146,1.409-3.146,3.147C60.887,40.41,62.297,41.819,64.033,41.819z"/>
	<path d="M30.423,71.029c0,1.921,1.558,3.479,3.479,3.479h38.259c1.922,0,3.479-1.558,3.479-3.479s-1.558-3.478-3.479-3.478h-38.26
		C31.98,67.552,30.423,69.108,30.423,71.029z"/>
</g>
<g>
</g>
<g>
</g>
<g>
</g>
<g>
</g>
<g>
</g>
<g>
</g>
<g>
</g>
<g>
</g>
<g>
</g>
<g>
</g>
<g>
</g>
<g>
</g>
<g>
</g>
<g>
</g>
<g>
</g>
</svg>
