<?xml version="1.0" encoding="iso-8859-1"?>
<!-- Generator: Adobe Illustrator 19.0.0, SVG Export Plug-In . SVG Version: 6.00 Build 0)  -->
<svg version="1.1" id="Capa_1" xmlns="http://www.w3.org/2000/svg" xmlns:xlink="http://www.w3.org/1999/xlink" x="0px" y="0px"
	 viewBox="0 0 368 368" style="enable-background:new 0 0 368 368;" xml:space="preserve">
<g>
	<g>
		<g>
			<path d="M184,224c-29.824,0-58.24,12.632-77.96,34.664c-2.944,3.296-2.664,8.352,0.624,11.296
				c3.296,2.952,8.344,2.664,11.296-0.624C134.648,250.688,158.72,240,184,240c25.288,0,49.352,10.688,66.04,29.336
				c1.576,1.768,3.768,2.664,5.96,2.664c1.896,0,3.808-0.672,5.336-2.04c3.296-2.944,3.568-8,0.624-11.296
				C242.248,236.64,213.832,224,184,224z"/>
			<path d="M184,0C82.544,0,0,82.544,0,184s82.544,184,184,184s184-82.544,184-184S285.456,0,184,0z M184,352
				c-92.64,0-168-75.36-168-168S91.36,16,184,16s168,75.36,168,168S276.64,352,184,352z"/>
			<path d="M160,152c0-3.032-1.712-5.8-4.424-7.16l-64-32c-3.968-1.976-8.76-0.368-10.736,3.576
				c-1.976,3.952-0.376,8.76,3.576,10.736L134.112,152l-49.688,24.84c-3.952,1.976-5.552,6.784-3.576,10.736
				c1.4,2.808,4.224,4.424,7.16,4.424c1.2,0,2.424-0.272,3.568-0.84l64-32C158.288,157.8,160,155.032,160,152z"/>
			<path d="M283.584,176.84L233.888,152l49.688-24.84c3.952-1.984,5.56-6.784,3.584-10.736c-1.976-3.952-6.776-5.552-10.736-3.576
				l-64,32C209.712,146.2,208,148.968,208,152s1.712,5.8,4.424,7.16l64,32c1.144,0.568,2.368,0.84,3.568,0.84
				c2.936,0,5.76-1.616,7.168-4.424C289.136,183.624,287.536,178.816,283.584,176.84z"/>
		</g>
	</g>
</g>
<g>
</g>
<g>
</g>
<g>
</g>
<g>
</g>
<g>
</g>
<g>
</g>
<g>
</g>
<g>
</g>
<g>
</g>
<g>
</g>
<g>
</g>
<g>
</g>
<g>
</g>
<g>
</g>
<g>
</g>
</svg>
