<?xml version="1.0"?>
<svg xmlns="http://www.w3.org/2000/svg" xmlns:xlink="http://www.w3.org/1999/xlink" xmlns:svgjs="http://svgjs.com/svgjs" version="1.1" width="512" height="512" x="0" y="0" viewBox="0 0 427.614 427.614" style="enable-background:new 0 0 512 512" xml:space="preserve"><g>
<g xmlns="http://www.w3.org/2000/svg">
	<g>
		<path d="M333.363,28.977c-37.8-38.3-99.5-38.7-137.8-0.8c-0.3,0.3-0.5,0.5-0.8,0.8l-81,81c-1.6,0.9-2.9,2.2-3.8,3.8l-81.5,81.4    c-38,38.1-37.9,99.8,0.1,137.8c38.3,37.9,99.9,37.9,138.3,0l0.1-0.1l81.4-81.7c0.6-0.4,1.1-0.8,1.6-1.3s0.9-1,1.3-1.6l81.3-81.5    C370.863,128.977,371.163,67.277,333.363,28.977z M152.763,318.777c-30.5,30.1-79.6,30.2-110.1,0c-30.1-30.3-30.1-79.2,0-109.5    l76.4-76.4l109.6,109.8L152.763,318.777z M318.463,152.477l-75.7,75.9l-109.6-109.6l75.8-75.8c30.2-30.2,79.3-30.2,109.5,0    S348.663,122.277,318.463,152.477z" fill="#ffffff" data-original="#000000" style=""/>
	</g>
</g>
<g xmlns="http://www.w3.org/2000/svg">
	<g>
		<path d="M240.863,73.777c-3.8-4-10.1-4.1-14.1-0.1l-34.6,34c-4,3.9-4,10.2-0.2,14.1c3.8,3.9,10.2,4,14.1,0.2l0.1-0.1l34.5-34    C244.663,83.977,244.663,77.677,240.863,73.777z" fill="#ffffff" data-original="#000000" style=""/>
	</g>
</g>
<g xmlns="http://www.w3.org/2000/svg">
	<g>
		<path d="M399.263,262.077c0,0,0,0-0.1-0.1c-37.3-37.9-98.3-38.3-136.2-0.9c-0.3,0.3-0.6,0.6-0.9,0.9    c-37.9,37.9-37.9,99.3-0.1,137.2c37.8,37.9,99.3,37.9,137.2,0.1C437.063,361.377,437.063,299.977,399.263,262.077z     M253.663,330.577c0-42.5,34.5-77,77-77c16.9,0,33.4,5.6,46.8,15.9l-107.9,108C259.263,363.977,253.663,347.477,253.663,330.577z     M385.063,384.977c-27.3,27.3-70.7,30.1-101.3,6.6l107.9-107.9C415.263,314.277,412.463,357.677,385.063,384.977z" fill="#ffffff" data-original="#000000" style=""/>
	</g>
</g>
<g xmlns="http://www.w3.org/2000/svg">
</g>
<g xmlns="http://www.w3.org/2000/svg">
</g>
<g xmlns="http://www.w3.org/2000/svg">
</g>
<g xmlns="http://www.w3.org/2000/svg">
</g>
<g xmlns="http://www.w3.org/2000/svg">
</g>
<g xmlns="http://www.w3.org/2000/svg">
</g>
<g xmlns="http://www.w3.org/2000/svg">
</g>
<g xmlns="http://www.w3.org/2000/svg">
</g>
<g xmlns="http://www.w3.org/2000/svg">
</g>
<g xmlns="http://www.w3.org/2000/svg">
</g>
<g xmlns="http://www.w3.org/2000/svg">
</g>
<g xmlns="http://www.w3.org/2000/svg">
</g>
<g xmlns="http://www.w3.org/2000/svg">
</g>
<g xmlns="http://www.w3.org/2000/svg">
</g>
<g xmlns="http://www.w3.org/2000/svg">
</g>
</g></svg>
