<?xml version="1.0"?>
<svg xmlns="http://www.w3.org/2000/svg" xmlns:xlink="http://www.w3.org/1999/xlink" xmlns:svgjs="http://svgjs.com/svgjs" version="1.1" width="512" height="512" x="0" y="0" viewBox="0 0 512 512" style="enable-background:new 0 0 512 512" xml:space="preserve" class=""><g>
<g xmlns="http://www.w3.org/2000/svg">
	<g>
		<path d="M256,0C114.509,0,0,114.496,0,256c0,141.489,114.496,256,256,256c141.491,0,256-114.496,256-256    C512,114.509,397.504,0,256,0z M256,476.279c-121.462,0-220.279-98.816-220.279-220.279S134.538,35.721,256,35.721    c121.463,0,220.279,98.816,220.279,220.279S377.463,476.279,256,476.279z" fill="#ffffff" data-original="#000000" style="" class=""/>
	</g>
</g>
<g xmlns="http://www.w3.org/2000/svg">
	<g>
		<path d="M248.425,323.924c-14.153,0-25.61,11.794-25.61,25.946c0,13.817,11.12,25.948,25.61,25.948    c14.49,0,25.946-12.131,25.946-25.948C274.371,335.718,262.577,323.924,248.425,323.924z" fill="#ffffff" data-original="#000000" style="" class=""/>
	</g>
</g>
<g xmlns="http://www.w3.org/2000/svg">
	<g>
		<path d="M252.805,127.469c-45.492,0-66.384,26.959-66.384,45.155c0,13.142,11.12,19.208,20.218,19.208    c18.197,0,10.784-25.948,45.155-25.948c16.848,0,30.328,7.414,30.328,22.915c0,18.196-18.871,28.642-29.991,38.077    c-9.773,8.423-22.577,22.24-22.577,51.22c0,17.522,4.718,22.577,18.533,22.577c16.511,0,19.881-7.413,19.881-13.817    c0-17.522,0.337-27.631,18.871-42.121c9.098-7.076,37.74-29.991,37.74-61.666S295.937,127.469,252.805,127.469z" fill="#ffffff" data-original="#000000" style="" class=""/>
	</g>
</g>
<g xmlns="http://www.w3.org/2000/svg">
</g>
<g xmlns="http://www.w3.org/2000/svg">
</g>
<g xmlns="http://www.w3.org/2000/svg">
</g>
<g xmlns="http://www.w3.org/2000/svg">
</g>
<g xmlns="http://www.w3.org/2000/svg">
</g>
<g xmlns="http://www.w3.org/2000/svg">
</g>
<g xmlns="http://www.w3.org/2000/svg">
</g>
<g xmlns="http://www.w3.org/2000/svg">
</g>
<g xmlns="http://www.w3.org/2000/svg">
</g>
<g xmlns="http://www.w3.org/2000/svg">
</g>
<g xmlns="http://www.w3.org/2000/svg">
</g>
<g xmlns="http://www.w3.org/2000/svg">
</g>
<g xmlns="http://www.w3.org/2000/svg">
</g>
<g xmlns="http://www.w3.org/2000/svg">
</g>
<g xmlns="http://www.w3.org/2000/svg">
</g>
</g></svg>
